<svg xmlns="http://www.w3.org/2000/svg" width="1440" height="900" fill="none" viewBox="0 0 1440 900"><path fill="#22ACEA" fill-opacity=".1" d="M815.519 68.4477C819.632 64.3344 826.301 64.3344 830.414 68.4477L898.485 136.519C902.599 140.632 902.599 147.301 898.485 151.414L830.414 219.485C826.301 223.599 819.632 223.599 815.519 219.485L747.448 151.414C743.334 147.301 743.334 140.632 747.448 136.519L815.519 68.4477Z"/><path fill="#FAFAFA" fill-opacity=".2" d="M821.529 85.6612C822.352 84.8385 823.686 84.8385 824.508 85.6612L881.377 142.529C882.199 143.352 882.199 144.686 881.377 145.509L824.508 202.377C823.686 203.2 822.352 203.2 821.529 202.377L764.661 145.509C763.838 144.686 763.838 143.352 764.661 142.529L821.529 85.6612Z"/><path fill="#22ACEA" fill-opacity=".1" d="M1119.52 173.448C1123.63 169.334 1130.3 169.334 1134.41 173.448L1202.49 241.519C1206.6 245.632 1206.6 252.301 1202.49 256.414L1134.41 324.485C1130.3 328.599 1123.63 328.599 1119.52 324.485L1051.45 256.414C1047.33 252.301 1047.33 245.632 1051.45 241.519L1119.52 173.448Z"/><path fill="#FAFAFA" fill-opacity=".2" d="M1125.53 190.661C1126.35 189.839 1127.69 189.839 1128.51 190.661L1185.38 247.529C1186.2 248.352 1186.2 249.686 1185.38 250.509L1128.51 307.377C1127.69 308.2 1126.35 308.2 1125.53 307.377L1068.66 250.509C1067.84 249.686 1067.84 248.352 1068.66 247.529L1125.53 190.661Z"/><path fill="#22ACEA" fill-opacity=".1" d="M1214.52 277.448C1218.63 273.334 1225.3 273.334 1229.41 277.448L1297.49 345.519C1301.6 349.632 1301.6 356.301 1297.49 360.414L1229.41 428.485C1225.3 432.599 1218.63 432.599 1214.52 428.485L1146.45 360.414C1142.33 356.301 1142.33 349.632 1146.45 345.519L1214.52 277.448Z"/><path fill="#FAFAFA" fill-opacity=".2" d="M1220.53 294.661C1221.35 293.838 1222.69 293.838 1223.51 294.661L1280.38 351.529C1281.2 352.352 1281.2 353.686 1280.38 354.509L1223.51 411.377C1222.69 412.199 1221.35 412.199 1220.53 411.377L1163.66 354.509C1162.84 353.686 1162.84 352.352 1163.66 351.529L1220.53 294.661Z"/><path fill="#22ACEA" fill-opacity=".1" d="M1218.52 68.4477C1222.63 64.3344 1229.3 64.3344 1233.41 68.4477L1301.49 136.519C1305.6 140.632 1305.6 147.301 1301.49 151.414L1233.41 219.485C1229.3 223.599 1222.63 223.599 1218.52 219.485L1150.45 151.414C1146.33 147.301 1146.33 140.632 1150.45 136.519L1218.52 68.4477Z"/><path fill="#FAFAFA" fill-opacity=".2" d="M1224.53 85.6612C1225.35 84.8385 1226.69 84.8385 1227.51 85.6612L1284.38 142.529C1285.2 143.352 1285.2 144.686 1284.38 145.509L1227.51 202.377C1226.69 203.2 1225.35 203.2 1224.53 202.377L1167.66 145.509C1166.84 144.686 1166.84 143.352 1167.66 142.529L1224.53 85.6612Z"/><path fill="#22ACEA" fill-opacity=".1" d="M916.519 169.448C920.632 165.334 927.301 165.334 931.414 169.448L999.485 237.519C1003.6 241.632 1003.6 248.301 999.485 252.414L931.414 320.485C927.301 324.599 920.632 324.599 916.519 320.485L848.448 252.414C844.334 248.301 844.334 241.632 848.448 237.519L916.519 169.448Z"/><path fill="#FAFAFA" fill-opacity=".2" d="M922.529 186.661C923.352 185.839 924.686 185.839 925.508 186.661L982.377 243.529C983.199 244.352 983.199 245.686 982.377 246.509L925.508 303.377C924.686 304.2 923.352 304.2 922.529 303.377L865.661 246.509C864.838 245.686 864.838 244.352 865.661 243.529L922.529 186.661Z"/><path fill="#22ACEA" fill-opacity=".1" d="M1017.52 66.4477C1021.63 62.3344 1028.3 62.3344 1032.41 66.4477L1100.49 134.519C1104.6 138.632 1104.6 145.301 1100.49 149.414L1032.41 217.485C1028.3 221.599 1021.63 221.599 1017.52 217.485L949.448 149.414C945.334 145.301 945.334 138.632 949.448 134.519L1017.52 66.4477Z"/><path fill="#FAFAFA" fill-opacity=".2" d="M1023.53 83.6612C1024.35 82.8385 1025.69 82.8385 1026.51 83.6612L1083.38 140.529C1084.2 141.352 1084.2 142.686 1083.38 143.509L1026.51 200.377C1025.69 201.2 1024.35 201.2 1023.53 200.377L966.661 143.509C965.838 142.686 965.838 141.352 966.661 140.529L1023.53 83.6612Z"/><path fill="#22ACEA" fill-opacity=".1" d="M1119.52 -35.5524C1123.63 -39.6656 1130.3 -39.6656 1134.41 -35.5524L1202.49 32.5189C1206.6 36.6321 1206.6 43.3009 1202.49 47.4142L1134.41 115.485C1130.3 119.599 1123.63 119.599 1119.52 115.485L1051.45 47.4142C1047.33 43.3009 1047.33 36.6321 1051.45 32.5189L1119.52 -35.5524Z"/><path fill="#FAFAFA" fill-opacity=".2" d="M1125.53 -18.3389C1126.35 -19.1615 1127.69 -19.1615 1128.51 -18.3389L1185.38 38.5295C1186.2 39.3521 1186.2 40.6859 1185.38 41.5085L1128.51 98.3768C1127.69 99.1995 1126.35 99.1995 1125.53 98.3768L1068.66 41.5085C1067.84 40.6859 1067.84 39.3521 1068.66 38.5295L1125.53 -18.3389Z"/><path fill="#22ACEA" fill-opacity=".1" d="M917.519 384.448C921.632 380.334 928.301 380.334 932.414 384.448L1000.49 452.519C1004.6 456.632 1004.6 463.301 1000.49 467.414L932.414 535.485C928.301 539.599 921.632 539.599 917.519 535.485L849.448 467.414C845.334 463.301 845.334 456.632 849.448 452.519L917.519 384.448Z"/><path fill="#FAFAFA" fill-opacity=".2" d="M923.529 401.661C924.352 400.838 925.686 400.838 926.508 401.661L983.377 458.529C984.199 459.352 984.199 460.686 983.377 461.509L926.508 518.377C925.686 519.199 924.352 519.199 923.529 518.377L866.661 461.509C865.838 460.686 865.838 459.352 866.661 458.529L923.529 401.661Z"/><path fill="#22ACEA" fill-opacity=".1" d="M1017.52 277.448C1021.63 273.334 1028.3 273.334 1032.41 277.448L1100.49 345.519C1104.6 349.632 1104.6 356.301 1100.49 360.414L1032.41 428.485C1028.3 432.599 1021.63 432.599 1017.52 428.485L949.448 360.414C945.334 356.301 945.334 349.632 949.448 345.519L1017.52 277.448Z"/><path fill="#FAFAFA" fill-opacity=".2" d="M1023.53 294.661C1024.35 293.838 1025.69 293.838 1026.51 294.661L1083.38 351.529C1084.2 352.352 1084.2 353.686 1083.38 354.509L1026.51 411.377C1025.69 412.199 1024.35 412.199 1023.53 411.377L966.661 354.509C965.838 353.686 965.838 352.352 966.661 351.529L1023.53 294.661Z"/><path fill="#22ACEA" fill-opacity=".1" d="M500.519 369.448C504.632 365.334 511.301 365.334 515.414 369.448L583.485 437.519C587.599 441.632 587.599 448.301 583.485 452.414L515.414 520.485C511.301 524.599 504.632 524.599 500.519 520.485L432.448 452.414C428.334 448.301 428.334 441.632 432.448 437.519L500.519 369.448Z"/><path fill="#FAFAFA" fill-opacity=".2" d="M506.529 386.661C507.352 385.838 508.686 385.838 509.508 386.661L566.377 443.529C567.199 444.352 567.199 445.686 566.377 446.509L509.508 503.377C508.686 504.199 507.352 504.199 506.529 503.377L449.661 446.509C448.838 445.686 448.838 444.352 449.661 443.529L506.529 386.661Z"/><path fill="#22ACEA" fill-opacity=".1" d="M500.519 173.448C504.632 169.334 511.301 169.334 515.414 173.448L583.485 241.519C587.599 245.632 587.599 252.301 583.485 256.414L515.414 324.485C511.301 328.599 504.632 328.599 500.519 324.485L432.448 256.414C428.334 252.301 428.334 245.632 432.448 241.519L500.519 173.448Z"/><path fill="#FAFAFA" fill-opacity=".2" d="M506.529 190.661C507.352 189.839 508.686 189.839 509.508 190.661L566.377 247.529C567.199 248.352 567.199 249.686 566.377 250.509L509.508 307.377C508.686 308.2 507.352 308.2 506.529 307.377L449.661 250.509C448.838 249.686 448.838 248.352 449.661 247.529L506.529 190.661Z"/><path fill="#22ACEA" fill-opacity=".1" d="M604.519 68.4477C608.632 64.3344 615.301 64.3344 619.414 68.4477L687.485 136.519C691.599 140.632 691.599 147.301 687.485 151.414L619.414 219.485C615.301 223.599 608.632 223.599 604.519 219.485L536.448 151.414C532.334 147.301 532.334 140.632 536.448 136.519L604.519 68.4477Z"/><path fill="#FAFAFA" fill-opacity=".2" d="M610.529 85.6612C611.352 84.8385 612.686 84.8385 613.508 85.6612L670.377 142.529C671.199 143.352 671.199 144.686 670.377 145.509L613.508 202.377C612.686 203.2 611.352 203.2 610.529 202.377L553.661 145.509C552.838 144.686 552.838 143.352 553.661 142.529L610.529 85.6612Z"/><path fill="#22ACEA" fill-opacity=".1" d="M-0.481072 269.448C3.63214 265.334 10.301 265.334 14.4142 269.448L82.4855 337.519C86.5987 341.632 86.5987 348.301 82.4855 352.414L14.4142 420.485C10.301 424.599 3.63214 424.599 -0.481072 420.485L-68.5524 352.414C-72.6656 348.301 -72.6656 341.632 -68.5524 337.519L-0.481072 269.448Z"/><path fill="#FAFAFA" fill-opacity=".2" d="M5.52927 286.661C6.35191 285.838 7.68568 285.838 8.50832 286.661L65.3767 343.529C66.1993 344.352 66.1993 345.686 65.3767 346.509L8.50832 403.377C7.68568 404.199 6.35192 404.199 5.52927 403.377L-51.3391 346.509C-52.1617 345.686 -52.1617 344.352 -51.3391 343.529L5.52927 286.661Z"/><path fill="#22ACEA" fill-opacity=".1" d="M103.519 571.448C107.632 567.334 114.301 567.334 118.414 571.448L186.485 639.519C190.599 643.632 190.599 650.301 186.485 654.414L118.414 722.485C114.301 726.599 107.632 726.599 103.519 722.485L35.4476 654.414C31.3344 650.301 31.3344 643.632 35.4476 639.519L103.519 571.448Z"/><path fill="#FAFAFA" fill-opacity=".2" d="M109.529 588.661C110.352 587.839 111.686 587.839 112.508 588.661L169.377 645.529C170.199 646.352 170.199 647.686 169.377 648.509L112.508 705.377C111.686 706.2 110.352 706.2 109.529 705.377L52.6609 648.509C51.8383 647.686 51.8383 646.352 52.6609 645.529L109.529 588.661Z"/><path fill="#22ACEA" fill-opacity=".1" d="M199.519 678.448C203.632 674.334 210.301 674.334 214.414 678.448L282.485 746.519C286.599 750.632 286.599 757.301 282.485 761.414L214.414 829.485C210.301 833.599 203.632 833.599 199.519 829.485L131.448 761.414C127.334 757.301 127.334 750.632 131.448 746.519L199.519 678.448Z"/><path fill="#FAFAFA" fill-opacity=".2" d="M205.529 695.661C206.352 694.839 207.686 694.839 208.508 695.661L265.377 752.529C266.199 753.352 266.199 754.686 265.377 755.509L208.508 812.377C207.686 813.2 206.352 813.2 205.529 812.377L148.661 755.509C147.838 754.686 147.838 753.352 148.661 752.529L205.529 695.661Z"/><path fill="#22ACEA" fill-opacity=".1" d="M300.519 574.448C304.632 570.334 311.301 570.334 315.414 574.448L383.485 642.519C387.599 646.632 387.599 653.301 383.485 657.414L315.414 725.485C311.301 729.599 304.632 729.599 300.519 725.485L232.448 657.414C228.334 653.301 228.334 646.632 232.448 642.519L300.519 574.448Z"/><path fill="#FAFAFA" fill-opacity=".2" d="M306.529 591.661C307.352 590.839 308.686 590.839 309.508 591.661L366.377 648.529C367.199 649.352 367.199 650.686 366.377 651.509L309.508 708.377C308.686 709.2 307.352 709.2 306.529 708.377L249.661 651.509C248.838 650.686 248.838 649.352 249.661 648.529L306.529 591.661Z"/><path fill="#22ACEA" fill-opacity=".1" d="M-0.481072 68.4477C3.63214 64.3344 10.301 64.3344 14.4142 68.4477L82.4855 136.519C86.5987 140.632 86.5987 147.301 82.4855 151.414L14.4142 219.485C10.301 223.599 3.63214 223.599 -0.481072 219.485L-68.5524 151.414C-72.6656 147.301 -72.6656 140.632 -68.5524 136.519L-0.481072 68.4477Z"/><path fill="#FAFAFA" fill-opacity=".2" d="M5.52927 85.6612C6.35191 84.8385 7.68568 84.8385 8.50832 85.6612L65.3767 142.529C66.1993 143.352 66.1993 144.686 65.3767 145.509L8.50832 202.377C7.68568 203.2 6.35192 203.2 5.52927 202.377L-51.3391 145.509C-52.1617 144.686 -52.1617 143.352 -51.3391 142.529L5.52927 85.6612Z"/><path fill="#22ACEA" fill-opacity=".1" d="M99.5189 169.448C103.632 165.334 110.301 165.334 114.414 169.448L182.485 237.519C186.599 241.632 186.599 248.301 182.485 252.414L114.414 320.485C110.301 324.599 103.632 324.599 99.5189 320.485L31.4476 252.414C27.3344 248.301 27.3344 241.632 31.4476 237.519L99.5189 169.448Z"/><path fill="#FAFAFA" fill-opacity=".2" d="M105.529 186.661C106.352 185.839 107.686 185.839 108.508 186.661L165.377 243.529C166.199 244.352 166.199 245.686 165.377 246.509L108.508 303.377C107.686 304.2 106.352 304.2 105.529 303.377L48.6609 246.509C47.8383 245.686 47.8383 244.352 48.6609 243.529L105.529 186.661Z"/><path fill="#22ACEA" fill-opacity=".1" d="M199.519 269.448C203.632 265.334 210.301 265.334 214.414 269.448L282.485 337.519C286.599 341.632 286.599 348.301 282.485 352.414L214.414 420.485C210.301 424.599 203.632 424.599 199.519 420.485L131.448 352.414C127.334 348.301 127.334 341.632 131.448 337.519L199.519 269.448Z"/><path fill="#FAFAFA" fill-opacity=".2" d="M205.529 286.661C206.352 285.838 207.686 285.838 208.508 286.661L265.377 343.529C266.199 344.352 266.199 345.686 265.377 346.509L208.508 403.377C207.686 404.199 206.352 404.199 205.529 403.377L148.661 346.509C147.838 345.686 147.838 344.352 148.661 343.529L205.529 286.661Z"/><path fill="#22ACEA" fill-opacity=".1" d="M303.519 366.448C307.632 362.334 314.301 362.334 318.414 366.448L386.485 434.519C390.599 438.632 390.599 445.301 386.485 449.414L318.414 517.485C314.301 521.599 307.632 521.599 303.519 517.485L235.448 449.414C231.334 445.301 231.334 438.632 235.448 434.519L303.519 366.448Z"/><path fill="#FAFAFA" fill-opacity=".2" d="M309.529 383.661C310.352 382.838 311.686 382.838 312.508 383.661L369.377 440.529C370.199 441.352 370.199 442.686 369.377 443.509L312.508 500.377C311.686 501.199 310.352 501.199 309.529 500.377L252.661 443.509C251.838 442.686 251.838 441.352 252.661 440.529L309.529 383.661Z"/><path fill="#22ACEA" fill-opacity=".1" d="M401.519 469.448C405.632 465.334 412.301 465.334 416.414 469.448L484.485 537.519C488.599 541.632 488.599 548.301 484.485 552.414L416.414 620.485C412.301 624.599 405.632 624.599 401.519 620.485L333.448 552.414C329.334 548.301 329.334 541.632 333.448 537.519L401.519 469.448Z"/><path fill="#FAFAFA" fill-opacity=".2" d="M407.529 486.661C408.352 485.839 409.686 485.839 410.508 486.661L467.377 543.529C468.199 544.352 468.199 545.686 467.377 546.509L410.508 603.377C409.686 604.2 408.352 604.2 407.529 603.377L350.661 546.509C349.838 545.686 349.838 544.352 350.661 543.529L407.529 486.661Z"/><path fill="#22ACEA" fill-opacity=".1" d="M501.519 574.448C505.632 570.334 512.301 570.334 516.414 574.448L584.485 642.519C588.599 646.632 588.599 653.301 584.485 657.414L516.414 725.485C512.301 729.599 505.632 729.599 501.519 725.485L433.448 657.414C429.334 653.301 429.334 646.632 433.448 642.519L501.519 574.448Z"/><path fill="#FAFAFA" fill-opacity=".2" d="M507.529 591.661C508.352 590.839 509.686 590.839 510.508 591.661L567.377 648.529C568.199 649.352 568.199 650.686 567.377 651.509L510.508 708.377C509.686 709.2 508.352 709.2 507.529 708.377L450.661 651.509C449.838 650.686 449.838 649.352 450.661 648.529L507.529 591.661Z"/><path fill="#22ACEA" fill-opacity=".1" d="M601.519 680.448C605.632 676.334 612.301 676.334 616.414 680.448L684.485 748.519C688.599 752.632 688.599 759.301 684.485 763.414L616.414 831.485C612.301 835.599 605.632 835.599 601.519 831.485L533.448 763.414C529.334 759.301 529.334 752.632 533.448 748.519L601.519 680.448Z"/><path fill="#FAFAFA" fill-opacity=".2" d="M607.529 697.661C608.352 696.839 609.686 696.839 610.508 697.661L667.377 754.529C668.199 755.352 668.199 756.686 667.377 757.509L610.508 814.377C609.686 815.2 608.352 815.2 607.529 814.377L550.661 757.509C549.838 756.686 549.838 755.352 550.661 754.529L607.529 697.661Z"/><path fill="#22ACEA" fill-opacity=".1" d="M700.519 778.448C704.632 774.334 711.301 774.334 715.414 778.448L783.485 846.519C787.599 850.632 787.599 857.301 783.485 861.414L715.414 929.485C711.301 933.599 704.632 933.599 700.519 929.485L632.448 861.414C628.334 857.301 628.334 850.632 632.448 846.519L700.519 778.448Z"/><path fill="#FAFAFA" fill-opacity=".2" d="M706.529 795.661C707.352 794.839 708.686 794.839 709.508 795.661L766.377 852.529C767.199 853.352 767.199 854.686 766.377 855.509L709.508 912.377C708.686 913.2 707.352 913.2 706.529 912.377L649.661 855.509C648.838 854.686 648.838 853.352 649.661 852.529L706.529 795.661Z"/><path fill="#22ACEA" fill-opacity=".1" d="M300.519 168.448C304.632 164.334 311.301 164.334 315.414 168.448L383.485 236.519C387.599 240.632 387.599 247.301 383.485 251.414L315.414 319.485C311.301 323.599 304.632 323.599 300.519 319.485L232.448 251.414C228.334 247.301 228.334 240.632 232.448 236.519L300.519 168.448Z"/><path fill="#FAFAFA" fill-opacity=".2" d="M306.529 185.661C307.352 184.839 308.686 184.839 309.508 185.661L366.377 242.529C367.199 243.352 367.199 244.686 366.377 245.509L309.508 302.377C308.686 303.2 307.352 303.2 306.529 302.377L249.661 245.509C248.838 244.686 248.838 243.352 249.661 242.529L306.529 185.661Z"/><path fill="#22ACEA" fill-opacity=".1" d="M400.519 68.4477C404.632 64.3344 411.301 64.3344 415.414 68.4477L483.485 136.519C487.599 140.632 487.599 147.301 483.485 151.414L415.414 219.485C411.301 223.599 404.632 223.599 400.519 219.485L332.448 151.414C328.334 147.301 328.334 140.632 332.448 136.519L400.519 68.4477Z"/><path fill="#FAFAFA" fill-opacity=".2" d="M406.529 85.6612C407.352 84.8385 408.686 84.8385 409.508 85.6612L466.377 142.529C467.199 143.352 467.199 144.686 466.377 145.509L409.508 202.377C408.686 203.2 407.352 203.2 406.529 202.377L349.661 145.509C348.838 144.686 348.838 143.352 349.661 142.529L406.529 85.6612Z"/><path fill="#22ACEA" fill-opacity=".1" d="M501.519 -35.5524C505.632 -39.6656 512.301 -39.6656 516.414 -35.5524L584.485 32.5189C588.599 36.6321 588.599 43.3009 584.485 47.4142L516.414 115.485C512.301 119.599 505.632 119.599 501.519 115.485L433.448 47.4142C429.334 43.3009 429.334 36.6321 433.448 32.5189L501.519 -35.5524Z"/><path fill="#FAFAFA" fill-opacity=".2" d="M507.529 -18.3389C508.352 -19.1615 509.686 -19.1615 510.508 -18.3389L567.377 38.5295C568.199 39.3521 568.199 40.6859 567.377 41.5085L510.508 98.3768C509.686 99.1995 508.352 99.1995 507.529 98.3768L450.661 41.5085C449.838 40.6859 449.838 39.3521 450.661 38.5295L507.529 -18.3389Z"/><path fill="#22ACEA" fill-opacity=".1" d="M99.5189 784.448C103.632 780.334 110.301 780.334 114.414 784.448L182.485 852.519C186.599 856.632 186.599 863.301 182.485 867.414L114.414 935.485C110.301 939.599 103.632 939.599 99.5189 935.485L31.4476 867.414C27.3344 863.301 27.3344 856.632 31.4476 852.519L99.5189 784.448Z"/><path fill="#FAFAFA" fill-opacity=".2" d="M105.529 801.661C106.352 800.839 107.686 800.839 108.508 801.661L165.377 858.529C166.199 859.352 166.199 860.686 165.377 861.509L108.508 918.377C107.686 919.2 106.352 919.2 105.529 918.377L48.6609 861.509C47.8383 860.686 47.8383 859.352 48.6609 858.529L105.529 801.661Z"/><path fill="#22ACEA" fill-opacity=".1" d="M303.519 778.448C307.632 774.334 314.301 774.334 318.414 778.448L386.485 846.519C390.599 850.632 390.599 857.301 386.485 861.414L318.414 929.485C314.301 933.599 307.632 933.599 303.519 929.485L235.448 861.414C231.334 857.301 231.334 850.632 235.448 846.519L303.519 778.448Z"/><path fill="#FAFAFA" fill-opacity=".2" d="M309.529 795.661C310.352 794.839 311.686 794.839 312.508 795.661L369.377 852.529C370.199 853.352 370.199 854.686 369.377 855.509L312.508 912.377C311.686 913.2 310.352 913.2 309.529 912.377L252.661 855.509C251.838 854.686 251.838 853.352 252.661 852.529L309.529 795.661Z"/><path fill="#22ACEA" fill-opacity=".1" d="M1310.52 -35.5524C1314.63 -39.6656 1321.3 -39.6656 1325.41 -35.5524L1393.49 32.5189C1397.6 36.6321 1397.6 43.3009 1393.49 47.4142L1325.41 115.485C1321.3 119.599 1314.63 119.599 1310.52 115.485L1242.45 47.4142C1238.33 43.3009 1238.33 36.6321 1242.45 32.5189L1310.52 -35.5524Z"/><path fill="#FAFAFA" fill-opacity=".2" d="M1316.53 -18.3389C1317.35 -19.1615 1318.69 -19.1615 1319.51 -18.3389L1376.38 38.5295C1377.2 39.3521 1377.2 40.6859 1376.38 41.5085L1319.51 98.3768C1318.69 99.1995 1317.35 99.1995 1316.53 98.3768L1259.66 41.5085C1258.84 40.6859 1258.84 39.3521 1259.66 38.5295L1316.53 -18.3389Z"/><path fill="#22ACEA" fill-opacity=".1" d="M1409.52 68.4477C1413.63 64.3344 1420.3 64.3344 1424.41 68.4477L1492.49 136.519C1496.6 140.632 1496.6 147.301 1492.49 151.414L1424.41 219.485C1420.3 223.599 1413.63 223.599 1409.52 219.485L1341.45 151.414C1337.33 147.301 1337.33 140.632 1341.45 136.519L1409.52 68.4477Z"/><path fill="#FAFAFA" fill-opacity=".2" d="M1415.53 85.6612C1416.35 84.8385 1417.69 84.8385 1418.51 85.6612L1475.38 142.529C1476.2 143.352 1476.2 144.686 1475.38 145.509L1418.51 202.377C1417.69 203.2 1416.35 203.2 1415.53 202.377L1358.66 145.509C1357.84 144.686 1357.84 143.352 1358.66 142.529L1415.53 85.6612Z"/><path fill="#22ACEA" fill-opacity=".1" d="M1117.52 382.448C1121.63 378.334 1128.3 378.334 1132.41 382.448L1200.49 450.519C1204.6 454.632 1204.6 461.301 1200.49 465.414L1132.41 533.485C1128.3 537.599 1121.63 537.599 1117.52 533.485L1049.45 465.414C1045.33 461.301 1045.33 454.632 1049.45 450.519L1117.52 382.448Z"/><path fill="#FAFAFA" fill-opacity=".2" d="M1123.53 399.661C1124.35 398.838 1125.69 398.838 1126.51 399.661L1183.38 456.529C1184.2 457.352 1184.2 458.686 1183.38 459.509L1126.51 516.377C1125.69 517.199 1124.35 517.199 1123.53 516.377L1066.66 459.509C1065.84 458.686 1065.84 457.352 1066.66 456.529L1123.53 399.661Z"/><path fill="#22ACEA" fill-opacity=".1" d="M1017.52 482.448C1021.63 478.334 1028.3 478.334 1032.41 482.448L1100.49 550.519C1104.6 554.632 1104.6 561.301 1100.49 565.414L1032.41 633.485C1028.3 637.599 1021.63 637.599 1017.52 633.485L949.448 565.414C945.334 561.301 945.334 554.632 949.448 550.519L1017.52 482.448Z"/><path fill="#FAFAFA" fill-opacity=".2" d="M1023.53 499.661C1024.35 498.839 1025.69 498.839 1026.51 499.661L1083.38 556.529C1084.2 557.352 1084.2 558.686 1083.38 559.509L1026.51 616.377C1025.69 617.2 1024.35 617.2 1023.53 616.377L966.661 559.509C965.838 558.686 965.838 557.352 966.661 556.529L1023.53 499.661Z"/><path fill="#22ACEA" fill-opacity=".1" d="M916.519 588.448C920.632 584.334 927.301 584.334 931.414 588.448L999.485 656.519C1003.6 660.632 1003.6 667.301 999.485 671.414L931.414 739.485C927.301 743.599 920.632 743.599 916.519 739.485L848.448 671.414C844.334 667.301 844.334 660.632 848.448 656.519L916.519 588.448Z"/><path fill="#FAFAFA" fill-opacity=".2" d="M922.529 605.661C923.352 604.839 924.686 604.839 925.508 605.661L982.377 662.529C983.199 663.352 983.199 664.686 982.377 665.509L925.508 722.377C924.686 723.2 923.352 723.2 922.529 722.377L865.661 665.509C864.838 664.686 864.838 663.352 865.661 662.529L922.529 605.661Z"/><path fill="#22ACEA" fill-opacity=".1" d="M916.519 784.448C920.632 780.334 927.301 780.334 931.414 784.448L999.485 852.519C1003.6 856.632 1003.6 863.301 999.485 867.414L931.414 935.485C927.301 939.599 920.632 939.599 916.519 935.485L848.448 867.414C844.334 863.301 844.334 856.632 848.448 852.519L916.519 784.448Z"/><path fill="#FAFAFA" fill-opacity=".2" d="M922.529 801.661C923.352 800.839 924.686 800.839 925.508 801.661L982.377 858.529C983.199 859.352 983.199 860.686 982.377 861.509L925.508 918.377C924.686 919.2 923.352 919.2 922.529 918.377L865.661 861.509C864.838 860.686 864.838 859.352 865.661 858.529L922.529 801.661Z"/><path fill="#22ACEA" fill-opacity=".1" d="M1017.52 687.448C1021.63 683.334 1028.3 683.334 1032.41 687.448L1100.49 755.519C1104.6 759.632 1104.6 766.301 1100.49 770.414L1032.41 838.485C1028.3 842.599 1021.63 842.599 1017.52 838.485L949.448 770.414C945.334 766.301 945.334 759.632 949.448 755.519L1017.52 687.448Z"/><path fill="#FAFAFA" fill-opacity=".2" d="M1023.53 704.661C1024.35 703.839 1025.69 703.839 1026.51 704.661L1083.38 761.529C1084.2 762.352 1084.2 763.686 1083.38 764.509L1026.51 821.377C1025.69 822.2 1024.35 822.2 1023.53 821.377L966.661 764.509C965.838 763.686 965.838 762.352 966.661 761.529L1023.53 704.661Z"/><path fill="#22ACEA" fill-opacity=".1" d="M1117.52 588.448C1121.63 584.334 1128.3 584.334 1132.41 588.448L1200.49 656.519C1204.6 660.632 1204.6 667.301 1200.49 671.414L1132.41 739.485C1128.3 743.599 1121.63 743.599 1117.52 739.485L1049.45 671.414C1045.33 667.301 1045.33 660.632 1049.45 656.519L1117.52 588.448Z"/><path fill="#FAFAFA" fill-opacity=".2" d="M1123.53 605.661C1124.35 604.839 1125.69 604.839 1126.51 605.661L1183.38 662.529C1184.2 663.352 1184.2 664.686 1183.38 665.509L1126.51 722.377C1125.69 723.2 1124.35 723.2 1123.53 722.377L1066.66 665.509C1065.84 664.686 1065.84 663.352 1066.66 662.529L1123.53 605.661Z"/><path fill="#22ACEA" fill-opacity=".1" d="M1221.52 687.448C1225.63 683.334 1232.3 683.334 1236.41 687.448L1304.49 755.519C1308.6 759.632 1308.6 766.301 1304.49 770.414L1236.41 838.485C1232.3 842.599 1225.63 842.599 1221.52 838.485L1153.45 770.414C1149.33 766.301 1149.33 759.632 1153.45 755.519L1221.52 687.448Z"/><path fill="#FAFAFA" fill-opacity=".2" d="M1227.53 704.661C1228.35 703.839 1229.69 703.839 1230.51 704.661L1287.38 761.529C1288.2 762.352 1288.2 763.686 1287.38 764.509L1230.51 821.377C1229.69 822.2 1228.35 822.2 1227.53 821.377L1170.66 764.509C1169.84 763.686 1169.84 762.352 1170.66 761.529L1227.53 704.661Z"/><path fill="#22ACEA" fill-opacity=".1" d="M1215.52 482.448C1219.63 478.334 1226.3 478.334 1230.41 482.448L1298.49 550.519C1302.6 554.632 1302.6 561.301 1298.49 565.414L1230.41 633.485C1226.3 637.599 1219.63 637.599 1215.52 633.485L1147.45 565.414C1143.33 561.301 1143.33 554.632 1147.45 550.519L1215.52 482.448Z"/><path fill="#FAFAFA" fill-opacity=".2" d="M1221.53 499.661C1222.35 498.839 1223.69 498.839 1224.51 499.661L1281.38 556.529C1282.2 557.352 1282.2 558.686 1281.38 559.509L1224.51 616.377C1223.69 617.2 1222.35 617.2 1221.53 616.377L1164.66 559.509C1163.84 558.686 1163.84 557.352 1164.66 556.529L1221.53 499.661Z"/><path fill="#22ACEA" fill-opacity=".1" d="M1323.52 588.448C1327.63 584.334 1334.3 584.334 1338.41 588.448L1406.49 656.519C1410.6 660.632 1410.6 667.301 1406.49 671.414L1338.41 739.485C1334.3 743.599 1327.63 743.599 1323.52 739.485L1255.45 671.414C1251.33 667.301 1251.33 660.632 1255.45 656.519L1323.52 588.448Z"/><path fill="#FAFAFA" fill-opacity=".2" d="M1329.53 605.661C1330.35 604.839 1331.69 604.839 1332.51 605.661L1389.38 662.529C1390.2 663.352 1390.2 664.686 1389.38 665.509L1332.51 722.377C1331.69 723.2 1330.35 723.2 1329.53 722.377L1272.66 665.509C1271.84 664.686 1271.84 663.352 1272.66 662.529L1329.53 605.661Z"/><path fill="#22ACEA" fill-opacity=".1" d="M1421.52 487.448C1425.63 483.334 1432.3 483.334 1436.41 487.448L1504.49 555.519C1508.6 559.632 1508.6 566.301 1504.49 570.414L1436.41 638.485C1432.3 642.599 1425.63 642.599 1421.52 638.485L1353.45 570.414C1349.33 566.301 1349.33 559.632 1353.45 555.519L1421.52 487.448Z"/><path fill="#FAFAFA" fill-opacity=".2" d="M1427.53 504.661C1428.35 503.839 1429.69 503.839 1430.51 504.661L1487.38 561.529C1488.2 562.352 1488.2 563.686 1487.38 564.509L1430.51 621.377C1429.69 622.2 1428.35 622.2 1427.53 621.377L1370.66 564.509C1369.84 563.686 1369.84 562.352 1370.66 561.529L1427.53 504.661Z"/><path fill="#22ACEA" fill-opacity=".1" d="M1425.52 687.448C1429.63 683.334 1436.3 683.334 1440.41 687.448L1508.49 755.519C1512.6 759.632 1512.6 766.301 1508.49 770.414L1440.41 838.485C1436.3 842.599 1429.63 842.599 1425.52 838.485L1357.45 770.414C1353.33 766.301 1353.33 759.632 1357.45 755.519L1425.52 687.448Z"/><path fill="#FAFAFA" fill-opacity=".2" d="M1431.53 704.661C1432.35 703.839 1433.69 703.839 1434.51 704.661L1491.38 761.529C1492.2 762.352 1492.2 763.686 1491.38 764.509L1434.51 821.377C1433.69 822.2 1432.35 822.2 1431.53 821.377L1374.66 764.509C1373.84 763.686 1373.84 762.352 1374.66 761.529L1431.53 704.661Z"/><path fill="#22ACEA" fill-opacity=".1" d="M303.519 -35.5524C307.632 -39.6656 314.301 -39.6656 318.414 -35.5524L386.485 32.5189C390.599 36.6321 390.599 43.3009 386.485 47.4142L318.414 115.485C314.301 119.599 307.632 119.599 303.519 115.485L235.448 47.4142C231.334 43.3009 231.334 36.6321 235.448 32.5189L303.519 -35.5524Z"/><path fill="#FAFAFA" fill-opacity=".2" d="M309.529 -18.3389C310.352 -19.1615 311.686 -19.1615 312.508 -18.3389L369.377 38.5295C370.199 39.3521 370.199 40.6859 369.377 41.5085L312.508 98.3768C311.686 99.1995 310.352 99.1995 309.529 98.3768L252.661 41.5085C251.838 40.6859 251.838 39.3521 252.661 38.5295L309.529 -18.3389Z"/></svg>