<svg xmlns="http://www.w3.org/2000/svg" width="1440" height="207" fill="none" viewBox="0 0 1440 207"><rect width="1440" height="207" fill="#C4C4C4"/><mask id="mask0" width="1440" height="207" x="0" y="0" mask-type="alpha" maskUnits="userSpaceOnUse"><rect width="1440" height="207" fill="#C4C4C4"/></mask><g mask="url(#mask0)"><path fill="#BDBDBD" d="M512.519 77.4476C516.632 73.3344 523.301 73.3344 527.414 77.4476L595.485 145.519C599.598 149.632 599.598 156.301 595.485 160.414L527.414 228.485C523.301 232.599 516.632 232.599 512.519 228.485L444.447 160.414C440.334 156.301 440.334 149.632 444.447 145.519L512.519 77.4476Z"/><path fill="#C4C4C4" d="M518.53 94.6614C519.352 93.8388 520.686 93.8388 521.509 94.6614L578.377 151.53C579.2 152.352 579.2 153.686 578.377 154.509L521.509 211.377C520.686 212.2 519.352 212.2 518.53 211.377L461.661 154.509C460.839 153.686 460.839 152.352 461.661 151.53L518.53 94.6614Z"/><path fill="#BDBDBD" d="M612.498 177.767C616.611 173.654 623.28 173.654 627.393 177.767L695.465 245.838C699.578 249.951 699.578 256.62 695.465 260.733L627.393 328.805C623.28 332.918 616.611 332.918 612.498 328.805L544.427 260.733C540.314 256.62 540.314 249.951 544.427 245.838L612.498 177.767Z"/><path fill="#C4C4C4" d="M618.509 194.981C619.332 194.158 620.665 194.158 621.488 194.981L678.356 251.849C679.179 252.672 679.179 254.005 678.356 254.828L621.488 311.696C620.665 312.519 619.332 312.519 618.509 311.696L561.641 254.828C560.818 254.005 560.818 252.672 561.641 251.849L618.509 194.981Z"/><path fill="#BDBDBD" d="M921.524 83.4418C925.637 79.3286 932.306 79.3286 936.419 83.4418L1004.49 151.513C1008.6 155.626 1008.6 162.295 1004.49 166.408L936.419 234.48C932.306 238.593 925.637 238.593 921.524 234.48L853.452 166.408C849.339 162.295 849.339 155.626 853.452 151.513L921.524 83.4418Z"/><path fill="#C4C4C4" d="M927.533 100.656C928.356 99.8329 929.69 99.8329 930.512 100.656L987.381 157.524C988.203 158.347 988.203 159.68 987.381 160.503L930.512 217.371C929.69 218.194 928.356 218.194 927.533 217.371L870.665 160.503C869.842 159.68 869.842 158.347 870.665 157.524L927.533 100.656Z"/><path fill="#BDBDBD" d="M821.519 183.448C825.632 179.334 832.301 179.334 836.414 183.448L904.485 251.519C908.598 255.632 908.598 262.301 904.485 266.414L836.414 334.485C832.301 338.599 825.632 338.599 821.519 334.485L753.447 266.414C749.334 262.301 749.334 255.632 753.447 251.519L821.519 183.448Z"/><path fill="#C4C4C4" d="M827.53 200.661C828.352 199.839 829.686 199.839 830.509 200.661L887.377 257.53C888.2 258.352 888.2 259.686 887.377 260.509L830.509 317.377C829.686 318.2 828.352 318.2 827.53 317.377L770.661 260.509C769.839 259.686 769.839 258.352 770.661 257.53L827.53 200.661Z"/><path fill="#BDBDBD" d="M712.519 77.4476C716.632 73.3344 723.301 73.3344 727.414 77.4476L795.485 145.519C799.598 149.632 799.598 156.301 795.485 160.414L727.414 228.485C723.301 232.599 716.632 232.599 712.519 228.485L644.447 160.414C640.334 156.301 640.334 149.632 644.447 145.519L712.519 77.4476Z"/><path fill="#C4C4C4" d="M718.53 94.6614C719.352 93.8388 720.686 93.8388 721.509 94.6614L778.377 151.53C779.2 152.352 779.2 153.686 778.377 154.509L721.509 211.377C720.686 212.2 719.352 212.2 718.53 211.377L661.661 154.509C660.839 153.686 660.839 152.352 661.661 151.53L718.53 94.6614Z"/><path fill="#BDBDBD" d="M10.5187 -23.5524C14.6319 -27.6656 21.3007 -27.6656 25.4139 -23.5524L93.4852 44.5189C97.5984 48.6321 97.5984 55.3009 93.4852 59.4142L25.4139 127.485C21.3007 131.599 14.6319 131.599 10.5187 127.485L-57.5526 59.4142C-61.6658 55.3009 -61.6658 48.6321 -57.5526 44.5189L10.5187 -23.5524Z"/><path fill="#C4C4C4" d="M16.5295 -6.3386C17.3522 -7.16124 18.6859 -7.16124 19.5086 -6.3386L76.3769 50.5297C77.1995 51.3524 77.1995 52.6861 76.3769 53.5088L19.5086 110.377C18.6859 111.2 17.3522 111.2 16.5295 110.377L-40.3388 53.5088C-41.1615 52.6861 -41.1615 51.3524 -40.3388 50.5297L16.5295 -6.3386Z"/><path fill="#BDBDBD" d="M210.818 177.085C214.931 172.972 221.6 172.972 225.713 177.085L293.784 245.157C297.897 249.27 297.897 255.939 293.784 260.052L225.713 328.123C221.6 332.236 214.931 332.236 210.818 328.123L142.746 260.052C138.633 255.939 138.633 249.27 142.746 245.157L210.818 177.085Z"/><path fill="#C4C4C4" d="M216.828 194.299C217.651 193.476 218.985 193.476 219.807 194.299L276.676 251.167C277.498 251.99 277.498 253.324 276.676 254.146L219.807 311.015C218.985 311.837 217.651 311.837 216.828 311.015L159.96 254.146C159.137 253.324 159.137 251.99 159.96 251.167L216.828 194.299Z"/><path fill="#BDBDBD" d="M110.498 76.767C114.611 72.6538 121.28 72.6538 125.393 76.767L193.465 144.838C197.578 148.951 197.578 155.62 193.465 159.733L125.393 227.805C121.28 231.918 114.611 231.918 110.498 227.805L42.4269 159.733C38.3137 155.62 38.3137 148.951 42.4269 144.838L110.498 76.767Z"/><path fill="#C4C4C4" d="M116.509 93.9807C117.332 93.1581 118.665 93.1581 119.488 93.9807L176.356 150.849C177.179 151.672 177.179 153.005 176.356 153.828L119.488 210.696C118.665 211.519 117.332 211.519 116.509 210.696L59.6407 153.828C58.818 153.005 58.818 151.672 59.6407 150.849L116.509 93.9807Z"/><path fill="#BDBDBD" d="M1120.52 77.4476C1124.63 73.3344 1131.3 73.3344 1135.41 77.4476L1203.49 145.519C1207.6 149.632 1207.6 156.301 1203.49 160.414L1135.41 228.485C1131.3 232.599 1124.63 232.599 1120.52 228.485L1052.45 160.414C1048.33 156.301 1048.33 149.632 1052.45 145.519L1120.52 77.4476Z"/><path fill="#C4C4C4" d="M1126.53 94.6614C1127.35 93.8388 1128.69 93.8388 1129.51 94.6614L1186.38 151.53C1187.2 152.352 1187.2 153.686 1186.38 154.509L1129.51 211.377C1128.69 212.2 1127.35 212.2 1126.53 211.377L1069.66 154.509C1068.84 153.686 1068.84 152.352 1069.66 151.53L1126.53 94.6614Z"/><path fill="#BDBDBD" d="M411.519 -23.5524C415.632 -27.6656 422.301 -27.6656 426.414 -23.5524L494.485 44.5189C498.598 48.6321 498.598 55.3009 494.485 59.4142L426.414 127.485C422.301 131.599 415.632 131.599 411.519 127.485L343.447 59.4142C339.334 55.3009 339.334 48.6321 343.447 44.5189L411.519 -23.5524Z"/><path fill="#C4C4C4" d="M417.53 -6.3386C418.352 -7.16124 419.686 -7.16124 420.509 -6.3386L477.377 50.5297C478.2 51.3524 478.2 52.6861 477.377 53.5088L420.509 110.377C419.686 111.2 418.352 111.2 417.53 110.377L360.661 53.5088C359.839 52.6861 359.839 51.3524 360.661 50.5297L417.53 -6.3386Z"/><path fill="#BDBDBD" d="M1420.52 -23.5524C1424.63 -27.6656 1431.3 -27.6656 1435.41 -23.5524L1503.49 44.5189C1507.6 48.6321 1507.6 55.3009 1503.49 59.4142L1435.41 127.485C1431.3 131.599 1424.63 131.599 1420.52 127.485L1352.45 59.4142C1348.33 55.3009 1348.33 48.6321 1352.45 44.5189L1420.52 -23.5524Z"/><path fill="#C4C4C4" d="M1426.53 -6.3386C1427.35 -7.16124 1428.69 -7.16124 1429.51 -6.3386L1486.38 50.5297C1487.2 51.3524 1487.2 52.6861 1486.38 53.5088L1429.51 110.377C1428.69 111.2 1427.35 111.2 1426.53 110.377L1369.66 53.5088C1368.84 52.6861 1368.84 51.3524 1369.66 50.5297L1426.53 -6.3386Z"/><path fill="#BDBDBD" d="M1321.52 -118.552C1325.63 -122.666 1332.3 -122.666 1336.41 -118.552L1404.49 -50.4811C1408.6 -46.3679 1408.6 -39.6991 1404.49 -35.5858L1336.41 32.4854C1332.3 36.5986 1325.63 36.5986 1321.52 32.4854L1253.45 -35.5858C1249.33 -39.6991 1249.33 -46.3679 1253.45 -50.4811L1321.52 -118.552Z"/><path fill="#C4C4C4" d="M1327.53 -101.339C1328.35 -102.161 1329.69 -102.161 1330.51 -101.339L1387.38 -44.4703C1388.2 -43.6476 1388.2 -42.3139 1387.38 -41.4912L1330.51 15.3771C1329.69 16.1998 1328.35 16.1998 1327.53 15.3771L1270.66 -41.4912C1269.84 -42.3139 1269.84 -43.6476 1270.66 -44.4703L1327.53 -101.339Z"/><path fill="#BDBDBD" d="M1221.52 -23.5524C1225.63 -27.6656 1232.3 -27.6656 1236.41 -23.5524L1304.49 44.5189C1308.6 48.6321 1308.6 55.3009 1304.49 59.4142L1236.41 127.485C1232.3 131.599 1225.63 131.599 1221.52 127.485L1153.45 59.4142C1149.33 55.3009 1149.33 48.6321 1153.45 44.5189L1221.52 -23.5524Z"/><path fill="#C4C4C4" d="M1227.53 -6.3386C1228.35 -7.16124 1229.69 -7.16124 1230.51 -6.3386L1287.38 50.5297C1288.2 51.3524 1288.2 52.6861 1287.38 53.5088L1230.51 110.377C1229.69 111.2 1228.35 111.2 1227.53 110.377L1170.66 53.5088C1169.84 52.6861 1169.84 51.3524 1170.66 50.5297L1227.53 -6.3386Z"/><path fill="#BDBDBD" d="M1024.52 -17.5524C1028.63 -21.6656 1035.3 -21.6656 1039.41 -17.5524L1107.49 50.5189C1111.6 54.6321 1111.6 61.3009 1107.49 65.4142L1039.41 133.485C1035.3 137.599 1028.63 137.599 1024.52 133.485L956.447 65.4142C952.334 61.3009 952.334 54.6321 956.447 50.5189L1024.52 -17.5524Z"/><path fill="#C4C4C4" d="M1030.53 -0.338598C1031.35 -1.16124 1032.69 -1.16124 1033.51 -0.3386L1090.38 56.5297C1091.2 57.3524 1091.2 58.6861 1090.38 59.5088L1033.51 116.377C1032.69 117.2 1031.35 117.2 1030.53 116.377L973.661 59.5088C972.839 58.6861 972.839 57.3524 973.661 56.5297L1030.53 -0.338598Z"/><path fill="#BDBDBD" d="M1128.52 -114.552C1132.63 -118.666 1139.3 -118.666 1143.41 -114.552L1211.49 -46.4811C1215.6 -42.3679 1215.6 -35.6991 1211.49 -31.5858L1143.41 36.4854C1139.3 40.5986 1132.63 40.5986 1128.52 36.4854L1060.45 -31.5858C1056.33 -35.6991 1056.33 -42.3679 1060.45 -46.4811L1128.52 -114.552Z"/><path fill="#C4C4C4" d="M1134.53 -97.3386C1135.35 -98.1612 1136.69 -98.1612 1137.51 -97.3386L1194.38 -40.4703C1195.2 -39.6476 1195.2 -38.3139 1194.38 -37.4912L1137.51 19.3771C1136.69 20.1998 1135.35 20.1998 1134.53 19.3771L1077.66 -37.4912C1076.84 -38.3139 1076.84 -39.6476 1077.66 -40.4703L1134.53 -97.3386Z"/><path fill="#BDBDBD" d="M830.519 -6.55237C834.632 -10.6656 841.301 -10.6656 845.414 -6.55238L913.485 61.5189C917.598 65.6321 917.598 72.3009 913.485 76.4142L845.414 144.485C841.301 148.599 834.632 148.599 830.519 144.485L762.447 76.4142C758.334 72.3009 758.334 65.6321 762.447 61.5189L830.519 -6.55237Z"/><path fill="#C4C4C4" d="M836.53 10.6614C837.352 9.83876 838.686 9.83876 839.509 10.6614L896.377 67.5297C897.2 68.3524 897.2 69.6861 896.377 70.5088L839.509 127.377C838.686 128.2 837.352 128.2 836.53 127.377L779.661 70.5088C778.839 69.6861 778.839 68.3524 779.661 67.5297L836.53 10.6614Z"/><path fill="#BDBDBD" d="M612.519 -25.5524C616.632 -29.6656 623.301 -29.6656 627.414 -25.5524L695.485 42.5189C699.598 46.6321 699.598 53.3009 695.485 57.4142L627.414 125.485C623.301 129.599 616.632 129.599 612.519 125.485L544.447 57.4142C540.334 53.3009 540.334 46.6321 544.447 42.5189L612.519 -25.5524Z"/><path fill="#C4C4C4" d="M618.53 -8.3386C619.352 -9.16124 620.686 -9.16124 621.509 -8.3386L678.377 48.5297C679.2 49.3524 679.2 50.6861 678.377 51.5088L621.509 108.377C620.686 109.2 619.352 109.2 618.53 108.377L561.661 51.5088C560.839 50.6861 560.839 49.3524 561.661 48.5297L618.53 -8.3386Z"/><path fill="#BDBDBD" d="M314.519 -127.552C318.632 -131.666 325.301 -131.666 329.414 -127.552L397.485 -59.4811C401.598 -55.3679 401.598 -48.6991 397.485 -44.5858L329.414 23.4854C325.301 27.5986 318.632 27.5986 314.519 23.4854L246.447 -44.5858C242.334 -48.6991 242.334 -55.3679 246.447 -59.4811L314.519 -127.552Z"/><path fill="#C4C4C4" d="M320.53 -110.339C321.352 -111.161 322.686 -111.161 323.509 -110.339L380.377 -53.4703C381.2 -52.6476 381.2 -51.3139 380.377 -50.4912L323.509 6.37711C322.686 7.19976 321.352 7.19976 320.53 6.37711L263.661 -50.4912C262.839 -51.3139 262.839 -52.6476 263.661 -53.4703L320.53 -110.339Z"/><path fill="#BDBDBD" d="M311.519 76.4476C315.632 72.3344 322.301 72.3344 326.414 76.4476L394.485 144.519C398.598 148.632 398.598 155.301 394.485 159.414L326.414 227.485C322.301 231.599 315.632 231.599 311.519 227.485L243.447 159.414C239.334 155.301 239.334 148.632 243.447 144.519L311.519 76.4476Z"/><path fill="#C4C4C4" d="M317.53 93.6614C318.352 92.8388 319.686 92.8388 320.509 93.6614L377.377 150.53C378.2 151.352 378.2 152.686 377.377 153.509L320.509 210.377C319.686 211.2 318.352 211.2 317.53 210.377L260.661 153.509C259.839 152.686 259.839 151.352 260.661 150.53L317.53 93.6614Z"/><path fill="#BDBDBD" d="M10.5187 177.448C14.6319 173.334 21.3007 173.334 25.4139 177.448L93.4852 245.519C97.5984 249.632 97.5984 256.301 93.4852 260.414L25.4139 328.485C21.3007 332.599 14.6319 332.599 10.5187 328.485L-57.5526 260.414C-61.6658 256.301 -61.6658 249.632 -57.5526 245.519L10.5187 177.448Z"/><path fill="#C4C4C4" d="M16.5295 194.661C17.3522 193.839 18.6859 193.839 19.5086 194.661L76.3769 251.53C77.1995 252.352 77.1995 253.686 76.3769 254.509L19.5086 311.377C18.6859 312.2 17.3522 312.2 16.5295 311.377L-40.3388 254.509C-41.1615 253.686 -41.1615 252.352 -40.3388 251.53L16.5295 194.661Z"/><path fill="#BDBDBD" d="M1213.52 179.703C1217.63 175.59 1224.3 175.59 1228.41 179.703L1296.49 247.775C1300.6 251.888 1300.6 258.557 1296.49 262.67L1228.41 330.741C1224.3 334.855 1217.63 334.855 1213.52 330.741L1145.45 262.67C1141.33 258.557 1141.33 251.888 1145.45 247.775L1213.52 179.703Z"/><path fill="#C4C4C4" d="M1219.53 196.917C1220.35 196.095 1221.69 196.095 1222.51 196.917L1279.38 253.786C1280.2 254.608 1280.2 255.942 1279.38 256.765L1222.51 313.633C1221.69 314.456 1220.35 314.456 1219.53 313.633L1162.66 256.765C1161.84 255.942 1161.84 254.608 1162.66 253.786L1219.53 196.917Z"/><path fill="#BDBDBD" d="M1015.3 177.427C1019.41 173.325 1026.06 173.325 1030.16 177.427L1098.04 245.305C1102.14 249.407 1102.14 256.056 1098.04 260.158L1030.16 328.036C1026.06 332.138 1019.41 332.138 1015.3 328.036L947.426 260.158C943.325 256.056 943.325 249.407 947.426 245.305L1015.3 177.427Z"/><path fill="#C4C4C4" d="M1021.3 194.591C1022.12 193.77 1023.45 193.77 1024.27 194.591L1080.98 251.298C1081.8 252.118 1081.8 253.448 1080.98 254.269L1024.27 310.976C1023.45 311.796 1022.12 311.796 1021.3 310.976L964.591 254.269C963.771 253.448 963.771 252.118 964.591 251.298L1021.3 194.591Z"/><path fill="#BDBDBD" d="M512.519 -127.552C516.632 -131.666 523.301 -131.666 527.414 -127.552L595.485 -59.4811C599.598 -55.3679 599.598 -48.6991 595.485 -44.5858L527.414 23.4854C523.301 27.5986 516.632 27.5986 512.519 23.4854L444.447 -44.5858C440.334 -48.6991 440.334 -55.3679 444.447 -59.4811L512.519 -127.552Z"/><path fill="#C4C4C4" d="M518.53 -110.339C519.352 -111.161 520.686 -111.161 521.509 -110.339L578.377 -53.4703C579.2 -52.6476 579.2 -51.3139 578.377 -50.4912L521.509 6.37711C520.686 7.19976 519.352 7.19976 518.53 6.37711L461.661 -50.4912C460.839 -51.3139 460.839 -52.6476 461.661 -53.4703L518.53 -110.339Z"/></g><path fill="#FAFAFA" d="M544.568 90.34C544.664 90.028 544.832 89.8 545.072 89.656C545.312 89.488 545.576 89.404 545.864 89.404C546.248 89.404 546.572 89.524 546.836 89.764C547.124 89.98 547.268 90.28 547.268 90.664C547.268 90.832 547.232 91.024 547.16 91.24L539.024 114.172C538.904 114.508 538.7 114.772 538.412 114.964C538.124 115.132 537.8 115.216 537.44 115.216C537.104 115.216 536.792 115.132 536.504 114.964C536.216 114.772 536.012 114.508 535.892 114.172L528.836 94.228L521.708 114.172C521.588 114.508 521.384 114.772 521.096 114.964C520.808 115.132 520.496 115.216 520.16 115.216C519.824 115.216 519.512 115.132 519.224 114.964C518.936 114.772 518.732 114.508 518.612 114.172L510.44 91.24C510.368 91.048 510.332 90.868 510.332 90.7C510.332 90.316 510.476 90.004 510.764 89.764C511.076 89.524 511.424 89.404 511.808 89.404C512.096 89.404 512.36 89.488 512.6 89.656C512.864 89.8 513.044 90.028 513.14 90.34L520.232 110.788L527.432 90.556C527.552 90.196 527.744 89.932 528.008 89.764C528.272 89.572 528.56 89.476 528.872 89.476C529.184 89.476 529.472 89.572 529.736 89.764C530 89.956 530.192 90.232 530.312 90.592L537.404 110.86L544.568 90.34ZM562.889 110.932C563.153 110.932 563.381 111.04 563.573 111.256C563.765 111.472 563.861 111.748 563.861 112.084C563.861 112.684 563.441 113.236 562.601 113.74C561.737 114.244 560.825 114.628 559.865 114.892C558.905 115.132 557.969 115.252 557.057 115.252C554.345 115.252 552.197 114.448 550.613 112.84C549.053 111.232 548.273 109.012 548.273 106.18C548.273 104.38 548.621 102.796 549.317 101.428C550.013 100.036 550.985 98.956 552.233 98.188C553.505 97.42 554.945 97.036 556.553 97.036C558.833 97.036 560.645 97.78 561.989 99.268C563.333 100.756 564.005 102.772 564.005 105.316C564.005 105.796 563.909 106.144 563.717 106.36C563.525 106.576 563.213 106.684 562.781 106.684H551.189C551.405 110.812 553.361 112.876 557.057 112.876C557.993 112.876 558.797 112.756 559.469 112.516C560.141 112.252 560.861 111.904 561.629 111.472C562.253 111.112 562.673 110.932 562.889 110.932ZM556.589 99.304C555.053 99.304 553.817 99.784 552.881 100.744C551.969 101.704 551.429 103.06 551.261 104.812H561.449C561.401 103.036 560.957 101.68 560.117 100.744C559.277 99.784 558.101 99.304 556.589 99.304ZM569.778 115.18C569.346 115.18 568.986 115.06 568.698 114.82C568.434 114.556 568.302 114.196 568.302 113.74V90.88C568.302 90.424 568.434 90.076 568.698 89.836C568.986 89.572 569.346 89.44 569.778 89.44C570.186 89.44 570.522 89.572 570.786 89.836C571.074 90.076 571.218 90.424 571.218 90.88V113.74C571.218 114.196 571.074 114.556 570.786 114.82C570.522 115.06 570.186 115.18 569.778 115.18ZM583.905 115.252C582.273 115.252 580.821 114.88 579.549 114.136C578.301 113.392 577.329 112.336 576.633 110.968C575.961 109.6 575.625 108.016 575.625 106.216C575.625 104.416 575.973 102.82 576.669 101.428C577.389 100.036 578.385 98.956 579.657 98.188C580.929 97.42 582.393 97.036 584.049 97.036C584.961 97.036 585.861 97.168 586.749 97.432C587.661 97.672 588.453 98.032 589.125 98.512C589.557 98.8 589.857 99.088 590.025 99.376C590.217 99.64 590.313 99.94 590.313 100.276C590.313 100.612 590.217 100.888 590.025 101.104C589.857 101.32 589.629 101.428 589.341 101.428C589.173 101.428 588.993 101.38 588.801 101.284C588.609 101.188 588.441 101.092 588.297 100.996C588.177 100.9 588.093 100.84 588.045 100.816C587.421 100.408 586.821 100.084 586.245 99.844C585.693 99.604 585.009 99.484 584.193 99.484C582.441 99.484 581.073 100.084 580.089 101.284C579.129 102.46 578.649 104.104 578.649 106.216C578.649 108.328 579.129 109.96 580.089 111.112C581.073 112.264 582.441 112.84 584.193 112.84C585.009 112.84 585.705 112.72 586.281 112.48C586.881 112.24 587.481 111.916 588.081 111.508C588.345 111.34 588.597 111.196 588.837 111.076C589.077 110.956 589.281 110.896 589.449 110.896C589.713 110.896 589.929 111.004 590.097 111.22C590.289 111.436 590.385 111.712 590.385 112.048C590.385 112.36 590.301 112.648 590.133 112.912C589.965 113.152 589.653 113.428 589.197 113.74C588.525 114.196 587.709 114.568 586.749 114.856C585.813 115.12 584.865 115.252 583.905 115.252ZM601.167 115.252C599.511 115.252 598.047 114.88 596.775 114.136C595.527 113.392 594.555 112.336 593.859 110.968C593.187 109.576 592.851 107.968 592.851 106.144C592.851 104.32 593.187 102.724 593.859 101.356C594.555 99.964 595.527 98.896 596.775 98.152C598.047 97.408 599.511 97.036 601.167 97.036C602.823 97.036 604.287 97.408 605.559 98.152C606.831 98.896 607.803 99.964 608.475 101.356C609.171 102.724 609.519 104.32 609.519 106.144C609.519 107.968 609.171 109.576 608.475 110.968C607.803 112.336 606.831 113.392 605.559 114.136C604.287 114.88 602.823 115.252 601.167 115.252ZM601.167 112.84C602.895 112.84 604.215 112.276 605.127 111.148C606.063 109.996 606.531 108.328 606.531 106.144C606.531 104.008 606.063 102.364 605.127 101.212C604.191 100.036 602.871 99.448 601.167 99.448C599.463 99.448 598.143 100.036 597.207 101.212C596.271 102.364 595.803 104.008 595.803 106.144C595.803 108.304 596.259 109.96 597.171 111.112C598.107 112.264 599.439 112.84 601.167 112.84ZM633.376 97.036C637.264 97.036 639.208 99.352 639.208 103.984V113.74C639.208 114.196 639.076 114.556 638.812 114.82C638.548 115.06 638.2 115.18 637.768 115.18C637.336 115.18 636.976 115.06 636.688 114.82C636.424 114.556 636.292 114.196 636.292 113.74V104.056C636.292 102.448 636.004 101.284 635.428 100.564C634.852 99.844 633.952 99.484 632.728 99.484C631.264 99.484 630.112 99.976 629.272 100.96C628.432 101.944 628.012 103.276 628.012 104.956V113.74C628.012 114.196 627.868 114.556 627.58 114.82C627.316 115.06 626.968 115.18 626.536 115.18C626.104 115.18 625.756 115.06 625.492 114.82C625.228 114.556 625.096 114.196 625.096 113.74V104.056C625.096 102.448 624.808 101.284 624.232 100.564C623.656 99.844 622.744 99.484 621.496 99.484C620.056 99.484 618.904 99.976 618.04 100.96C617.2 101.944 616.78 103.276 616.78 104.956V113.74C616.78 114.196 616.648 114.556 616.384 114.82C616.12 115.06 615.772 115.18 615.34 115.18C614.908 115.18 614.548 115.06 614.26 114.82C613.996 114.556 613.864 114.196 613.864 113.74V98.548C613.864 98.116 613.996 97.768 614.26 97.504C614.548 97.24 614.908 97.108 615.34 97.108C615.748 97.108 616.084 97.24 616.348 97.504C616.612 97.744 616.744 98.08 616.744 98.512V100.24C617.272 99.208 618.004 98.416 618.94 97.864C619.876 97.312 620.956 97.036 622.18 97.036C624.916 97.036 626.704 98.188 627.544 100.492C628.048 99.436 628.816 98.596 629.848 97.972C630.88 97.348 632.056 97.036 633.376 97.036ZM658.092 110.932C658.356 110.932 658.584 111.04 658.776 111.256C658.968 111.472 659.064 111.748 659.064 112.084C659.064 112.684 658.644 113.236 657.804 113.74C656.94 114.244 656.028 114.628 655.068 114.892C654.108 115.132 653.172 115.252 652.26 115.252C649.548 115.252 647.4 114.448 645.816 112.84C644.256 111.232 643.476 109.012 643.476 106.18C643.476 104.38 643.824 102.796 644.52 101.428C645.216 100.036 646.188 98.956 647.436 98.188C648.708 97.42 650.148 97.036 651.756 97.036C654.036 97.036 655.848 97.78 657.192 99.268C658.536 100.756 659.208 102.772 659.208 105.316C659.208 105.796 659.112 106.144 658.92 106.36C658.728 106.576 658.416 106.684 657.984 106.684H646.392C646.608 110.812 648.564 112.876 652.26 112.876C653.196 112.876 654 112.756 654.672 112.516C655.344 112.252 656.064 111.904 656.832 111.472C657.456 111.112 657.876 110.932 658.092 110.932ZM651.792 99.304C650.256 99.304 649.02 99.784 648.084 100.744C647.172 101.704 646.632 103.06 646.464 104.812H656.652C656.604 103.036 656.16 101.68 655.32 100.744C654.48 99.784 653.304 99.304 651.792 99.304ZM680.886 112.876C681.726 112.948 682.146 113.332 682.146 114.028C682.146 114.436 681.99 114.748 681.678 114.964C681.39 115.156 680.946 115.228 680.346 115.18L679.374 115.108C677.454 114.964 676.038 114.388 675.126 113.38C674.214 112.372 673.758 110.848 673.758 108.808V99.772H671.346C670.938 99.772 670.614 99.676 670.374 99.484C670.158 99.268 670.05 98.992 670.05 98.656C670.05 98.296 670.158 98.008 670.374 97.792C670.614 97.576 670.938 97.468 671.346 97.468H673.758V93.4C673.758 92.944 673.89 92.596 674.154 92.356C674.418 92.092 674.778 91.96 675.234 91.96C675.666 91.96 676.014 92.092 676.278 92.356C676.542 92.596 676.674 92.944 676.674 93.4V97.468H680.67C681.054 97.468 681.354 97.576 681.57 97.792C681.81 98.008 681.93 98.296 681.93 98.656C681.93 98.992 681.81 99.268 681.57 99.484C681.354 99.676 681.054 99.772 680.67 99.772H676.674V108.952C676.674 110.272 676.938 111.232 677.466 111.832C678.018 112.408 678.834 112.732 679.914 112.804L680.886 112.876ZM692.292 115.252C690.636 115.252 689.172 114.88 687.9 114.136C686.652 113.392 685.68 112.336 684.984 110.968C684.312 109.576 683.976 107.968 683.976 106.144C683.976 104.32 684.312 102.724 684.984 101.356C685.68 99.964 686.652 98.896 687.9 98.152C689.172 97.408 690.636 97.036 692.292 97.036C693.948 97.036 695.412 97.408 696.684 98.152C697.956 98.896 698.928 99.964 699.6 101.356C700.296 102.724 700.644 104.32 700.644 106.144C700.644 107.968 700.296 109.576 699.6 110.968C698.928 112.336 697.956 113.392 696.684 114.136C695.412 114.88 693.948 115.252 692.292 115.252ZM692.292 112.84C694.02 112.84 695.34 112.276 696.252 111.148C697.188 109.996 697.656 108.328 697.656 106.144C697.656 104.008 697.188 102.364 696.252 101.212C695.316 100.036 693.996 99.448 692.292 99.448C690.588 99.448 689.268 100.036 688.332 101.212C687.396 102.364 686.928 104.008 686.928 106.144C686.928 108.304 687.384 109.96 688.296 111.112C689.232 112.264 690.564 112.84 692.292 112.84ZM736.554 113.308C736.65 113.5 736.698 113.704 736.698 113.92C736.698 114.28 736.554 114.58 736.266 114.82C736.002 115.06 735.678 115.18 735.294 115.18C734.694 115.18 734.274 114.892 734.034 114.316L731.478 108.484H717.906L715.314 114.316C715.074 114.892 714.654 115.18 714.054 115.18C713.67 115.18 713.334 115.06 713.046 114.82C712.758 114.556 712.614 114.244 712.614 113.884C712.614 113.692 712.662 113.5 712.758 113.308L723.054 90.412C723.198 90.076 723.414 89.824 723.702 89.656C723.99 89.488 724.302 89.404 724.638 89.404C724.998 89.404 725.322 89.5 725.61 89.692C725.898 89.86 726.114 90.1 726.258 90.412L736.554 113.308ZM730.398 106.036L724.674 93.112L718.986 106.036H730.398ZM750.744 115.288C748.344 115.288 746.268 114.772 744.516 113.74C742.764 112.684 741.408 111.184 740.448 109.24C739.512 107.272 739.044 104.956 739.044 102.292C739.044 99.652 739.512 97.36 740.448 95.416C741.408 93.448 742.764 91.948 744.516 90.916C746.268 89.86 748.344 89.332 750.744 89.332C752.352 89.332 753.864 89.596 755.28 90.124C756.72 90.628 757.968 91.36 759.024 92.32C759.408 92.68 759.6 93.1 759.6 93.58C759.6 93.916 759.504 94.216 759.312 94.48C759.12 94.72 758.892 94.84 758.628 94.84C758.34 94.84 757.992 94.708 757.584 94.444C756.36 93.484 755.244 92.812 754.236 92.428C753.252 92.044 752.112 91.852 750.816 91.852C748.032 91.852 745.884 92.764 744.372 94.588C742.884 96.388 742.14 98.956 742.14 102.292C742.14 105.652 742.884 108.244 744.372 110.068C745.884 111.868 748.032 112.768 750.816 112.768C752.088 112.768 753.228 112.576 754.236 112.192C755.244 111.808 756.36 111.136 757.584 110.176C757.992 109.912 758.34 109.78 758.628 109.78C758.892 109.78 759.12 109.9 759.312 110.14C759.504 110.38 759.6 110.68 759.6 111.04C759.6 111.52 759.408 111.94 759.024 112.3C757.968 113.26 756.72 114.004 755.28 114.532C753.864 115.036 752.352 115.288 750.744 115.288ZM786.879 89.44C787.335 89.44 787.683 89.584 787.923 89.872C788.187 90.136 788.319 90.496 788.319 90.952V113.74C788.319 114.172 788.199 114.52 787.959 114.784C787.719 115.048 787.383 115.18 786.951 115.18C786.519 115.18 786.195 115.048 785.979 114.784C785.763 114.52 785.655 114.172 785.655 113.74V95.344L777.843 110.32C777.507 111.016 777.015 111.364 776.367 111.364C775.743 111.364 775.251 111.016 774.891 110.32L767.043 95.524V113.74C767.043 114.172 766.923 114.52 766.683 114.784C766.467 115.048 766.143 115.18 765.711 115.18C765.279 115.18 764.943 115.048 764.703 114.784C764.463 114.52 764.343 114.172 764.343 113.74V90.952C764.343 90.496 764.475 90.136 764.739 89.872C765.003 89.584 765.363 89.44 765.819 89.44C766.419 89.44 766.899 89.788 767.259 90.484L776.403 108.016L785.439 90.484C785.631 90.1 785.835 89.836 786.051 89.692C786.291 89.524 786.567 89.44 786.879 89.44ZM808.508 120.472C805.412 120.472 802.712 119.836 800.408 118.564C798.104 117.292 796.328 115.504 795.08 113.2C793.856 110.872 793.244 108.196 793.244 105.172C793.244 102.004 793.904 99.232 795.224 96.856C796.568 94.48 798.392 92.644 800.696 91.348C803.024 90.052 805.628 89.404 808.508 89.404C811.58 89.404 814.208 90.04 816.392 91.312C818.6 92.56 820.256 94.192 821.36 96.208C822.488 98.224 823.052 100.36 823.052 102.616C823.052 104.968 822.692 106.9 821.972 108.412C821.276 109.9 820.376 110.992 819.272 111.688C818.192 112.36 817.04 112.696 815.816 112.696C814.544 112.696 813.536 112.42 812.792 111.868C812.072 111.292 811.664 110.5 811.568 109.492H811.496C810.896 110.476 810.14 111.256 809.228 111.832C808.34 112.408 807.296 112.696 806.096 112.696C804.512 112.696 803.228 112.144 802.244 111.04C801.26 109.912 800.768 108.364 800.768 106.396C800.768 104.764 801.08 103.228 801.704 101.788C802.352 100.348 803.252 99.196 804.404 98.332C805.556 97.468 806.876 97.036 808.364 97.036C809.492 97.036 810.476 97.312 811.316 97.864C812.156 98.392 812.708 99.088 812.972 99.952H813.008L813.296 98.368C813.344 98.08 813.476 97.852 813.692 97.684C813.908 97.516 814.172 97.432 814.484 97.432C814.82 97.432 815.084 97.528 815.276 97.72C815.492 97.912 815.6 98.176 815.6 98.512C815.6 98.632 815.588 98.728 815.564 98.8L814.088 107.224C813.992 107.896 813.944 108.328 813.944 108.52C813.944 109.336 814.136 109.912 814.52 110.248C814.904 110.584 815.48 110.752 816.248 110.752C816.92 110.752 817.604 110.488 818.3 109.96C818.996 109.408 819.584 108.532 820.064 107.332C820.544 106.108 820.784 104.536 820.784 102.616C820.784 100.72 820.328 98.932 819.416 97.252C818.504 95.572 817.124 94.216 815.276 93.184C813.428 92.128 811.172 91.6 808.508 91.6C806.06 91.6 803.852 92.152 801.884 93.256C799.94 94.336 798.404 95.908 797.276 97.972C796.148 100.012 795.584 102.412 795.584 105.172C795.584 107.812 796.1 110.128 797.132 112.12C798.164 114.088 799.652 115.6 801.596 116.656C803.54 117.736 805.844 118.276 808.508 118.276C812.156 118.276 815 117.292 817.04 115.324C817.376 115.012 817.724 114.856 818.084 114.856C818.372 114.856 818.612 114.964 818.804 115.18C818.996 115.396 819.092 115.66 819.092 115.972C819.092 116.356 818.948 116.68 818.66 116.944C817.58 118.024 816.152 118.876 814.376 119.5C812.624 120.148 810.668 120.472 808.508 120.472ZM806.564 110.752C807.764 110.752 808.796 110.392 809.66 109.672C810.548 108.928 811.22 107.98 811.676 106.828C812.132 105.676 812.36 104.464 812.36 103.192C812.36 101.848 812.024 100.828 811.352 100.132C810.704 99.412 809.816 99.052 808.688 99.052C807.536 99.052 806.528 99.4 805.664 100.096C804.824 100.792 804.176 101.704 803.72 102.832C803.288 103.936 803.072 105.088 803.072 106.288C803.072 107.704 803.408 108.808 804.08 109.6C804.752 110.368 805.58 110.752 806.564 110.752ZM837.841 115.288C834.529 115.288 832.021 114.424 830.317 112.696C828.613 110.968 827.761 108.424 827.761 105.064V90.952C827.761 90.496 827.893 90.136 828.157 89.872C828.421 89.584 828.781 89.44 829.237 89.44C829.669 89.44 830.017 89.584 830.281 89.872C830.545 90.136 830.677 90.496 830.677 90.952V105.316C830.677 107.788 831.277 109.648 832.477 110.896C833.701 112.144 835.489 112.768 837.841 112.768C840.193 112.768 841.969 112.144 843.169 110.896C844.369 109.648 844.969 107.788 844.969 105.316V90.952C844.969 90.496 845.101 90.136 845.365 89.872C845.653 89.584 846.013 89.44 846.445 89.44C846.901 89.44 847.261 89.584 847.525 89.872C847.789 90.136 847.921 90.496 847.921 90.952V105.064C847.921 108.4 847.057 110.944 845.329 112.696C843.625 114.424 841.129 115.288 837.841 115.288ZM864.755 115.288C862.355 115.288 860.279 114.772 858.527 113.74C856.775 112.684 855.419 111.184 854.459 109.24C853.523 107.272 853.055 104.956 853.055 102.292C853.055 99.652 853.523 97.36 854.459 95.416C855.419 93.448 856.775 91.948 858.527 90.916C860.279 89.86 862.355 89.332 864.755 89.332C866.363 89.332 867.875 89.596 869.291 90.124C870.731 90.628 871.979 91.36 873.035 92.32C873.419 92.68 873.611 93.1 873.611 93.58C873.611 93.916 873.515 94.216 873.323 94.48C873.131 94.72 872.903 94.84 872.639 94.84C872.351 94.84 872.003 94.708 871.595 94.444C870.371 93.484 869.255 92.812 868.247 92.428C867.263 92.044 866.123 91.852 864.827 91.852C862.043 91.852 859.895 92.764 858.383 94.588C856.895 96.388 856.151 98.956 856.151 102.292C856.151 105.652 856.895 108.244 858.383 110.068C859.895 111.868 862.043 112.768 864.827 112.768C866.099 112.768 867.239 112.576 868.247 112.192C869.255 111.808 870.371 111.136 871.595 110.176C872.003 109.912 872.351 109.78 872.639 109.78C872.903 109.78 873.131 109.9 873.323 110.14C873.515 110.38 873.611 110.68 873.611 111.04C873.611 111.52 873.419 111.94 873.035 112.3C871.979 113.26 870.731 114.004 869.291 114.532C867.875 115.036 866.363 115.288 864.755 115.288ZM886.068 115.288C884.268 115.288 882.54 115.024 880.884 114.496C879.252 113.944 877.944 113.212 876.96 112.3C876.6 111.964 876.42 111.544 876.42 111.04C876.42 110.704 876.516 110.416 876.708 110.176C876.9 109.912 877.128 109.78 877.392 109.78C877.704 109.78 878.04 109.912 878.4 110.176C880.632 111.904 883.176 112.768 886.032 112.768C888.096 112.768 889.68 112.372 890.784 111.58C891.888 110.788 892.44 109.66 892.44 108.196C892.44 107.356 892.176 106.684 891.648 106.18C891.12 105.652 890.424 105.232 889.56 104.92C888.696 104.608 887.532 104.284 886.068 103.948C884.1 103.492 882.48 103.012 881.208 102.508C879.96 102.004 878.94 101.284 878.148 100.348C877.38 99.412 876.996 98.188 876.996 96.676C876.996 95.236 877.38 93.964 878.148 92.86C878.94 91.732 880.032 90.868 881.424 90.268C882.84 89.644 884.448 89.332 886.248 89.332C887.928 89.332 889.488 89.596 890.928 90.124C892.392 90.628 893.616 91.36 894.6 92.32C894.984 92.704 895.176 93.124 895.176 93.58C895.176 93.916 895.08 94.216 894.888 94.48C894.696 94.72 894.468 94.84 894.204 94.84C893.94 94.84 893.592 94.708 893.16 94.444C891.984 93.484 890.892 92.812 889.884 92.428C888.876 92.044 887.664 91.852 886.248 91.852C884.256 91.852 882.708 92.272 881.604 93.112C880.5 93.928 879.948 95.08 879.948 96.568C879.948 97.84 880.428 98.8 881.388 99.448C882.372 100.072 883.872 100.624 885.888 101.104C888.072 101.632 889.788 102.124 891.036 102.58C892.284 103.012 893.316 103.672 894.132 104.56C894.972 105.448 895.392 106.636 895.392 108.124C895.392 109.54 894.996 110.788 894.204 111.868C893.436 112.948 892.344 113.788 890.928 114.388C889.512 114.988 887.892 115.288 886.068 115.288ZM901.699 115C901.243 115 900.871 114.868 900.583 114.604C900.319 114.34 900.187 113.992 900.187 113.56V91.06C900.187 90.628 900.319 90.28 900.583 90.016C900.871 89.752 901.243 89.62 901.699 89.62H908.719C912.775 89.62 915.907 90.724 918.115 92.932C920.347 95.116 921.463 98.236 921.463 102.292C921.463 106.348 920.347 109.48 918.115 111.688C915.883 113.896 912.751 115 908.719 115H901.699ZM908.539 112.48C915.115 112.48 918.403 109.084 918.403 102.292C918.403 95.524 915.115 92.14 908.539 92.14H903.139V112.48H908.539ZM927.772 108.556C927.532 108.556 927.328 108.472 927.16 108.304C926.992 108.112 926.896 107.86 926.872 107.548L926.008 91.24C925.96 90.688 926.104 90.256 926.44 89.944C926.776 89.608 927.22 89.44 927.772 89.44C928.324 89.44 928.768 89.608 929.104 89.944C929.44 90.256 929.584 90.688 929.536 91.24L928.672 107.548C928.648 107.884 928.552 108.136 928.384 108.304C928.216 108.472 928.012 108.556 927.772 108.556ZM927.808 115.18C927.232 115.18 926.752 115 926.368 114.64C925.984 114.256 925.792 113.764 925.792 113.164C925.792 112.564 925.984 112.072 926.368 111.688C926.752 111.304 927.232 111.112 927.808 111.112C928.36 111.112 928.816 111.304 929.176 111.688C929.56 112.072 929.752 112.564 929.752 113.164C929.752 113.764 929.56 114.256 929.176 114.64C928.816 115 928.36 115.18 927.808 115.18Z"/></svg>