<?xml version="1.0" encoding="UTF-8" standalone="no"?>
<!DOCTYPE svg PUBLIC "-//W3C//DTD SVG 1.1//EN" "http://www.w3.org/Graphics/SVG/1.1/DTD/svg11.dtd">
<svg width="100%" height="100%" viewBox="0 0 1000 1000" version="1.1" xmlns="http://www.w3.org/2000/svg" xmlns:xlink="http://www.w3.org/1999/xlink" xml:space="preserve" xmlns:serif="http://www.serif.com/" style="fill-rule:evenodd;clip-rule:evenodd;stroke-linejoin:round;stroke-miterlimit:1.41421;">
    <g transform="matrix(0.611498,-0.611498,0.611498,0.611498,27.9238,468.087)">
        <rect x="2" y="64" width="706" height="706" style="fill:white;"/>
    </g>
    <g transform="matrix(0.942726,-0.942271,0.942726,0.942271,-152.373,446.844)">
        <path d="M553.722,138.934C567.721,153.184 575.931,172.935 576.124,192.959C576.516,315.837 576.125,438.715 576.125,561.593C576.028,593.313 554.796,623.981 524.324,634.725C516.224,637.58 507.65,639.041 499.04,639.124C376.162,639.51 253.283,639.125 130.405,639.125C98.671,639.025 68.018,617.797 57.275,587.323C54.419,579.22 52.959,570.66 52.876,562.037C52.501,439.16 52.875,316.282 52.875,193.404C52.977,161.543 74.37,130.959 104.678,120.275C112.782,117.418 121.337,115.959 129.962,115.876C252.839,115.495 375.717,115.875 498.594,115.875C518.498,115.937 538.316,123.957 552.735,137.952C553.066,138.278 553.395,138.605 553.722,138.934ZM505.094,186.824C503.377,185.138 501.014,184.148 498.606,184.125C375.909,183.745 253.21,184.125 130.512,184.125C125.576,184.125 121.173,188.461 121.125,193.397C120.734,316.093 121.125,438.792 121.125,561.489C121.125,566.454 125.463,570.827 130.396,570.875C253.092,571.261 375.79,570.875 498.488,570.875C503.389,570.875 507.828,566.535 507.875,561.607C508.25,438.91 507.875,316.211 507.875,193.513C507.875,191.004 506.835,188.555 505.094,186.824Z" style="fill:rgb(34,172,234);fill-rule:nonzero;"/>
    </g>
    <g transform="matrix(1.49812,0,0,1.4974,-336.372,-167.899)">
        <path d="M438.282,404.157C450.544,404.157 459.649,407.192 465.6,413.263C471.55,419.333 474.525,428.559 474.525,440.941L474.525,484.937C474.525,488.182 473.563,490.737 471.64,492.6C469.717,494.463 467.072,495.395 463.706,495.395C460.581,495.395 458.027,494.433 456.043,492.51C454.06,490.587 453.068,488.062 453.068,484.937L453.068,480.97C451.024,485.658 447.809,489.324 443.421,491.969C439.034,494.614 433.955,495.936 428.185,495.936C422.295,495.936 416.945,494.734 412.137,492.33C407.329,489.926 403.542,486.62 400.777,482.412C398.012,478.205 396.63,473.517 396.63,468.348C396.63,461.857 398.283,456.748 401.589,453.022C404.894,449.295 410.274,446.59 417.727,444.907C425.18,443.225 435.457,442.383 448.56,442.383L453.068,442.383L453.068,438.236C453.068,432.346 451.806,428.048 449.281,425.344C446.757,422.639 442.67,421.287 437.02,421.287C433.534,421.287 429.988,421.797 426.382,422.819C422.775,423.841 418.508,425.313 413.579,427.237C410.454,428.8 408.17,429.581 406.728,429.581C404.564,429.581 402.791,428.8 401.408,427.237C400.026,425.674 399.335,423.631 399.335,421.106C399.335,419.063 399.846,417.29 400.867,415.787C401.889,414.284 403.602,412.872 406.006,411.55C410.214,409.266 415.232,407.463 421.062,406.14C426.893,404.818 432.632,404.157 438.282,404.157ZM432.693,479.708C438.703,479.708 443.601,477.694 447.388,473.667C451.175,469.64 453.068,464.441 453.068,458.07L453.068,454.284L449.822,454.284C441.768,454.284 435.517,454.644 431.07,455.366C426.622,456.087 423.437,457.349 421.513,459.152C419.59,460.955 418.628,463.42 418.628,466.545C418.628,470.392 419.981,473.547 422.685,476.011C425.39,478.476 428.726,479.708 432.693,479.708Z" style="fill:rgb(34,172,234);fill-rule:nonzero;"/>
        <path d="M536.553,495.936C527.777,495.936 520.054,494.073 513.382,490.346C506.711,486.62 501.572,481.331 497.966,474.479C494.359,467.627 492.556,459.633 492.556,450.497C492.556,441.361 494.45,433.277 498.236,426.245C502.023,419.213 507.342,413.773 514.194,409.927C521.046,406.08 528.919,404.157 537.815,404.157C542.503,404.157 547.221,404.818 551.969,406.14C556.718,407.463 560.895,409.266 564.501,411.55C568.348,414.074 570.271,417.26 570.271,421.106C570.271,423.751 569.64,425.884 568.378,427.507C567.116,429.13 565.463,429.942 563.419,429.942C562.097,429.942 560.715,429.641 559.272,429.04C557.83,428.439 556.387,427.718 554.945,426.876C552.3,425.313 549.776,424.081 547.371,423.18C544.967,422.278 542.202,421.827 539.077,421.827C531.624,421.827 525.884,424.262 521.857,429.13C517.83,433.999 515.817,441.001 515.817,450.137C515.817,459.152 517.83,466.094 521.857,470.963C525.884,475.831 531.624,478.265 539.077,478.265C542.082,478.265 544.757,477.815 547.101,476.913C549.445,476.011 552.06,474.779 554.945,473.217C556.748,472.135 558.31,471.323 559.633,470.782C560.955,470.241 562.277,469.971 563.6,469.971C565.523,469.971 567.146,470.812 568.468,472.495C569.79,474.178 570.451,476.282 570.451,478.806C570.451,480.85 570.001,482.623 569.099,484.125C568.198,485.628 566.725,486.98 564.681,488.182C560.955,490.587 556.627,492.48 551.699,493.862C546.77,495.245 541.722,495.936 536.553,495.936Z" style="fill:rgb(34,172,234);fill-rule:nonzero;"/>
        <path d="M690.179,404.157C699.796,404.157 707.158,407.012 712.267,412.722C717.376,418.432 719.931,427.658 719.931,440.4L719.931,484.757C719.931,488.243 718.879,490.917 716.775,492.78C714.671,494.644 711.937,495.575 708.571,495.575C705.325,495.575 702.651,494.644 700.547,492.78C698.443,490.917 697.392,488.243 697.392,484.757L697.392,440.4C697.392,433.788 696.219,429.07 693.875,426.245C691.531,423.42 687.955,422.008 683.147,422.008C677.257,422.008 672.568,424.021 669.082,428.048C665.596,432.075 663.853,437.575 663.853,444.547L663.853,484.757C663.853,488.243 662.802,490.917 660.698,492.78C658.594,494.644 655.92,495.575 652.674,495.575C649.428,495.575 646.724,494.644 644.56,492.78C642.396,490.917 641.314,488.243 641.314,484.757L641.314,440.4C641.314,433.788 640.142,429.07 637.798,426.245C635.454,423.42 631.878,422.008 627.07,422.008C621.179,422.008 616.521,424.021 613.095,428.048C609.669,432.075 607.956,437.575 607.956,444.547L607.956,484.757C607.956,488.243 606.875,490.917 604.711,492.78C602.547,494.644 599.842,495.575 596.597,495.575C593.351,495.575 590.676,494.644 588.573,492.78C586.469,490.917 585.417,488.243 585.417,484.757L585.417,414.976C585.417,411.61 586.499,409.025 588.663,407.222C590.827,405.419 593.531,404.517 596.777,404.517C599.902,404.517 602.457,405.389 604.44,407.132C606.424,408.875 607.416,411.369 607.416,414.615L607.416,418.942C610.18,414.134 613.877,410.468 618.505,407.943C623.133,405.419 628.452,404.157 634.462,404.157C647.685,404.157 656.521,409.686 660.968,420.746C663.613,415.697 667.52,411.67 672.689,408.665C677.858,405.659 683.688,404.157 690.179,404.157Z" style="fill:rgb(34,172,234);fill-rule:nonzero;"/>
    </g>
</svg>
