<svg xmlns="http://www.w3.org/2000/svg" xmlns:xlink="http://www.w3.org/1999/xlink" id="Layer_1" x="0" y="0" version="1.1" viewBox="0 0 1275 1275" xml:space="preserve" style="enable-background:new 0 0 1275 1275"><style type="text/css">.st0{fill:#fff}</style><path d="M548.7,88.8L88.8,548.7c-49,49-49,128.5,0,177.6l459.9,459.9c49,49,128.5,49,177.6,0l459.9-459.9c49-49,49-128.5,0-177.6	L726.3,88.8C677.3,39.8,597.7,39.8,548.7,88.8z"/><path d="M569.2,157.5L157.5,569.2c-37.7,37.7-37.7,98.9,0,136.6l411.7,411.7c37.7,37.7,98.9,37.7,136.6,0l411.7-411.7	c37.7-37.7,37.7-98.9,0-136.6L705.8,157.5C668.1,119.8,606.9,119.8,569.2,157.5z" class="st0"/><path d="M459.3,694.7h-0.9c-3.6,6.4-9.4,11.7-17.4,15.9c-8,4-17.1,6-27.3,6c-5.8,0-11.9-0.8-18.3-2.4c-6.2-1.4-12-3.8-17.4-7.2	c-5.2-3.6-9.6-8.2-13.2-13.8c-3.4-5.8-5.1-12.9-5.1-21.3c0-10.8,3-19.4,9-25.8c6.2-6.4,14.1-11.3,23.7-14.7	c9.6-3.4,20.2-5.6,31.8-6.6c11.8-1.2,23.3-1.8,34.5-1.8v-3.6c0-9-3.3-15.6-9.9-19.8c-6.4-4.4-14.1-6.6-23.1-6.6	c-7.6,0-14.9,1.6-21.9,4.8s-12.8,7.1-17.4,11.7l-18.6-21.9c8.2-7.6,17.6-13.3,28.2-17.1c10.8-3.8,21.7-5.7,32.7-5.7	c12.8,0,23.3,1.8,31.5,5.4c8.4,3.6,15,8.3,19.8,14.1c4.8,5.8,8.1,12.3,9.9,19.5c2,7.2,3,14.4,3,21.6V713h-33.6V694.7z M458.7,647.3	h-8.1c-5.8,0-11.9,0.3-18.3,0.9c-6.4,0.4-12.3,1.5-17.7,3.3c-5.4,1.6-9.9,4-13.5,7.2c-3.6,3-5.4,7.2-5.4,12.6c0,3.4,0.7,6.3,2.1,8.7	c1.6,2.2,3.6,4,6,5.4c2.4,1.4,5.1,2.4,8.1,3c3,0.6,6,0.9,9,0.9c12.4,0,21.8-3.3,28.2-9.9c6.4-6.6,9.6-15.6,9.6-27V647.3z M633.3,608.9c-2.8-4-7-7.3-12.6-9.9c-5.6-2.8-11.3-4.2-17.1-4.2c-6.6,0-12.4,1.4-17.4,4.2c-5,2.6-9.2,6.1-12.6,10.5	c-3.2,4.4-5.6,9.4-7.2,15c-1.6,5.4-2.4,10.9-2.4,16.5s0.8,11.2,2.4,16.8c1.8,5.4,4.4,10.3,7.8,14.7c3.4,4.4,7.6,8,12.6,10.8	c5.2,2.6,11.2,3.9,18,3.9c5.6,0,11.2-1.1,16.8-3.3c5.6-2.2,10.1-5.4,13.5-9.6l22.5,22.8c-6,6.4-13.7,11.4-23.1,15	c-9.2,3.4-19.2,5.1-30,5.1c-10.6,0-20.7-1.7-30.3-5.1c-9.4-3.4-17.7-8.4-24.9-15c-7-6.6-12.6-14.6-16.8-24c-4-9.4-6-20.1-6-32.1	c0-11.6,2-22.1,6-31.5c4.2-9.4,9.8-17.4,16.8-24s15.1-11.7,24.3-15.3c9.4-3.6,19.4-5.4,30-5.4c10.6,0,20.8,2,30.6,6	c10,4,17.9,9.5,23.7,16.5L633.3,608.9z M853.3,564.8c9.4,0,17.4,1.7,24,5.1c6.8,3.2,12.3,7.5,16.5,12.9c4.4,5.4,7.6,11.6,9.6,18.6	s3,14.2,3,21.6v90h-36v-79.8c0-4.2-0.3-8.6-0.9-13.2s-1.9-8.7-3.9-12.3c-2-3.8-4.8-6.9-8.4-9.3c-3.4-2.4-8-3.6-13.8-3.6	c-5.6,0-10.4,1.2-14.4,3.6c-4,2.4-7.3,5.5-9.9,9.3c-2.6,3.8-4.5,8.1-5.7,12.9c-1.2,4.6-1.8,9.2-1.8,13.8V713h-36v-87	c0-9-2.2-16.4-6.6-22.2c-4.2-6-10.9-9-20.1-9c-5.4,0-10.1,1.2-14.1,3.6c-4,2.2-7.3,5.1-9.9,8.7c-2.4,3.6-4.3,7.8-5.7,12.6	c-1.2,4.6-1.8,9.3-1.8,14.1V713h-36V569h34.2v23.1h0.6c1.6-3.6,3.7-7,6.3-10.2c2.8-3.2,6-6.1,9.6-8.7c3.8-2.6,8.1-4.6,12.9-6	c4.8-1.6,10.1-2.4,15.9-2.4c11.2,0,20.5,2.5,27.9,7.5c7.4,5,13.1,11.6,17.1,19.8c4.8-8.8,11.2-15.5,19.2-20.1	C833.1,567.2,842.5,564.8,853.3,564.8z"/></svg>