<svg xmlns="http://www.w3.org/2000/svg" width="23" height="23" viewBox="0 0 23 23"><path fill="#fff" d="M11.1803 1.41863L1.40186 11.418L11.1803 21.4173L20.9588 11.418L11.1803 1.41863Z"/><path d="M11.1968 0.999821C11.8001 1.0053 12.3973 1.25711 12.8291 1.68981C15.4619 4.36238 18.078 7.05204 20.7024 9.73316C21.3778 10.4274 21.5794 11.5598 21.158 12.4591C21.046 12.6982 20.8941 12.9171 20.712 13.1068C18.0958 15.7963 15.4631 18.4691 12.8386 21.1502C12.1587 21.8404 11.0507 22.0461 10.1703 21.6156C9.93628 21.5011 9.72227 21.3462 9.53633 21.1598C6.9039 18.4869 4.28745 15.7976 1.66301 13.1165C0.984704 12.4191 0.788402 11.285 1.20753 10.3906C1.3196 10.1514 1.47116 9.9329 1.6536 9.74289C4.26987 7.05348 6.90243 4.38065 9.52684 1.69955C9.95328 1.26661 10.5478 1.00918 11.1547 0.999929C11.1687 0.999821 11.1828 0.999777 11.1968 0.999821ZM11.181 3.10578C11.1083 3.10646 11.0367 3.13642 10.9848 3.18846C8.3561 5.85734 5.7436 8.54285 3.12301 11.22C3.01759 11.3277 3.01616 11.5184 3.12055 11.6272C5.73275 14.3129 8.36172 16.9815 10.9823 19.6587C11.0883 19.767 11.2744 19.7678 11.3808 19.6612C14.0096 16.9925 16.6219 14.3069 19.2425 11.6297C19.3472 11.5227 19.3493 11.3312 19.245 11.2226C16.6325 8.53728 14.0039 5.86825 11.3833 3.19105C11.3297 3.13631 11.2552 3.10557 11.181 3.10578Z"/><path d="M7.10611 9.82812C7.52129 9.82812 7.82958 9.93316 8.03108 10.1433C8.23254 10.3533 8.33327 10.6726 8.33327 11.1011V12.6237C8.33327 12.736 8.3007 12.8244 8.23559 12.8889C8.17048 12.9534 8.08092 12.9856 7.96695 12.9856C7.86114 12.9856 7.77466 12.9524 7.70749 12.8858C7.64034 12.8193 7.60675 12.7319 7.60675 12.6237V12.4864C7.53755 12.6487 7.42869 12.7755 7.28011 12.8671C7.13157 12.9586 6.9596 13.0044 6.76423 13.0044C6.5648 13.0044 6.38365 12.9628 6.22086 12.8796C6.05806 12.7964 5.92984 12.682 5.83622 12.5363C5.74259 12.3907 5.6958 12.2285 5.6958 12.0496C5.6958 11.825 5.75177 11.6482 5.86371 11.5192C5.97561 11.3902 6.15778 11.2966 6.41013 11.2384C6.66248 11.1802 7.01046 11.151 7.45412 11.151H7.60675V11.0075C7.60675 10.8037 7.56402 10.6549 7.47853 10.5614C7.39307 10.4677 7.25468 10.421 7.06338 10.421C6.94535 10.421 6.82528 10.4386 6.70318 10.474C6.58105 10.5093 6.43658 10.5603 6.26968 10.6269C6.16387 10.681 6.08654 10.708 6.03771 10.708C5.96444 10.708 5.90441 10.681 5.85758 10.6269C5.81079 10.5728 5.78739 10.5021 5.78739 10.4147C5.78739 10.344 5.80469 10.2826 5.83926 10.2306C5.87387 10.1786 5.93187 10.1297 6.01327 10.084C6.15575 10.0049 6.32565 9.94254 6.52305 9.89675C6.72049 9.851 6.9148 9.82812 7.10611 9.82812ZM6.91687 12.4428C7.12036 12.4428 7.28621 12.3731 7.41443 12.2337C7.54266 12.0943 7.60675 11.9144 7.60675 11.6939V11.5629H7.49685C7.22414 11.5629 7.01249 11.5754 6.86192 11.6003C6.71131 11.6253 6.60347 11.669 6.53832 11.7314C6.47321 11.7938 6.44064 11.8791 6.44064 11.9872C6.44064 12.1204 6.48645 12.2295 6.57801 12.3148C6.6696 12.4001 6.78255 12.4428 6.91687 12.4428Z"/><path d="M10.4331 13.0034C10.1359 13.0034 9.87442 12.9389 9.64851 12.8099C9.42264 12.681 9.24864 12.4979 9.12654 12.2608C9.00441 12.0237 8.94336 11.747 8.94336 11.4309C8.94336 11.1147 9.00749 10.8349 9.13568 10.5916C9.26391 10.3482 9.444 10.1599 9.67601 10.0268C9.90801 9.8937 10.1746 9.82715 10.4758 9.82715C10.6345 9.82715 10.7943 9.85002 10.955 9.89578C11.1158 9.94156 11.2573 10.004 11.3794 10.083C11.5096 10.1704 11.5747 10.2806 11.5747 10.4137C11.5747 10.5052 11.5534 10.5791 11.5106 10.6352C11.4679 10.6914 11.4119 10.7195 11.3427 10.7195C11.298 10.7195 11.2512 10.7091 11.2023 10.6883C11.1535 10.6675 11.1046 10.6425 11.0558 10.6134C10.9663 10.5593 10.8808 10.5167 10.7994 10.4855C10.718 10.4543 10.6243 10.4387 10.5185 10.4387C10.2662 10.4387 10.0718 10.5229 9.93547 10.6914C9.79912 10.8599 9.73096 11.1022 9.73096 11.4184C9.73096 11.7304 9.79912 11.9706 9.93547 12.1391C10.0718 12.3076 10.2662 12.3918 10.5185 12.3918C10.6203 12.3918 10.7109 12.3763 10.7902 12.3451C10.8696 12.3138 10.9581 12.2712 11.0558 12.2171C11.1169 12.1797 11.1697 12.1516 11.2145 12.1329C11.2593 12.1142 11.3041 12.1048 11.3489 12.1048C11.414 12.1048 11.4689 12.1339 11.5137 12.1922C11.5585 12.2504 11.5808 12.3232 11.5808 12.4106C11.5808 12.4813 11.5656 12.5427 11.5351 12.5946C11.5045 12.6467 11.4547 12.6934 11.3855 12.735C11.2593 12.8183 11.1128 12.8838 10.9459 12.9316C10.779 12.9795 10.6081 13.0034 10.4331 13.0034Z"/><path d="M15.6492 9.82715C15.9748 9.82715 16.2241 9.92595 16.3971 10.1236C16.5701 10.3212 16.6566 10.6405 16.6566 11.0814V12.6165C16.6566 12.7372 16.621 12.8297 16.5497 12.8942C16.4785 12.9587 16.3859 12.9909 16.272 12.9909C16.1621 12.9909 16.0715 12.9587 16.0003 12.8942C15.929 12.8297 15.8935 12.7372 15.8935 12.6165V11.0814C15.8935 10.8526 15.8537 10.6893 15.7744 10.5916C15.695 10.4938 15.5739 10.4449 15.4111 10.4449C15.2117 10.4449 15.0529 10.5146 14.9349 10.654C14.8169 10.7933 14.7578 10.9837 14.7578 11.2249V12.6165C14.7578 12.7372 14.7223 12.8297 14.651 12.8942C14.5798 12.9587 14.4892 12.9909 14.3793 12.9909C14.2694 12.9909 14.1779 12.9587 14.1046 12.8942C14.0313 12.8297 13.9947 12.7372 13.9947 12.6165V11.0814C13.9947 10.8526 13.955 10.6893 13.8756 10.5916C13.7963 10.4938 13.6752 10.4449 13.5124 10.4449C13.3129 10.4449 13.1552 10.5146 13.0392 10.654C12.9232 10.7933 12.8652 10.9837 12.8652 11.2249V12.6165C12.8652 12.7372 12.8286 12.8297 12.7553 12.8942C12.6821 12.9587 12.5905 12.9909 12.4806 12.9909C12.3707 12.9909 12.2801 12.9587 12.2089 12.8942C12.1377 12.8297 12.1021 12.7372 12.1021 12.6165V10.2016C12.1021 10.0851 12.1387 9.99562 12.212 9.93322C12.2852 9.87082 12.3768 9.83961 12.4867 9.83961C12.5925 9.83961 12.679 9.86978 12.7462 9.9301C12.8133 9.99043 12.8469 10.0767 12.8469 10.1891V10.3388C12.9405 10.1724 13.0657 10.0456 13.2224 9.95817C13.3791 9.87082 13.5592 9.82715 13.7627 9.82715C14.2104 9.82715 14.5096 10.0185 14.6602 10.4013C14.7497 10.2265 14.882 10.0872 15.057 9.98316C15.232 9.87913 15.4294 9.82715 15.6492 9.82715Z"/></svg>