<svg xmlns="http://www.w3.org/2000/svg" width="18" height="18" fill="none" viewBox="0 0 18 18"><path d="M2 0H6C6.53043 0 7.03914 0.210714 7.41421 0.585786C7.78929 0.960859 8 1.46957 8 2V6C8 6.53043 7.78929 7.03914 7.41421 7.41421C7.03914 7.78929 6.53043 8 6 8H2C1.46957 8 0.960859 7.78929 0.585786 7.41421C0.210714 7.03914 0 6.53043 0 6V2C0 0.9 0.9 0 2 0ZM2 2V6H6V2H2ZM12 0H16C16.5304 0 17.0391 0.210714 17.4142 0.585786C17.7893 0.960859 18 1.46957 18 2V6C18 6.53043 17.7893 7.03914 17.4142 7.41421C17.0391 7.78929 16.5304 8 16 8H12C11.4696 8 10.9609 7.78929 10.5858 7.41421C10.2107 7.03914 10 6.53043 10 6V2C10 0.9 10.9 0 12 0ZM12 2V6H16V2H12ZM2 10H6C6.53043 10 7.03914 10.2107 7.41421 10.5858C7.78929 10.9609 8 11.4696 8 12V16C8 16.5304 7.78929 17.0391 7.41421 17.4142C7.03914 17.7893 6.53043 18 6 18H2C1.46957 18 0.960859 17.7893 0.585786 17.4142C0.210714 17.0391 0 16.5304 0 16V12C0 10.9 0.9 10 2 10ZM2 12V16H6V12H2ZM12 10H16C16.5304 10 17.0391 10.2107 17.4142 10.5858C17.7893 10.9609 18 11.4696 18 12V16C18 16.5304 17.7893 17.0391 17.4142 17.4142C17.0391 17.7893 16.5304 18 16 18H12C11.4696 18 10.9609 17.7893 10.5858 17.4142C10.2107 17.0391 10 16.5304 10 16V12C10 10.9 10.9 10 12 10ZM12 12V16H16V12H12Z"/></svg>