<svg width="24" height="24" viewBox="0 0 24 24" fill="none" xmlns="http://www.w3.org/2000/svg">
<path d="M14.4969 21.9439C13.9829 21.9439 13.5422 21.7236 13.2485 21.2829L12.4406 20.1079C12.0734 20.1079 11.7062 20.1079 11.4125 20.1079L10.6047 21.3564C10.2375 21.9439 9.42962 22.1642 8.8421 21.8704L7.153 21.1361C6.49204 20.8423 6.12485 20.1813 6.27172 19.5204L6.56548 18.0516C6.27172 17.8313 6.05141 17.611 5.83109 17.3172L4.3623 17.611C3.70134 17.6844 3.04039 17.3172 2.74663 16.7297L2.08568 15.114C1.79192 14.4531 2.08568 13.7187 2.67319 13.3515L3.92166 12.5436C3.92166 12.1764 3.92166 11.8092 3.92166 11.5155L2.74663 10.7077C2.15912 10.3405 1.9388 9.53262 2.23256 8.94511L2.82007 7.18256C3.11383 6.52161 3.77478 6.15441 4.50918 6.30129L5.97797 6.59505C6.19829 6.30129 6.4186 6.08097 6.71236 5.86065L6.4186 4.4653C6.27172 3.73091 6.63892 3.06996 7.29988 2.7762L8.91554 2.11524C9.5765 1.82148 10.3109 2.11524 10.6781 2.70276L11.5594 3.95123C11.9266 3.95123 12.2938 3.95123 12.5875 3.95123L13.4688 2.7762C13.836 2.18868 14.6438 1.96836 15.2313 2.26212L16.847 2.92308C17.508 3.21683 17.8752 3.87779 17.7283 4.53874L17.4345 6.00753C17.7283 6.22785 17.9486 6.44817 18.1689 6.74193L19.6377 6.44817C20.2987 6.30129 21.0331 6.66849 21.2534 7.32944L21.9143 8.94511C22.2081 9.60606 21.9143 10.3405 21.3268 10.7077L20.0783 11.5889C20.0783 11.9561 20.0783 12.3233 20.0783 12.6171L21.2534 13.4984C21.8409 13.8656 22.0612 14.6734 21.7674 15.2609L21.1065 16.8766C20.8127 17.5375 20.1518 17.9047 19.4908 17.7578L18.022 17.4641C17.8017 17.7578 17.5814 17.9782 17.2876 18.1985L17.5814 19.6673C17.7283 20.3282 17.3611 21.0626 16.7001 21.2829L15.0845 21.9439C14.8641 21.9439 14.6438 22.0173 14.4969 21.9439ZM12.8078 18.5657C13.0282 18.5657 13.2485 18.7126 13.3953 18.9329L14.4235 20.5485L16.0392 19.8876L15.672 17.9782C15.5985 17.6844 15.7454 17.3906 15.9657 17.2438C16.4064 16.95 16.7736 16.5828 17.0673 16.1422C17.2142 15.9219 17.508 15.8484 17.8017 15.8484L19.7111 16.2156L20.3721 14.5999L18.7564 13.4984C18.5361 13.3515 18.3892 13.0577 18.4627 12.764C18.5361 12.2499 18.5361 11.7358 18.4627 11.1483C18.3892 10.8545 18.5361 10.5608 18.7564 10.4139L20.3721 9.38575L19.7111 7.77008L17.8017 8.13728C17.508 8.21072 17.2142 8.06384 17.0673 7.84352C16.7736 7.47632 16.4064 7.10912 15.9657 6.81537C15.7454 6.66849 15.672 6.37473 15.672 6.08097L16.2595 4.24499L14.6438 3.51059L13.5422 5.12626C13.3953 5.34658 13.1016 5.49346 12.8078 5.42002C12.2938 5.34658 11.7797 5.34658 11.1922 5.42002C10.8984 5.49346 10.6047 5.34658 10.4578 5.12626L9.50306 3.51059L7.88739 4.17155L8.25459 6.08097C8.32803 6.37473 8.18115 6.66849 7.96083 6.81537C7.5202 7.10912 7.153 7.47632 6.85924 7.91696C6.63892 8.13728 6.4186 8.21072 6.12485 8.13728L4.21542 7.77008L3.48103 9.38575L2.82007 9.09199L3.55447 9.38575C5.53733 10.7077 5.61077 10.7811 5.46389 11.2217C5.39045 11.7358 5.39045 12.2499 5.46389 12.764C5.46389 13.0577 5.39045 13.278 5.17013 13.4984L3.48103 14.5265L4.14198 16.1422L6.05141 15.775C6.34516 15.7015 6.63892 15.8484 6.7858 16.0687C7.07956 16.5094 7.44676 16.8766 7.88739 17.1703C8.10771 17.3172 8.18115 17.611 8.18115 17.9047L7.81395 19.8141L9.42962 20.4751L10.5312 18.8594C10.6781 18.6391 10.9718 18.4922 11.2656 18.5657C11.7062 18.6391 12.2203 18.6391 12.8078 18.5657Z"/>
<path d="M12 16.4353C11.4125 16.4353 10.825 16.2884 10.3109 16.0681C8.10772 15.1134 7.00613 12.543 7.96085 10.2664C8.91556 7.98974 11.4859 6.96159 13.7626 7.9163C16.0392 8.87102 17.0673 11.4414 16.1126 13.718C15.3782 15.3337 13.7626 16.4353 12 16.4353ZM12 9.09134C10.3843 9.09134 9.06244 10.4132 9.06244 12.0289C9.06244 13.6446 10.3843 14.9665 12 14.9665C13.6157 14.9665 14.9376 13.6446 14.9376 12.0289C14.9376 10.8539 14.2032 9.75229 13.175 9.31165C12.7344 9.16477 12.3672 9.09134 12 9.09134Z"/>
</svg>
