<svg width="480" height="480" viewBox="0 0 480 480" fill="none" xmlns="http://www.w3.org/2000/svg">
<rect y="240" width="339.411" height="339.411" rx="42.2809" transform="rotate(-45 0 240)" fill="#FF6F6F"/>
<path d="M210.54 270.632C205.489 270.632 201.345 269.842 198.109 268.264C194.874 266.606 192.466 264.436 190.888 261.753C189.309 259.069 188.52 256.109 188.52 252.874C188.52 247.428 190.651 243.008 194.913 239.614C199.175 236.221 205.568 234.524 214.092 234.524H229.008V233.103C229.008 229.078 227.864 226.118 225.575 224.224C223.286 222.33 220.445 221.383 217.051 221.383C213.973 221.383 211.29 222.133 209.001 223.632C206.712 225.053 205.292 227.184 204.739 230.025H189.941C190.335 225.763 191.756 222.054 194.203 218.897C196.728 215.74 199.964 213.332 203.91 211.675C207.857 209.939 212.276 209.071 217.17 209.071C225.536 209.071 232.126 211.162 236.94 215.345C241.755 219.528 244.162 225.447 244.162 233.103V269.211H231.258L229.837 259.74C228.101 262.897 225.654 265.501 222.497 267.554C219.419 269.606 215.433 270.632 210.54 270.632ZM213.973 258.793C218.314 258.793 221.668 257.372 224.036 254.531C226.483 251.69 228.022 248.178 228.653 243.995H215.749C211.724 243.995 208.843 244.744 207.107 246.244C205.37 247.665 204.502 249.44 204.502 251.571C204.502 253.86 205.37 255.636 207.107 256.899C208.843 258.162 211.132 258.793 213.973 258.793ZM266.791 201.375C264.029 201.375 261.74 200.547 259.925 198.889C258.188 197.232 257.32 195.14 257.32 192.615C257.32 190.089 258.188 188.037 259.925 186.459C261.74 184.801 264.029 183.973 266.791 183.973C269.554 183.973 271.803 184.801 273.539 186.459C275.355 188.037 276.262 190.089 276.262 192.615C276.262 195.14 275.355 197.232 273.539 198.889C271.803 200.547 269.554 201.375 266.791 201.375ZM259.214 269.211V210.491H274.368V269.211H259.214Z" fill="white"/>
</svg>
