<svg width="28" height="27" viewBox="0 0 28 27" fill="none" xmlns="http://www.w3.org/2000/svg">
<path d="M27.8152 5.10277C27.5973 4.76051 27.224 4.51157 26.8195 4.51157L7.15601 3.60917L6.47152 0.933449C6.31591 0.373524 5.84931 0 5.25811 0L1.24441 0.000217028C0.559924 0.000217028 0 0.560142 0 1.24463C0 1.92912 0.559924 2.48904 1.24441 2.48904H4.29344L7.71599 15.8054L6.8761 19.2903C6.78278 19.6636 6.8761 20.0681 7.094 20.3481C7.34293 20.6593 7.6852 20.8147 8.05845 20.8147H23.3039C23.9883 20.8147 24.5483 20.2548 24.5483 19.5703C24.5483 18.8858 23.9883 18.3259 23.3039 18.3259H9.67633L10.0186 16.8945L22.4638 16.3033C22.9304 16.2723 23.335 15.9921 23.5216 15.5878L27.8773 6.25386C28.0642 5.91161 28.0329 5.47603 27.8153 5.10273L27.8152 5.10277Z" fill="#333333"/>
<path d="M11.2021 23.8017C11.2021 25.0904 10.1573 26.1352 8.86864 26.1352C7.57972 26.1352 6.53516 25.0904 6.53516 23.8017C6.53516 22.5131 7.57972 21.4683 8.86864 21.4683C10.1573 21.4683 11.2021 22.5131 11.2021 23.8017Z" fill="#333333"/>
<path d="M25.2021 23.8017C25.2021 25.0904 24.1573 26.1352 22.8686 26.1352C21.5797 26.1352 20.5352 25.0904 20.5352 23.8017C20.5352 22.5131 21.5797 21.4683 22.8686 21.4683C24.1573 21.4683 25.2021 22.5131 25.2021 23.8017Z" fill="#333333"/>
</svg>
