<svg width="25" height="24" viewBox="0 0 25 24" fill="none" xmlns="http://www.w3.org/2000/svg">
<path d="M23.9738 5.35463C23.5191 4.77352 22.8114 4.41977 22.0788 4.41977H6.69059L6.21046 2.5499C5.9325 1.46347 4.97229 0.705383 3.86063 0.705383H1.28326C0.853728 0.705383 0.5 1.05913 0.5 1.48864C0.5 1.91818 0.853742 2.2719 1.28326 2.2719H3.86063C4.23958 2.2719 4.56813 2.52465 4.6693 2.9036L7.75198 15.1838C8.02994 16.2702 8.99015 17.0283 10.1018 17.0283H20.1837C21.2955 17.0283 22.2809 16.2702 22.5335 15.1838L24.4286 7.40129C24.6054 6.69379 24.4538 5.93589 23.9737 5.35463H23.9738ZM22.8874 7.04758L20.9923 14.8301C20.8913 15.209 20.5628 15.4618 20.1837 15.4618H10.1018C9.72281 15.4618 9.39426 15.209 9.2931 14.8301L7.09483 6.0116H22.0787C22.3315 6.0116 22.584 6.13798 22.7356 6.34014C22.8874 6.5423 22.9632 6.79505 22.8874 7.04764L22.8874 7.04758Z" fill="#333333"/>
<path d="M10.6327 18.0391C9.19229 18.0391 8.00488 19.2267 8.00488 20.6669C8.00488 22.1073 9.19247 23.2947 10.6327 23.2947C12.073 23.2948 13.2606 22.1073 13.2606 20.6669C13.2606 19.2267 12.073 18.0391 10.6327 18.0391ZM10.6327 21.7029C10.0515 21.7029 9.59663 21.2482 9.59663 20.6669C9.59663 20.0858 10.0514 19.6309 10.6327 19.6309C11.2138 19.6309 11.6687 20.0856 11.6687 20.6669C11.6687 21.2228 11.1885 21.7029 10.6327 21.7029Z" fill="#333333"/>
<path d="M19.3241 18.0391C17.8837 18.0391 16.6963 19.2267 16.6963 20.6669C16.6963 22.1073 17.8839 23.2947 19.3241 23.2947C20.7644 23.2947 21.9518 22.1071 21.9518 20.6669C21.9266 19.2267 20.7644 18.0391 19.3241 18.0391ZM19.3241 21.7029C18.7429 21.7029 18.288 21.2482 18.288 20.6669C18.288 20.0858 18.7428 19.6309 19.3241 19.6309C19.9052 19.6309 20.3601 20.0856 20.3601 20.6669C20.3601 21.2228 19.88 21.7029 19.3241 21.7029Z" fill="#333333"/>
</svg>
