<svg width="28" height="22" viewBox="0 0 28 22" fill="none" xmlns="http://www.w3.org/2000/svg">
<path d="M24.2611 13.75H10.5716L10.8772 15.125H23.4121C24.1313 15.125 24.6643 15.7395 24.5049 16.3848L24.2473 17.4279C25.1202 17.8178 25.722 18.641 25.722 19.5937C25.722 20.9345 24.5303 22.0191 23.0684 21.9997C21.6757 21.9813 20.5303 20.9414 20.4927 19.6602C20.4722 18.9604 20.7769 18.3261 21.2774 17.875H11.4871C11.9717 18.3118 12.2727 18.9203 12.2727 19.5937C12.2727 20.9607 11.0339 22.0615 9.53291 21.9973C8.20012 21.9404 7.11619 20.9495 7.04614 19.7236C6.99207 18.7768 7.53349 17.9423 8.3561 17.507L5.07564 2.75H1.81218C1.19319 2.75 0.691406 2.2883 0.691406 1.71875V1.03125C0.691406 0.461699 1.19319 0 1.81218 0H6.60017C7.13258 0 7.5915 0.344652 7.6982 0.82457L8.12624 2.75H26.4687C27.1879 2.75 27.721 3.3645 27.5616 4.0098L25.354 12.9473C25.2381 13.4168 24.7844 13.75 24.2611 13.75Z" fill="#333333"/>
</svg>
