<svg width="32" height="32" viewBox="0 0 32 32" fill="none" xmlns="http://www.w3.org/2000/svg">
<circle cx="16" cy="16" r="14.5" stroke="#FF6F6F" stroke-width="3"/>
<path d="M12.8211 14.4207L10.2877 16.954C10.1631 17.0776 10.0154 17.1753 9.85294 17.2417C9.69049 17.3081 9.51654 17.3417 9.34106 17.3407C9.16559 17.3417 8.99164 17.3081 8.82919 17.2417C8.66674 17.1753 8.51898 17.0776 8.3944 16.954C8.26943 16.8301 8.17023 16.6826 8.10254 16.5201C8.03485 16.3576 8 16.1834 8 16.0073C8 15.8313 8.03485 15.657 8.10254 15.4946C8.17023 15.3321 8.26943 15.1846 8.3944 15.0607L9.9944 13.474L8.3944 11.8873C8.14333 11.6363 8.00228 11.2957 8.00228 10.9407C8.00228 10.5856 8.14333 10.2451 8.3944 9.99401C8.64547 9.74294 8.986 9.60189 9.34106 9.60189C9.69613 9.60189 10.0367 9.74294 10.2877 9.99401L12.8211 12.5273C12.946 12.6513 13.0452 12.7988 13.1129 12.9612C13.1806 13.1237 13.2155 13.298 13.2155 13.474C13.2155 13.65 13.1806 13.8243 13.1129 13.9868C13.0452 14.1493 12.946 14.2967 12.8211 14.4207Z" fill="#FF6F6F"/>
<path d="M10.4576 22.5451C10.4901 22.1956 10.659 21.873 10.9277 21.6473C12.3036 20.5414 14.0158 19.9386 15.7811 19.9386C17.5463 19.9386 19.2586 20.5414 20.6344 21.6473C20.9031 21.873 21.0721 22.1956 21.1045 22.5451C21.137 22.8945 21.0303 23.2427 20.8077 23.514C20.6958 23.649 20.5583 23.7606 20.4032 23.8424C20.2481 23.9242 20.0783 23.9746 19.9037 23.9907C19.7291 24.0068 19.553 23.9883 19.3855 23.9363C19.218 23.8842 19.0625 23.7996 18.9277 23.6873C18.0364 22.9687 16.926 22.5768 15.7811 22.5768C14.6361 22.5768 13.5257 22.9687 12.6344 23.6873C12.4997 23.7996 12.3441 23.8842 12.1766 23.9363C12.0092 23.9883 11.8331 24.0068 11.6584 23.9907C11.4838 23.9746 11.3141 23.9242 11.1589 23.8424C11.0038 23.7606 10.8663 23.649 10.7544 23.514C10.5318 23.2427 10.4252 22.8945 10.4576 22.5451Z" fill="#FF6F6F"/>
<path d="M23.0538 9.70215C23.2163 9.76984 23.3638 9.86904 23.4877 9.99401C23.6127 10.118 23.7119 10.2654 23.7796 10.4279C23.8473 10.5904 23.8821 10.7647 23.8821 10.9407C23.8821 11.1167 23.8473 11.291 23.7796 11.4534C23.7119 11.6159 23.6127 11.7634 23.4877 11.8873L21.9011 13.474L23.4877 15.0607C23.6127 15.1846 23.7119 15.3321 23.7796 15.4946C23.8473 15.657 23.8821 15.8313 23.8821 16.0073C23.8821 16.1834 23.8473 16.3576 23.7796 16.5201C23.7119 16.6826 23.6127 16.8301 23.4877 16.954C23.3631 17.0776 23.2154 17.1753 23.0529 17.2417C22.8905 17.3081 22.7165 17.3417 22.5411 17.3407C22.3656 17.3417 22.1916 17.3081 22.0292 17.2417C21.8667 17.1753 21.719 17.0776 21.5944 16.954L19.0611 14.4207C18.9361 14.2967 18.8369 14.1493 18.7692 13.9868C18.7015 13.8243 18.6667 13.65 18.6667 13.474C18.6667 13.298 18.7015 13.1237 18.7692 12.9612C18.8369 12.7988 18.9361 12.6513 19.0611 12.5273L21.5944 9.99401C21.7183 9.86904 21.8658 9.76984 22.0283 9.70215C22.1908 9.63446 22.365 9.59961 22.5411 9.59961C22.7171 9.59961 22.8914 9.63446 23.0538 9.70215Z" fill="#FF6F6F"/>
</svg>
