<svg width="480" height="480" viewBox="0 0 480 480" fill="none" xmlns="http://www.w3.org/2000/svg">
<rect y="240" width="339.411" height="339.411" rx="41.5763" transform="rotate(-45 0 240)" fill="#51C0C0"/>
<path d="M150.21 283.077C144.212 283.077 138.924 281.775 134.346 279.17C129.768 276.565 126.138 272.935 123.454 268.278C120.85 263.621 119.547 258.294 119.547 252.296C119.547 246.297 120.85 240.97 123.454 236.313C126.138 231.656 129.768 228.026 134.346 225.421C138.924 222.816 144.212 221.514 150.21 221.514C157.708 221.514 164.023 223.487 169.153 227.434C174.283 231.301 177.558 236.668 178.979 243.535H162.997C162.207 240.693 160.629 238.483 158.261 236.905C155.972 235.247 153.249 234.419 150.092 234.419C145.909 234.419 142.357 235.997 139.437 239.154C136.517 242.311 135.056 246.692 135.056 252.296C135.056 257.899 136.517 262.28 139.437 265.437C142.357 268.594 145.909 270.172 150.092 270.172C153.249 270.172 155.972 269.383 158.261 267.805C160.629 266.226 162.207 263.977 162.997 261.056H178.979C177.558 267.686 174.283 273.014 169.153 277.039C164.023 281.064 157.708 283.077 150.21 283.077ZM199.77 307.702L213.384 277.749H209.833L186.983 222.935H203.44L219.896 264.253L237.062 222.935H253.163L215.871 307.702H199.77ZM297.877 283.077C293.457 283.077 289.59 282.248 286.275 280.591C282.96 278.933 280.276 276.605 278.224 273.606L276.567 281.656H263.07V196.415H278.224V231.34C280.118 228.736 282.605 226.447 285.683 224.474C288.84 222.501 292.905 221.514 297.877 221.514C303.402 221.514 308.335 222.856 312.676 225.539C317.017 228.223 320.45 231.893 322.976 236.55C325.501 241.206 326.764 246.494 326.764 252.414C326.764 258.333 325.501 263.621 322.976 268.278C320.45 272.856 317.017 276.487 312.676 279.17C308.335 281.775 303.402 283.077 297.877 283.077ZM294.68 269.817C299.495 269.817 303.481 268.199 306.638 264.963C309.795 261.727 311.373 257.544 311.373 252.414C311.373 247.284 309.795 243.061 306.638 239.746C303.481 236.431 299.495 234.774 294.68 234.774C289.787 234.774 285.762 236.431 282.605 239.746C279.526 242.982 277.987 247.165 277.987 252.296C277.987 257.426 279.526 261.648 282.605 264.963C285.762 268.199 289.787 269.817 294.68 269.817ZM340.301 281.656V222.935H353.798L355.218 233.945C357.349 230.157 360.23 227.157 363.861 224.947C367.57 222.659 371.911 221.514 376.884 221.514V237.497H372.622C369.307 237.497 366.347 238.01 363.742 239.036C361.138 240.062 359.086 241.838 357.586 244.363C356.166 246.889 355.455 250.401 355.455 254.9V281.656H340.301Z" fill="white"/>
</svg>
