<svg xmlns="http://www.w3.org/2000/svg" width="20" height="21" fill="none" viewBox="0 0 20 21"><path d="M10 20.5C7.34784 20.5 4.8043 19.4464 2.92893 17.5711C1.05357 15.6957 0 13.1522 0 10.5C0 7.84784 1.05357 5.3043 2.92893 3.42893C4.8043 1.55357 7.34784 0.5 10 0.5C12.6522 0.5 15.1957 1.55357 17.0711 3.42893C18.9464 5.3043 20 7.84784 20 10.5C20 13.1522 18.9464 15.6957 17.0711 17.5711C15.1957 19.4464 12.6522 20.5 10 20.5ZM3.68 5.6C2.79871 6.73043 2.23901 8.07785 2.06 9.5H3C3.26522 9.5 3.51957 9.60536 3.70711 9.79289C3.89464 9.98043 4 10.2348 4 10.5C4 10.7652 3.89464 11.0196 3.70711 11.2071C3.51957 11.3946 3.26522 11.5 3 11.5H2.06C2.21536 12.755 2.66789 13.9549 3.38 15C4.94914 13.6127 6.91566 12.7555 9 12.55V7.5C9 7.23478 9.10536 6.98043 9.29289 6.79289C9.48043 6.60536 9.73478 6.5 10 6.5C10.2652 6.5 10.5196 6.60536 10.7071 6.79289C10.8946 6.98043 11 7.23478 11 7.5V12.55C13.0843 12.7555 15.0509 13.6127 16.62 15C17.3321 13.9549 17.7846 12.755 17.94 11.5H17C16.7348 11.5 16.4804 11.3946 16.2929 11.2071C16.1054 11.0196 16 10.7652 16 10.5C16 10.2348 16.1054 9.98043 16.2929 9.79289C16.4804 9.60536 16.7348 9.5 17 9.5H17.94C17.761 8.07785 17.2013 6.73043 16.32 5.6L15.66 6.26C15.4717 6.4483 15.2163 6.55409 14.95 6.55409C14.6837 6.55409 14.4283 6.4483 14.24 6.26C14.0517 6.0717 13.9459 5.8163 13.9459 5.55C13.9459 5.2837 14.0517 5.0283 14.24 4.84L14.91 4.18C13.7767 3.29706 12.4256 2.73727 11 2.56V3.5C11 3.76522 10.8946 4.01957 10.7071 4.20711C10.5196 4.39464 10.2652 4.5 10 4.5C9.73478 4.5 9.48043 4.39464 9.29289 4.20711C9.10536 4.01957 9 3.76522 9 3.5V2.56C7.54 2.74 6.2 3.32 5.1 4.18L5.76 4.84C5.9483 5.0283 6.05409 5.2837 6.05409 5.55C6.05409 5.8163 5.9483 6.0717 5.76 6.26C5.5717 6.4483 5.3163 6.55409 5.05 6.55409C4.7837 6.55409 4.5283 6.4483 4.34 6.26L3.68 5.59V5.6ZM4.71 16.5C6.16828 17.7941 8.05033 18.5087 10 18.5087C11.9497 18.5087 13.8317 17.7941 15.29 16.5C13.8317 15.2059 11.9497 14.4913 10 14.4913C8.05033 14.4913 6.16828 15.2059 4.71 16.5Z"/></svg>