<svg xmlns="http://www.w3.org/2000/svg" width="18" height="21" fill="none" viewBox="0 0 18 21"><path fill="#333" d="M7.1385 8.62988C6.55221 8.62988 6.08936 9.14417 6.08936 9.7716C6.08936 10.399 6.5625 10.9133 7.1385 10.9133C7.72478 10.9133 8.18764 10.399 8.18764 9.7716C8.19793 9.14417 7.72478 8.62988 7.1385 8.62988ZM10.8928 8.62988C10.3065 8.62988 9.84364 9.14417 9.84364 9.7716C9.84364 10.399 10.3168 10.9133 10.8928 10.9133C11.4791 10.9133 11.9419 10.399 11.9419 9.7716C11.9419 9.14417 11.4791 8.62988 10.8928 8.62988Z"/><path d="M15.8914 0H2.10857C0.946286 0 0 0.946286 0 2.11886V16.0251C0 17.1977 0.946286 18.144 2.10857 18.144H13.7726L13.2274 16.2411L14.544 17.4651L15.7886 18.6171L18 20.5714V2.11886C18 0.946286 17.0537 0 15.8914 0ZM11.9211 13.4331C11.9211 13.4331 11.5509 12.9909 11.2423 12.6C12.5897 12.2194 13.104 11.376 13.104 11.376C12.6823 11.6537 12.2811 11.8491 11.9211 11.9829C11.4069 12.1989 10.9131 12.3429 10.4297 12.4251C9.44228 12.6103 8.53714 12.5589 7.76571 12.4149C7.17943 12.3017 6.67543 12.1371 6.25371 11.9726C6.01714 11.88 5.76 11.7669 5.50286 11.6229C5.472 11.6023 5.44114 11.592 5.41029 11.5714C5.38971 11.5611 5.37943 11.5509 5.36914 11.5406C5.184 11.4377 5.08114 11.3657 5.08114 11.3657C5.08114 11.3657 5.57486 12.1886 6.88114 12.5794C6.57257 12.9703 6.192 13.4331 6.192 13.4331C3.91886 13.3611 3.05486 11.8697 3.05486 11.8697C3.05486 8.55771 4.536 5.87314 4.536 5.87314C6.01714 4.76229 7.42629 4.79314 7.42629 4.79314L7.52914 4.91657C5.67771 5.45143 4.824 6.264 4.824 6.264C4.824 6.264 5.05029 6.14057 5.43086 5.96571C6.53143 5.48229 7.40571 5.34857 7.76571 5.31771C7.82743 5.30743 7.87886 5.29714 7.94057 5.29714C8.568 5.21486 9.27771 5.19429 10.0183 5.27657C10.9954 5.38971 12.0446 5.67771 13.1143 6.264C13.1143 6.264 12.3017 5.49257 10.5531 4.95771L10.6971 4.79314C10.6971 4.79314 12.1063 4.76229 13.5874 5.87314C13.5874 5.87314 15.0686 8.55771 15.0686 11.8697C15.0686 11.8697 14.1943 13.3611 11.9211 13.4331Z"/></svg>