<svg width="20" height="20" viewBox="0 0 20 20" fill="none" xmlns="http://www.w3.org/2000/svg">
<path d="M3.73832 16.0743L8.03738 15.3266H8.2243L18.6916 4.67241C18.8785 4.48549 18.8785 4.48549 18.6916 4.29858L14.5794 -0.000488281H14.3925H14.2056L3.5514 10.6537C3.5514 10.6537 3.5514 10.6537 3.5514 10.8406L2.80374 14.9528C2.80374 15.1397 2.80374 15.5135 2.99065 15.7004C3.17757 15.8874 3.36449 16.0743 3.73832 16.0743ZM5.42056 11.5883L14.5794 2.42942L16.4486 4.29858L7.1028 13.4575L4.85981 13.8313L5.42056 11.5883ZM19.2523 18.1304H0.747664C0.373832 18.1304 0 18.5042 0 18.878V19.8126C0 19.9995 0 19.9995 0.186916 19.9995H19.8131C20 19.9995 20 19.9995 20 19.8126V18.878C20 18.5042 19.6262 18.1304 19.2523 18.1304Z" fill="#333333"/>
</svg>
