<svg xmlns="http://www.w3.org/2000/svg" width="18" height="13" fill="none" viewBox="0 0 18 13"><path fill="#333" d="M16.25 0H1.25C0.918479 0 0.600537 0.131696 0.366116 0.366116C0.131696 0.600537 0 0.918479 0 1.25V11.25C0 11.5815 0.131696 11.8995 0.366116 12.1339C0.600537 12.3683 0.918479 12.5 1.25 12.5H16.25C16.5815 12.5 16.8995 12.3683 17.1339 12.1339C17.3683 11.8995 17.5 11.5815 17.5 11.25V1.25C17.5 0.918479 17.3683 0.600537 17.1339 0.366116C16.8995 0.131696 16.5815 0 16.25 0ZM14.875 1.25L8.75 5.4875L2.625 1.25H14.875ZM1.25 11.25V1.81875L8.39375 6.7625C8.49837 6.83508 8.62267 6.87397 8.75 6.87397C8.87733 6.87397 9.00163 6.83508 9.10625 6.7625L16.25 1.81875V11.25H1.25Z"/></svg>