<svg xmlns="http://www.w3.org/2000/svg" width="21" height="21" fill="none" viewBox="0 0 21 21"><path d="M21 10.5C21 4.70039 16.2996 0 10.5 0C4.70039 0 0 4.70039 0 10.5C0 15.7418 3.83906 20.0854 8.85938 20.8729V13.5352H6.19336V10.5H8.85938V8.18672C8.85938 5.55557 10.4262 4.10156 12.8256 4.10156C13.974 4.10156 15.1758 4.30664 15.1758 4.30664V6.89063H13.851C12.5467 6.89063 12.1406 7.70068 12.1406 8.53125V10.5H15.0527L14.5872 13.5352H12.1406V20.8729C17.1609 20.0854 21 15.7418 21 10.5Z"/><path fill="#fff" d="M14.5872 13.5352L15.0527 10.5H12.1406V8.53125C12.1406 7.70068 12.5467 6.89062 13.851 6.89062H15.1758V4.30664C15.1758 4.30664 13.974 4.10156 12.8256 4.10156C10.4262 4.10156 8.85938 5.55557 8.85938 8.18672V10.5H6.19336V13.5352H8.85938V20.8729C9.39463 20.9569 9.94219 21 10.5 21C11.0578 21 11.6054 20.9569 12.1406 20.8729V13.5352H14.5872Z"/></svg>