<svg width="20" height="20" viewBox="0 0 20 20" fill="none" xmlns="http://www.w3.org/2000/svg">
<path d="M9.99986 0C8.27598 0.000497635 6.58149 0.446479 5.08076 1.29468C3.58002 2.14289 2.32398 3.36452 1.43447 4.84109C0.544962 6.31766 0.0521784 7.99904 0.00392083 9.72213C-0.0443368 11.4452 0.35357 13.1515 1.15904 14.6756L0.409052 17.3002C0.318311 17.6177 0.314137 17.9537 0.396963 18.2734C0.479789 18.5931 0.646601 18.8848 0.880112 19.1183C1.11362 19.3518 1.40534 19.5186 1.72502 19.6015C2.04471 19.6843 2.38074 19.6802 2.69828 19.5895L5.32334 18.8395C6.66546 19.5494 8.1516 19.9444 9.66908 19.9945C11.1866 20.0447 12.6955 19.7487 14.0816 19.1289C15.4676 18.5092 16.6944 17.582 17.6688 16.4177C18.6432 15.2534 19.3397 13.8825 19.7055 12.409C20.0712 10.9355 20.0967 9.39809 19.7798 7.9133C19.463 6.42851 18.8123 5.03534 17.8769 3.83944C16.9415 2.64353 15.7461 1.6763 14.3813 1.01106C13.0165 0.345832 11.5182 7.14848e-05 9.99986 0ZM9.99986 17.7765C8.60324 17.7775 7.23218 17.4019 6.03111 16.6892C5.90096 16.6118 5.75637 16.5619 5.60621 16.5423C5.45605 16.5228 5.30348 16.5342 5.15788 16.5758L2.72893 17.2697L3.42281 14.8409C3.4644 14.6954 3.47579 14.5428 3.45628 14.3927C3.43678 14.2425 3.38679 14.098 3.30939 13.9679C2.43347 12.492 2.07029 10.7679 2.27641 9.06409C2.48254 7.36031 3.2464 5.77253 4.44901 4.54809C5.65161 3.32364 7.22543 2.53129 8.92532 2.29445C10.6252 2.0576 12.3557 2.38957 13.8472 3.23865C15.3388 4.08772 16.5076 5.40622 17.1717 6.98875C17.8357 8.57129 17.9577 10.329 17.5187 11.9881C17.0796 13.6472 16.1041 15.1145 14.7442 16.1615C13.3842 17.2084 11.7162 17.7762 9.99986 17.7765ZM14.0739 8.14754C14.0739 8.44221 13.9568 8.7248 13.7484 8.93316C13.5401 9.14152 13.2575 9.25857 12.9628 9.25857H7.03693C6.74225 9.25857 6.45964 9.14152 6.25127 8.93316C6.0429 8.7248 5.92583 8.44221 5.92583 8.14754C5.92583 7.85288 6.0429 7.57029 6.25127 7.36193C6.45964 7.15357 6.74225 7.03652 7.03693 7.03652H12.9628C13.2575 7.03652 13.5401 7.15357 13.7484 7.36193C13.9568 7.57029 14.0739 7.85288 14.0739 8.14754ZM14.0739 11.851C14.0739 12.1456 13.9568 12.4282 13.7484 12.6366C13.5401 12.8449 13.2575 12.962 12.9628 12.962H7.03693C6.74225 12.962 6.45964 12.8449 6.25127 12.6366C6.0429 12.4282 5.92583 12.1456 5.92583 11.851C5.92583 11.5563 6.0429 11.2737 6.25127 11.0654C6.45964 10.857 6.74225 10.7399 7.03693 10.7399H12.9628C13.2575 10.7399 13.5401 10.857 13.7484 11.0654C13.9568 11.2737 14.0739 11.5563 14.0739 11.851Z"/>
</svg>
