<svg width="480" height="480" viewBox="0 0 480 480" fill="none" xmlns="http://www.w3.org/2000/svg">
<rect y="240" width="339.411" height="339.411" rx="42.281" transform="rotate(-45 0 240)" fill="#F9A857"/>
<path d="M110.407 269.798V184.559H125.561V220.075C127.534 216.839 130.178 214.314 133.493 212.498C136.887 210.604 140.754 209.657 145.095 209.657C152.356 209.657 157.96 211.946 161.906 216.524C165.931 221.101 167.943 227.81 167.943 236.649V269.798H152.908V238.07C152.908 233.019 151.882 229.151 149.83 226.468C147.857 223.785 144.7 222.443 140.359 222.443C136.097 222.443 132.546 223.942 129.705 226.942C126.942 229.941 125.561 234.124 125.561 239.491V269.798H110.407ZM202.678 271.218C197.627 271.218 193.483 270.429 190.247 268.851C187.011 267.193 184.604 265.023 183.026 262.339C181.447 259.656 180.658 256.696 180.658 253.46C180.658 248.014 182.789 243.595 187.051 240.201C191.313 236.807 197.706 235.11 206.23 235.11H221.146V233.69C221.146 229.664 220.002 226.705 217.713 224.811C215.424 222.916 212.583 221.969 209.189 221.969C206.111 221.969 203.428 222.719 201.139 224.219C198.85 225.639 197.429 227.77 196.877 230.612H182.079C182.473 226.35 183.894 222.64 186.341 219.483C188.866 216.326 192.102 213.919 196.048 212.262C199.995 210.525 204.414 209.657 209.308 209.657C217.674 209.657 224.264 211.749 229.078 215.932C233.893 220.115 236.3 226.034 236.3 233.69V269.798H223.396L221.975 260.327C220.239 263.484 217.792 266.088 214.635 268.14C211.557 270.192 207.571 271.218 202.678 271.218ZM206.111 259.38C210.452 259.38 213.806 257.959 216.174 255.118C218.621 252.276 220.16 248.764 220.791 244.581H207.887C203.862 244.581 200.981 245.331 199.245 246.831C197.508 248.251 196.64 250.027 196.64 252.158C196.64 254.447 197.508 256.223 199.245 257.485C200.981 258.748 203.27 259.38 206.111 259.38ZM279.529 271.218C273.53 271.218 268.242 269.916 263.665 267.311C259.087 264.707 255.457 261.076 252.773 256.42C250.169 251.763 248.866 246.436 248.866 240.438C248.866 234.439 250.169 229.112 252.773 224.455C255.457 219.799 259.087 216.168 263.665 213.564C268.242 210.959 273.53 209.657 279.529 209.657C287.026 209.657 293.34 211.63 298.47 215.576C303.601 219.444 306.876 224.811 308.297 231.677H292.314C291.525 228.836 289.947 226.626 287.579 225.047C285.29 223.39 282.567 222.561 279.41 222.561C275.227 222.561 271.676 224.14 268.755 227.297C265.835 230.454 264.375 234.834 264.375 240.438C264.375 246.041 265.835 250.422 268.755 253.579C271.676 256.736 275.227 258.314 279.41 258.314C282.567 258.314 285.29 257.525 287.579 255.946C289.947 254.368 291.525 252.119 292.314 249.198H308.297C306.876 255.828 303.601 261.155 298.47 265.181C293.34 269.206 287.026 271.218 279.529 271.218ZM321.746 269.798V184.559H336.9V234.874L357.736 211.078H375.731L351.698 237.833L379.638 269.798H360.696L336.9 240.319V269.798H321.746Z" fill="white"/>
</svg>
