<svg xmlns="http://www.w3.org/2000/svg" width="21" height="21" fill="none" viewBox="0 0 21 21"><g clip-path="url(#clip0)"><path fill="#000" d="M10.5 0C7.64886 0 7.29039 0.012505 6.16911 0.0625248C5.052 0.112545 4.2892 0.291782 3.62227 0.550218C2.93033 0.816991 2.34676 1.17963 1.7632 1.7632C1.17963 2.34676 0.821159 2.9345 0.550218 3.62227C0.291782 4.2892 0.112545 5.05201 0.0625248 6.17328C0.012505 7.29039 0 7.64887 0 10.5C0 13.3511 0.012505 13.7096 0.0625248 14.8309C0.112545 15.948 0.291782 16.7108 0.550218 17.3819C0.81699 18.0738 1.17963 18.6574 1.7632 19.241C2.34676 19.8245 2.9345 20.183 3.62227 20.454C4.2892 20.7124 5.052 20.8916 6.17328 20.9416C7.29456 20.9917 7.64886 21.0042 10.5042 21.0042C13.3553 21.0042 13.7138 20.9917 14.835 20.9416C15.9522 20.8916 16.715 20.7124 17.3861 20.454C18.078 20.1872 18.6616 19.8245 19.2451 19.241C19.8287 18.6574 20.1872 18.0697 20.4581 17.3819C20.7165 16.715 20.8958 15.9522 20.9458 14.8309C20.9958 13.7096 21.0083 13.3553 21.0083 10.5C21.0083 7.64887 20.9958 7.29039 20.9458 6.16911C20.8958 5.052 20.7165 4.2892 20.4581 3.6181C20.1913 2.92616 19.8287 2.3426 19.2451 1.75903C18.6616 1.17547 18.0738 0.816991 17.3861 0.54605C16.7191 0.287614 15.9563 0.108376 14.835 0.0583565C13.7096 0.012505 13.3511 0 10.5 0ZM10.5 1.89242C13.3053 1.89242 13.6346 1.90492 14.7433 1.95494C15.7688 2.00079 16.3231 2.17169 16.6941 2.31759C17.186 2.50933 17.5361 2.73442 17.9029 3.10123C18.2697 3.46804 18.499 3.81818 18.6866 4.31004C18.8283 4.68102 19.0034 5.23541 19.0492 6.26082C19.0992 7.36959 19.1117 7.69889 19.1117 10.5042C19.1117 13.3094 19.0992 13.6387 19.0492 14.7475C19.0034 15.7729 18.8325 16.3273 18.6866 16.6983C18.4948 17.1902 18.2697 17.5403 17.9029 17.9071C17.5361 18.2739 17.186 18.5032 16.6941 18.6908C16.3231 18.8325 15.7688 19.0075 14.7433 19.0534C13.6346 19.1034 13.3053 19.1159 10.5 19.1159C7.69472 19.1159 7.36542 19.1034 6.25665 19.0534C5.23124 19.0075 4.67685 18.8366 4.30587 18.6908C3.81401 18.499 3.46387 18.2739 3.09706 17.9071C2.73025 17.5403 2.50099 17.1902 2.31342 16.6983C2.17169 16.3273 1.99662 15.7729 1.95077 14.7475C1.90075 13.6387 1.88825 13.3094 1.88825 10.5042C1.88825 7.69889 1.90075 7.36959 1.95077 6.26082C1.99662 5.23541 2.16753 4.68102 2.31342 4.31004C2.50516 3.81818 2.73025 3.46804 3.09706 3.10123C3.46387 2.73442 3.81401 2.50516 4.30587 2.31759C4.67685 2.17586 5.23124 2.00079 6.25665 1.95494C7.36542 1.90075 7.69888 1.89242 10.5 1.89242Z"/><path d="M10.5003 14.0014C8.56615 14.0014 6.99886 12.4341 6.99886 10.5C6.99886 8.56589 8.56615 6.9986 10.5003 6.9986C12.4344 6.9986 14.0016 8.56589 14.0016 10.5C14.0016 12.4341 12.4344 14.0014 10.5003 14.0014ZM10.5003 5.11035C7.52407 5.11035 5.10645 7.52381 5.10645 10.5042C5.10645 13.4803 7.5199 15.898 10.5003 15.898C13.4764 15.898 15.8941 13.4845 15.8941 10.5042C15.8941 7.52381 13.4806 5.11035 10.5003 5.11035Z"/><path d="M17.3653 4.8936C17.3653 5.58971 16.8026 6.15243 16.1065 6.15243C15.4104 6.15243 14.8477 5.58971 14.8477 4.8936C14.8477 4.19749 15.4104 3.63477 16.1065 3.63477C16.8026 3.63477 17.3653 4.19749 17.3653 4.8936Z"/></g><defs><clipPath id="clip0"><rect width="21" height="21" fill="#fff"/></clipPath></defs></svg>