<svg width="480" height="480" viewBox="0 0 480 480" fill="none" xmlns="http://www.w3.org/2000/svg">
<rect y="240" width="339.411" height="339.411" rx="44.6593" transform="rotate(-45 0 240)" fill="#816DFF"/>
<path d="M148.114 201.96C145.352 201.96 143.063 201.131 141.248 199.474C139.511 197.816 138.643 195.725 138.643 193.199C138.643 190.674 139.511 188.622 141.248 187.043C143.063 185.386 145.352 184.557 148.114 184.557C150.877 184.557 153.126 185.386 154.863 187.043C156.678 188.622 157.586 190.674 157.586 193.199C157.586 195.725 156.678 197.816 154.863 199.474C153.126 201.131 150.877 201.96 148.114 201.96ZM140.537 269.798V211.076H155.691V269.798H140.537ZM171.508 269.798V211.076H184.887L186.07 221.021C187.886 217.548 190.49 214.786 193.884 212.734C197.357 210.682 201.422 209.655 206.078 209.655C213.34 209.655 218.983 211.944 223.008 216.522C227.033 221.1 229.046 227.809 229.046 236.648V269.798H213.892V238.069C213.892 233.018 212.866 229.15 210.814 226.467C208.762 223.783 205.565 222.442 201.224 222.442C196.962 222.442 193.45 223.941 190.688 226.94C188.004 229.94 186.662 234.123 186.662 239.49V269.798H171.508ZM258.823 269.798L237.276 211.076H253.14L268.057 255.472L282.975 211.076H298.839L277.173 269.798H258.823ZM335.833 269.798C329.677 269.798 324.744 268.298 321.034 265.299C317.325 262.3 315.47 256.972 315.47 249.316V223.744H305.407V211.076H315.47L317.246 195.33H330.624V211.076H346.488V223.744H330.624V249.435C330.624 252.276 331.216 254.249 332.4 255.354C333.662 256.38 335.793 256.893 338.793 256.893H346.133V269.798H335.833Z" fill="white"/>
</svg>
