<svg xmlns="http://www.w3.org/2000/svg" width="20" height="20" fill="none" viewBox="0 0 20 20"><path d="M9 18V15.92C8.11366 15.7695 7.27245 15.4218 6.53855 14.9026C5.80466 14.3833 5.19683 13.7058 4.76 12.92C4.18207 13.0283 3.58743 13.0084 3.018 12.8619C2.44857 12.7153 1.91822 12.4457 1.46434 12.0719C1.01045 11.6981 0.644093 11.2293 0.391083 10.6985C0.138074 10.1678 0.00457526 9.58797 0 9V4C0 2.9 0.9 2 2 2H4C4 0.9 4.9 0 6 0H14C14.5304 0 15.0391 0.210714 15.4142 0.585786C15.7893 0.960859 16 1.46957 16 2H18C18.5304 2 19.0391 2.21071 19.4142 2.58579C19.7893 2.96086 20 3.46957 20 4V9C20.0004 9.58995 19.8703 10.1727 19.6191 10.7065C19.3678 11.2402 19.0016 11.7118 18.5467 12.0874C18.0918 12.463 17.5594 12.7333 16.9877 12.879C16.416 13.0247 15.8192 13.0421 15.24 12.93C14.802 13.7139 14.1937 14.3895 13.4599 14.907C12.7261 15.4245 11.8854 15.7707 11 15.92V18H15C15.2652 18 15.5196 18.1054 15.7071 18.2929C15.8946 18.4804 16 18.7348 16 19C16 19.2652 15.8946 19.5196 15.7071 19.7071C15.5196 19.8946 15.2652 20 15 20H5C4.73478 20 4.48043 19.8946 4.29289 19.7071C4.10536 19.5196 4 19.2652 4 19C4 18.7348 4.10536 18.4804 4.29289 18.2929C4.48043 18.1054 4.73478 18 5 18H9ZM15.92 11H16C16.5304 11 17.0391 10.7893 17.4142 10.4142C17.7893 10.0391 18 9.53043 18 9V4H16V10C16 10.34 15.97 10.67 15.92 11ZM4.08 11C4.02565 10.6695 3.99889 10.335 4 10V4H2V9C1.99978 9.26951 2.05404 9.53629 2.15952 9.78431C2.26499 10.0323 2.41951 10.2565 2.61378 10.4433C2.80806 10.6301 3.03808 10.7757 3.29004 10.8713C3.542 10.967 3.8107 11.0108 4.08 11ZM6 2V10C6 11.0609 6.42143 12.0783 7.17157 12.8284C7.92172 13.5786 8.93913 14 10 14C11.0609 14 12.0783 13.5786 12.8284 12.8284C13.5786 12.0783 14 11.0609 14 10V2H6Z"/></svg>