<svg width="26" height="26" viewBox="0 0 26 26" fill="none" xmlns="http://www.w3.org/2000/svg">
<path d="M4.63672 5.46191H8.64672V3.46191H2.63672V9.46191H4.63672V5.46191ZM4.63672 17.4619H2.63672V23.4619H8.64672V21.4619H4.63672V17.4619ZM20.6367 21.4619H16.6367V23.4619H22.6367V17.4619H20.6367V21.4619ZM16.6367 5.46191H20.6367V9.46191H22.6367V3.46191H16.6367V5.46191Z" fill="white"/>
<path d="M5.63672 12.4619H11.6367V6.46191H5.63672V12.4619ZM7.63672 8.46191H9.63672V10.4619H7.63672V8.46191ZM5.63672 20.4619H11.6367V14.4619H5.63672V20.4619ZM7.63672 16.4619H9.63672V18.4619H7.63672V16.4619ZM19.6367 6.46191H13.6367V12.4619H19.6367V6.46191ZM17.6367 10.4619H15.6367V8.46191H17.6367V10.4619ZM13.6467 14.4619H15.6467V16.4619H13.6467V14.4619ZM15.6467 16.4619H17.6467V18.4619H15.6467V16.4619ZM17.6467 18.4619H19.6467V20.4619H17.6467V18.4619ZM17.6467 14.4619H19.6467V16.4619H17.6467V14.4619Z" fill="white"/>
</svg>
