<svg xmlns="http://www.w3.org/2000/svg" width="16" height="16" fill="none" viewBox="0 0 16 16"><path fill="#000" stroke="#fff" stroke-width=".1" d="M1.35425 14.716L1.35412 14.7167H1.36267H14.6373V14.717L14.6431 14.7163C14.6502 14.7155 14.6573 14.7145 14.6643 14.7133L14.6644 14.7134L14.6681 14.7125L14.6788 14.7098L14.7168 14.7003L14.7167 14.6611C14.7153 14.3204 14.5063 13.3209 13.5927 12.4073C12.7122 11.5269 11.0626 10.6167 8 10.6167C4.93609 10.6167 3.28776 11.5269 2.40731 12.4073C1.49362 13.321 1.2861 14.3204 1.28333 14.6609L1.283 14.7025L1.32387 14.7104C1.33397 14.7124 1.3441 14.7142 1.35425 14.716ZM14.6667 15.95H14.6666H1.33337H1.33329L1.33276 15.95L1.33031 15.95L1.32003 15.9497C1.31085 15.9494 1.29716 15.9488 1.2796 15.9475C1.24448 15.945 1.19396 15.94 1.13322 15.9298C1.01149 15.9096 0.849958 15.8691 0.689027 15.7886C0.528292 15.7082 0.369078 15.5885 0.249936 15.4098C0.131002 15.2314 0.05 14.9913 0.05 14.6667C0.05 14.0128 0.378361 12.6924 1.53536 11.5354C2.69088 10.3798 4.67721 9.38333 8 9.38333C11.3228 9.38333 13.3091 10.3798 14.4646 11.5354C15.6216 12.6924 15.95 14.0128 15.95 14.6667C15.95 14.9913 15.869 15.2314 15.7501 15.4098C15.6309 15.5885 15.4717 15.7082 15.311 15.7886C15.15 15.8691 14.9885 15.9096 14.8668 15.9298C14.806 15.94 14.7555 15.945 14.7204 15.9475C14.7028 15.9488 14.6892 15.9494 14.68 15.9497L14.6697 15.95L14.6672 15.95L14.6667 15.95H14.6667ZM1.29 14.7387V14.7413H1.34H1.39V14.7387H1.34H1.29ZM14.6113 14.7387V14.7413H14.6613H14.7113V14.7387H14.6613H14.6113ZM8 6.71667C8.7205 6.71667 9.4115 6.43045 9.92097 5.92097C10.4304 5.4115 10.7167 4.7205 10.7167 4C10.7167 3.2795 10.4304 2.5885 9.92097 2.07903C9.4115 1.56955 8.7205 1.28333 8 1.28333C7.2795 1.28333 6.5885 1.56955 6.07903 2.07903C5.56955 2.5885 5.28333 3.2795 5.28333 4C5.28333 4.7205 5.56955 5.4115 6.07903 5.92097C6.5885 6.43045 7.2795 6.71667 8 6.71667ZM11.95 4C11.95 5.04761 11.5338 6.0523 10.7931 6.79307C10.0523 7.53384 9.04761 7.95 8 7.95C6.95239 7.95 5.9477 7.53384 5.20693 6.79307C4.46616 6.0523 4.05 5.04761 4.05 4C4.05 2.95239 4.46616 1.9477 5.20693 1.20693C5.9477 0.46616 6.95239 0.05 8 0.05C9.04761 0.05 10.0523 0.46616 10.7931 1.20693C11.5338 1.9477 11.95 2.95239 11.95 4Z"/></svg>