<svg width="24" height="24" viewBox="0 0 24 24" fill="none" xmlns="http://www.w3.org/2000/svg">
<path d="M11.9998 22.1164C9.31971 22.1164 6.7494 21.0506 4.85429 19.1534C2.95919 17.2562 1.89453 14.683 1.89453 12C1.89453 9.31693 2.95919 6.74377 4.85429 4.84658C6.7494 2.94938 9.31971 1.88354 11.9998 1.88354C14.6799 1.88354 17.2502 2.94938 19.1453 4.84658C21.0404 6.74377 22.1051 9.31693 22.1051 12C22.1051 14.683 21.0404 17.2562 19.1453 19.1534C17.2502 21.0506 14.6799 22.1164 11.9998 22.1164ZM5.61327 7.04292C4.7227 8.18651 4.15711 9.54962 3.97622 10.9883H4.92611C5.19412 10.9883 5.45115 11.0949 5.64066 11.2846C5.83017 11.4743 5.93664 11.7317 5.93664 12C5.93664 12.2683 5.83017 12.5256 5.64066 12.7153C5.45115 12.905 5.19412 13.0116 4.92611 13.0116H3.97622C4.13321 14.2813 4.5905 15.4951 5.31011 16.5524C6.89577 15.149 8.88299 14.2817 10.9893 14.0738V8.96504C10.9893 8.69674 11.0957 8.43942 11.2852 8.2497C11.4748 8.05998 11.7318 7.9534 11.9998 7.9534C12.2678 7.9534 12.5248 8.05998 12.7143 8.2497C12.9039 8.43942 13.0103 8.69674 13.0103 8.96504V14.0738C15.1166 14.2817 17.1038 15.149 18.6895 16.5524C19.4091 15.4951 19.8664 14.2813 20.0234 13.0116H19.0735C18.8055 13.0116 18.5484 12.905 18.3589 12.7153C18.1694 12.5256 18.063 12.2683 18.063 12C18.063 11.7317 18.1694 11.4743 18.3589 11.2846C18.5484 11.0949 18.8055 10.9883 19.0735 10.9883H20.0234C19.8425 9.54962 19.2769 8.18651 18.3863 7.04292L17.7194 7.7106C17.5291 7.9011 17.271 8.00812 17.0019 8.00812C16.7328 8.00812 16.4747 7.9011 16.2844 7.7106C16.0941 7.52011 15.9872 7.26174 15.9872 6.99234C15.9872 6.72294 16.0941 6.46457 16.2844 6.27407L16.9615 5.60639C15.8163 4.71316 14.451 4.14686 13.0103 3.96753V4.91847C13.0103 5.18678 12.9039 5.44409 12.7143 5.63381C12.5248 5.82353 12.2678 5.93011 11.9998 5.93011C11.7318 5.93011 11.4748 5.82353 11.2852 5.63381C11.0957 5.44409 10.9893 5.18678 10.9893 4.91847V3.96753C9.5139 4.14962 8.15979 4.73638 7.04822 5.60639L7.71516 6.27407C7.90545 6.46457 8.01235 6.72294 8.01235 6.99234C8.01235 7.26174 7.90545 7.52011 7.71516 7.7106C7.52488 7.9011 7.26679 8.00812 6.99769 8.00812C6.72858 8.00812 6.4705 7.9011 6.28022 7.7106L5.61327 7.0328V7.04292ZM6.65411 18.0698C8.12774 19.379 10.0296 20.1019 11.9998 20.1019C13.97 20.1019 15.8718 19.379 17.3455 18.0698C15.8718 16.7607 13.97 16.0377 11.9998 16.0377C10.0296 16.0377 8.12774 16.7607 6.65411 18.0698Z"/>
</svg>
