<svg width="22" height="22" viewBox="0 0 22 22" fill="none" xmlns="http://www.w3.org/2000/svg">
<path d="M4.31818 0.5H3.36364C1.78727 0.5 0.5 1.78727 0.5 3.36364V18.6364C0.5 20.2127 1.78727 21.5 3.36364 21.5H18.6364C20.2127 21.5 21.5 20.2127 21.5 18.6364V17.6818V15.7727V3.36364C21.5 1.78727 20.2127 0.5 18.6364 0.5H6.22727H4.31818ZM19.5909 18.6364C19.5909 19.16 19.16 19.5909 18.6364 19.5909H3.36364C2.84 19.5909 2.40909 19.16 2.40909 18.6364V3.36364C2.40909 2.84 2.84 2.40909 3.36364 2.40909H18.6364C19.16 2.40909 19.5909 2.84 19.5909 3.36364V18.6364Z"/>
<path d="M4.79836 7.0509H17.2074C17.4693 7.0509 17.6875 6.83817 17.6875 6.5709V5.61635C17.6875 5.35453 17.4747 5.13635 17.2074 5.13635H4.79836C4.53654 5.13635 4.31836 5.34908 4.31836 5.61635V6.5709C4.31836 6.83817 4.53109 7.0509 4.79836 7.0509Z"/>
<path d="M4.79836 11.6873H17.2074C17.4693 11.6873 17.6875 11.4745 17.6875 11.2073V10.2527C17.6875 9.99089 17.4747 9.77271 17.2074 9.77271H4.79836C4.53654 9.77271 4.31836 9.98543 4.31836 10.2527V11.2073C4.31836 11.4745 4.53109 11.6873 4.79836 11.6873Z"/>
<path d="M4.79836 16.3182H17.2074C17.4693 16.3182 17.6875 16.1055 17.6875 15.8382V14.8837C17.6875 14.6219 17.4747 14.4037 17.2074 14.4037H4.79836C4.53654 14.4037 4.31836 14.6164 4.31836 14.8837V15.8382C4.31836 16.1055 4.53109 16.3182 4.79836 16.3182Z"/>
</svg>
