<svg xmlns="http://www.w3.org/2000/svg" width="15" height="20" fill="none" viewBox="0 0 15 20"><path fill="#333" d="M13.3338 8.66667H12.0005V6C12.0005 3.4 9.93382 1.33333 7.33382 1.33333C4.73382 1.33333 2.66715 3.4 2.66715 6V8.66667H1.33382V6C1.33382 2.66667 4.00049 0 7.33382 0C10.6672 0 13.3338 2.66667 13.3338 6V8.66667Z"/><path fill="#333" d="M12.6667 20H2C0.866667 20 0 19.1333 0 18V10C0 8.86667 0.866667 8 2 8H12.6667C13.8 8 14.6667 8.86667 14.6667 10V18C14.6667 19.1333 13.8 20 12.6667 20ZM2 9.33333C1.6 9.33333 1.33333 9.6 1.33333 10V18C1.33333 18.4 1.6 18.6667 2 18.6667H12.6667C13.0667 18.6667 13.3333 18.4 13.3333 18V10C13.3333 9.6 13.0667 9.33333 12.6667 9.33333H2Z"/><path fill="#333" d="M7.33333 13.3334C8.06971 13.3334 8.66667 12.7365 8.66667 12.0001C8.66667 11.2637 8.06971 10.6667 7.33333 10.6667C6.59695 10.6667 6 11.2637 6 12.0001C6 12.7365 6.59695 13.3334 7.33333 13.3334Z"/><path fill="#333" d="M7.66536 12H6.9987L6.33203 16H8.33203L7.66536 12Z"/></svg>