<svg width="18" height="18" viewBox="0 0 18 18" fill="none" xmlns="http://www.w3.org/2000/svg">
<path d="M2 0H16C16.5304 0 17.0391 0.210714 17.4142 0.585786C17.7893 0.960859 18 1.46957 18 2V16C18 16.5304 17.7893 17.0391 17.4142 17.4142C17.0391 17.7893 16.5304 18 16 18H2C1.46957 18 0.960859 17.7893 0.585786 17.4142C0.210714 17.0391 0 16.5304 0 16V2C0 0.9 0.9 0 2 0ZM16 12V10H14V12H16ZM16 14H14V16H16V14ZM2 12H4V10H2V12ZM2 14V16H4V14H2ZM16 6H14V8H16V6ZM16 4V2H14V4H16ZM2 6V8H4V6H2ZM2 4H4V2H2V4ZM6 8H12V2H6V8ZM6 10V16H12V10H6Z"/>
</svg>
