<svg xmlns="http://www.w3.org/2000/svg" width="20" height="20" fill="none" viewBox="0 0 20 20"><path d="M18.0001 9.46002V18C18.0001 18.5305 17.7894 19.0392 17.4143 19.4142C17.0392 19.7893 16.5305 20 16.0001 20H13.0001C12.4697 20 11.961 19.7893 11.5859 19.4142C11.2108 19.0392 11.0001 18.5305 11.0001 18V14H9.0001V18C9.0001 18.5305 8.78938 19.0392 8.41431 19.4142C8.03924 19.7893 7.53053 20 7.0001 20H4.0001C3.46966 20 2.96096 19.7893 2.58588 19.4142C2.21081 19.0392 2.0001 18.5305 2.0001 18V9.46002C1.39262 9.1093 0.888057 8.60499 0.53702 7.9977C0.185983 7.3904 0.000816253 6.70148 9.6769e-05 6.00002V5.00002C-0.00206986 4.84428 0.0321731 4.69019 0.100097 4.55002L2.1001 0.550024C2.18396 0.383589 2.31266 0.2439 2.47169 0.146718C2.63071 0.0495359 2.81373 -0.00127276 3.0001 2.42241e-05H17.0001C17.1865 -0.00127276 17.3695 0.0495359 17.5285 0.146718C17.6875 0.2439 17.8162 0.383589 17.9001 0.550024L19.9001 4.55002C19.9601 4.69002 20.0001 4.85002 20.0001 5.00002V6.00002C19.9994 6.70148 19.8142 7.3904 19.4632 7.9977C19.1121 8.60499 18.6076 9.1093 18.0001 9.46002ZM16.0001 10C14.8001 10 13.7301 9.48002 13.0001 8.65002C12.6256 9.07709 12.1643 9.41928 11.6469 9.65371C11.1295 9.88814 10.5681 10.0094 10.0001 10.0094C9.4321 10.0094 8.87065 9.88814 8.35329 9.65371C7.83592 9.41928 7.37458 9.07709 7.0001 8.65002C6.62475 9.07538 6.16302 9.41581 5.64571 9.6486C5.12839 9.88139 4.56738 10.0012 4.0001 10V18H7.0001V14C7.0001 12.9 7.9001 12 9.0001 12H11.0001C11.5305 12 12.0392 12.2107 12.4143 12.5858C12.7894 12.9609 13.0001 13.4696 13.0001 14V18H16.0001V10ZM18.0001 6.00002H14.0001C14.0001 6.53046 14.2108 7.03916 14.5859 7.41424C14.961 7.78931 15.4697 8.00002 16.0001 8.00002C16.5305 8.00002 17.0392 7.78931 17.4143 7.41424C17.7894 7.03916 18.0001 6.53046 18.0001 6.00002ZM12.0001 6.00002H8.0001C8.0001 6.53046 8.21081 7.03916 8.58588 7.41424C8.96096 7.78931 9.46966 8.00002 10.0001 8.00002C10.5305 8.00002 11.0392 7.78931 11.4143 7.41424C11.7894 7.03916 12.0001 6.53046 12.0001 6.00002ZM6.0001 6.00002H2.0001C2.0001 6.53046 2.21081 7.03916 2.58588 7.41424C2.96096 7.78931 3.46966 8.00002 4.0001 8.00002C4.53053 8.00002 5.03924 7.78931 5.41431 7.41424C5.78938 7.03916 6.0001 6.53046 6.0001 6.00002ZM17.3801 4.00002L16.3801 2.00002H3.6201L2.6201 4.00002H17.3801Z"/></svg>