<svg width="160" height="160" viewBox="0 0 160 160" fill="none" xmlns="http://www.w3.org/2000/svg">
    <g clipPath="url(#clip0_792_2394)">
    <path
        d="M129 66.9333C126.761 55.5847 120.651 45.3657 111.714 38.0216C102.777 30.6775 91.5674 26.664 80 26.6666C60.7333 26.6666 44 37.6 35.6667 53.6C25.8682 54.6588 16.8067 59.3013 10.2233 66.6354C3.63981 73.9695 -0.00114468 83.4778 2.69952e-07 93.3333C2.69952e-07 115.4 17.9333 133.333 40 133.333H126.667C145.067 133.333 160 118.4 160 100C160 82.4 146.333 68.1333 129 66.9333ZM93.3333 86.6666V113.333H66.6667V86.6666H46.6667L80 53.3333L113.333 86.6666H93.3333Z"
        fill="#333333"
    />
    </g>
    <defs>
    <clipPath id="clip0_792_2394">
        <rect width="160" height="160" fill="white" />
    </clipPath>
    </defs>
</svg>