<?xml version="1.0" standalone="no"?>
<!DOCTYPE svg PUBLIC "-//W3C//DTD SVG 20010904//EN"
 "http://www.w3.org/TR/2001/REC-SVG-20010904/DTD/svg10.dtd">
<svg version="1.0" xmlns="http://www.w3.org/2000/svg"
 width="1000.000000pt" height="1000.000000pt" viewBox="0 0 1000.000000 1000.000000"
 preserveAspectRatio="xMidYMid meet">
<metadata>
Created by potrace 1.14, written by Peter Selinger 2001-2017
</metadata>
<g transform="translate(0.000000,1000.000000) scale(0.100000,-0.100000)"
fill="#000000" stroke="none">
<path d="M4930 9948 c-183 -18 -342 -91 -472 -214 -37 -35 -588 -594 -1279
-1296 -107 -108 -417 -422 -689 -698 -272 -276 -580 -589 -685 -695 -104 -106
-415 -421 -690 -699 -760 -771 -834 -847 -874 -906 -115 -169 -162 -369 -134
-575 3 -27 7 -62 7 -77 1 -14 4 -24 7 -22 10 6 21 -45 13 -58 -4 -7 -3 -8 4
-4 11 6 17 -12 13 -36 0 -5 3 -8 7 -8 5 0 15 -18 22 -40 7 -22 16 -40 20 -40
6 0 30 -44 30 -56 0 -3 -5 -2 -12 2 -7 5 -8 3 -4 -5 5 -7 11 -10 14 -7 10 11
51 -36 45 -52 -4 -9 -2 -13 4 -9 11 7 53 -36 53 -54 0 -5 3 -8 8 -6 9 6 142
-130 134 -137 -3 -3 0 -6 6 -6 14 0 101 -87 94 -95 -3 -3 3 -5 13 -5 10 0 16
-3 12 -6 -8 -8 18 -34 33 -34 6 0 8 -4 5 -10 -3 -6 -1 -10 6 -10 21 0 39 -33
26 -50 -9 -12 -9 -13 3 -3 17 15 34 17 25 3 -3 -5 0 -10 8 -10 8 0 21 -10 30
-23 8 -12 61 -69 118 -126 57 -57 103 -108 101 -113 -1 -5 1 -8 5 -5 5 2 28
-15 52 -39 24 -24 39 -44 35 -44 -5 0 2 -6 16 -13 14 -8 24 -19 22 -25 -1 -7
2 -11 7 -10 10 3 121 -110 121 -123 0 -5 3 -8 8 -8 21 4 24 -3 6 -16 -18 -14
-18 -14 3 -9 16 4 30 -4 57 -32 20 -21 36 -42 36 -46 0 -4 5 -8 12 -8 17 0 68
-61 61 -73 -3 -6 -2 -7 4 -4 6 4 21 -6 35 -21 14 -15 34 -35 44 -44 38 -34 59
-60 56 -69 -1 -5 2 -8 6 -7 11 4 178 -162 174 -173 -1 -5 2 -8 6 -7 15 5 124
-111 116 -123 -4 -7 -3 -9 3 -6 13 8 36 -17 25 -28 -4 -5 -1 -5 6 -1 15 9 52
-29 48 -47 -1 -7 -1 -9 1 -4 10 17 24 5 19 -15 -3 -13 -3 -18 0 -11 6 13 34 6
34 -9 0 -5 -5 -6 -12 -2 -7 5 -8 3 -4 -5 5 -7 10 -10 13 -7 9 9 43 -14 43 -29
0 -8 7 -15 16 -15 8 0 12 -4 9 -10 -3 -5 1 -10 10 -10 9 0 15 -7 13 -16 -2
-10 5 -18 17 -20 11 -2 21 -8 23 -14 2 -6 10 -16 17 -24 11 -10 11 -16 2 -27
-9 -9 -7 -9 6 1 16 12 20 12 28 -2 5 -8 80 -87 166 -173 87 -87 157 -164 155
-171 -2 -9 3 -11 13 -8 11 5 18 0 22 -15 3 -11 9 -19 13 -16 12 7 41 -36 33
-48 -4 -6 -1 -7 7 -2 12 7 60 -38 60 -57 0 -4 7 -8 16 -8 8 0 12 -5 9 -10 -3
-5 1 -10 9 -10 19 0 21 -17 4 -22 -7 -3 -5 -7 6 -11 10 -4 15 -3 11 3 -3 6 -3
10 0 10 10 0 60 -63 57 -73 -1 -5 2 -6 7 -3 5 3 27 -13 50 -35 35 -35 39 -44
29 -58 -11 -14 -11 -14 3 -4 13 11 21 7 47 -20 18 -18 29 -37 25 -41 -5 -4 -1
-6 7 -4 8 1 14 -3 12 -10 -1 -6 2 -11 6 -10 12 4 92 -76 92 -91 0 -6 6 -10 13
-9 6 2 11 -3 9 -10 -1 -6 2 -11 6 -10 12 4 83 -68 75 -76 -3 -3 -1 -6 6 -6 14
0 151 -137 151 -151 0 -5 7 -9 15 -9 17 0 37 -34 27 -45 -4 -5 -1 -5 6 -1 13
8 45 -18 35 -28 -4 -3 2 -6 11 -6 10 0 16 -6 13 -12 -2 -7 -11 -12 -18 -10 -8
2 -10 0 -6 -4 11 -11 38 -14 31 -3 -3 5 -2 9 2 9 8 0 64 -63 64 -72 0 -5 7 -8
16 -8 8 0 12 -5 9 -10 -3 -6 0 -10 8 -10 19 0 30 -27 14 -34 -7 -3 -6 -5 3 -5
34 2 42 -1 36 -17 -3 -8 -2 -13 2 -10 10 6 138 -124 134 -136 -1 -5 2 -7 7 -4
5 3 15 -2 22 -11 12 -14 12 -16 0 -8 -10 5 -12 4 -7 -4 4 -6 11 -9 15 -6 11 6
102 -91 93 -100 -4 -3 -2 -5 5 -3 13 4 144 -128 135 -136 -3 -3 0 -6 7 -6 16
0 42 -26 34 -34 -4 -3 -1 -6 6 -6 6 0 23 -12 37 -27 19 -20 22 -29 12 -36 -9
-6 -8 -7 5 -3 16 5 47 -13 47 -28 0 -8 38 -46 46 -46 10 0 99 -103 96 -112 -1
-4 4 -7 10 -6 7 2 12 -3 10 -10 -1 -6 1 -11 5 -10 5 2 9 -1 10 -6 1 -5 12 -14
25 -21 13 -6 22 -18 20 -26 -2 -8 0 -11 4 -6 10 10 114 -94 107 -107 -3 -5 -2
-6 4 -3 13 8 56 -37 46 -48 -5 -4 -3 -5 4 -2 6 4 18 0 26 -8 9 -8 21 -15 27
-15 7 0 10 -7 7 -14 -4 -11 -1 -13 10 -9 12 5 15 2 10 -10 -4 -11 -2 -14 8
-11 17 7 57 -14 50 -26 -4 -6 1 -7 11 -3 11 4 22 -1 30 -12 8 -10 14 -16 14
-12 0 4 17 1 38 -7 20 -8 46 -17 57 -22 11 -4 29 -9 40 -11 11 -2 45 -8 75
-14 57 -12 171 -13 204 -3 14 5 16 3 10 -7 -6 -11 -5 -12 7 -2 13 10 105 29
122 25 4 -1 7 2 7 8 0 5 7 10 15 10 9 0 46 14 83 32 37 18 72 32 79 31 7 0 11
4 10 11 -1 6 4 10 11 8 6 -1 12 3 12 10 0 6 3 9 6 6 3 -4 19 8 35 24 16 17 29
27 29 23 0 -4 9 4 21 19 11 14 25 24 30 21 5 -4 9 0 9 7 0 20 107 121 119 114
6 -4 9 -1 5 7 -3 8 8 25 26 41 17 14 30 26 28 26 -9 0 164 171 183 181 11 6
18 13 15 16 -9 9 19 31 33 25 9 -3 12 -1 7 6 -8 13 151 179 166 174 5 -1 7 1
5 6 -6 9 103 118 115 114 4 -1 8 3 8 8 0 16 122 138 134 136 6 -2 7 -1 3 2 -5
2 2 15 14 28 18 20 25 22 38 11 14 -10 14 -10 4 4 -10 13 -7 21 17 47 16 18
34 32 40 32 6 0 8 5 5 10 -6 9 8 14 28 11 5 -1 6 2 3 7 -7 12 73 94 85 87 5
-4 6 -11 3 -17 -4 -7 -2 -8 5 -4 9 6 9 11 1 21 -12 15 -6 35 11 35 6 0 7 -5 3
-12 -4 -7 -3 -8 4 -4 6 4 9 13 5 21 -6 17 12 21 20 5 3 -6 4 -5 3 2 -4 17 12
48 25 48 6 0 7 -5 3 -12 -5 -7 -3 -8 5 -4 7 5 10 10 7 13 -8 8 13 43 25 43 6
0 7 -5 3 -12 -4 -7 -3 -8 5 -4 6 4 9 11 7 15 -8 12 24 52 36 45 6 -4 8 -3 5 3
-8 12 27 46 36 36 4 -3 7 1 7 11 0 9 5 14 10 11 6 -3 10 -1 10 5 0 16 82 100
92 94 5 -3 7 0 6 8 -2 7 3 12 10 10 6 -1 11 4 10 10 -2 7 3 12 10 10 6 -1 12
3 12 9 0 18 82 99 93 92 6 -3 7 -1 4 4 -4 6 20 36 52 66 32 31 56 59 53 62 -3
3 2 5 11 5 10 0 17 7 17 16 0 8 5 12 10 9 6 -4 7 -11 4 -17 -4 -6 -2 -8 4 -5
5 4 8 17 4 29 -3 12 -1 19 4 15 5 -3 20 10 33 29 13 19 30 34 37 34 8 0 14 4
14 9 0 18 80 92 91 85 7 -4 9 -3 6 4 -8 12 122 154 135 146 5 -3 7 -1 6 4 -5
16 140 155 153 146 8 -4 10 -3 5 5 -4 6 6 24 23 42 17 17 31 35 31 40 0 6 5 7
10 4 6 -4 7 -11 4 -17 -4 -7 -2 -8 5 -4 6 4 9 12 5 17 -8 13 14 39 29 35 7 -1
8 -1 4 2 -4 2 -3 10 4 18 6 8 15 11 20 8 5 -3 9 -2 8 3 -4 24 2 35 17 29 11
-4 15 -2 11 8 -4 9 2 17 14 21 10 4 17 10 14 15 -7 11 24 22 38 14 9 -5 9 -4
1 5 -9 10 -2 22 28 52 22 21 44 39 49 39 6 0 7 5 3 12 -5 8 -2 9 10 5 10 -4
15 -3 11 3 -4 6 0 17 9 25 17 18 30 20 20 3 -4 -7 -3 -8 5 -4 6 4 9 11 6 16
-6 10 97 120 113 120 7 0 11 6 10 13 -2 6 3 11 10 9 6 -1 12 3 12 9 0 20 138
152 151 144 8 -6 10 -4 5 4 -9 14 63 93 76 84 5 -2 7 0 6 5 -4 14 102 123 113
116 5 -3 8 0 7 8 -2 7 3 12 10 10 8 -1 11 1 8 6 -8 13 84 103 96 96 6 -4 8 -3
5 3 -8 12 259 289 274 285 6 -1 8 1 5 6 -6 10 41 59 52 55 4 -2 7 1 7 7 0 5
23 32 50 58 28 27 74 74 103 105 28 31 52 53 52 49 0 -3 7 4 16 16 8 12 20 20
25 16 5 -3 9 -2 8 3 -4 23 2 35 17 29 8 -3 13 -2 9 3 -3 5 7 19 21 30 15 12
23 21 18 21 -5 1 2 7 16 15 14 8 21 14 17 15 -4 0 19 27 52 60 57 56 81 75 65
48 -4 -7 -3 -8 5 -4 6 4 9 12 5 17 -6 11 71 91 80 82 3 -4 6 0 6 9 0 20 36 53
43 38 3 -6 4 -5 3 2 -2 7 12 35 31 62 20 27 52 82 72 122 21 41 40 71 43 69 3
-3 3 6 1 20 -3 14 -1 25 3 25 5 0 10 10 10 23 2 21 7 50 20 106 12 55 3 247
-15 301 -5 14 -15 45 -22 70 -18 61 -72 164 -118 225 -21 28 -121 134 -222
237 -101 103 -395 401 -654 663 -258 262 -567 575 -685 695 -118 120 -438 444
-710 720 -272 276 -576 585 -675 685 -953 967 -1179 1196 -1238 1254 -175 170
-401 253 -627 229z"/>
<path d="M9470 4186 c0 -2 7 -7 16 -10 8 -3 12 -2 9 4 -6 10 -25 14 -25 6z"/>
<path d="M9226 3938 c3 -5 10 -6 15 -3 13 9 11 12 -6 12 -8 0 -12 -4 -9 -9z"/>
<path d="M9190 3881 c0 -6 4 -13 10 -16 6 -3 7 1 4 9 -7 18 -14 21 -14 7z"/>
<path d="M9136 3847 c3 -10 9 -15 12 -12 3 3 0 11 -7 18 -10 9 -11 8 -5 -6z"/>
<path d="M8975 3680 c3 -5 8 -10 11 -10 2 0 4 5 4 10 0 6 -5 10 -11 10 -5 0
-7 -4 -4 -10z"/>
<path d="M1435 3251 c-3 -5 -2 -12 3 -15 5 -3 9 1 9 9 0 17 -3 19 -12 6z"/>
<path d="M8170 2866 c0 -2 7 -7 16 -10 8 -3 12 -2 9 4 -6 10 -25 14 -25 6z"/>
<path d="M7359 2033 c-13 -16 -12 -17 4 -4 16 13 21 21 13 21 -2 0 -10 -8 -17
-17z"/>
<path d="M7146 1818 c3 -5 10 -6 15 -3 13 9 11 12 -6 12 -8 0 -12 -4 -9 -9z"/>
<path d="M7079 1753 c-13 -16 -12 -17 4 -4 16 13 21 21 13 21 -2 0 -10 -8 -17
-17z"/>
<path d="M3030 1619 c0 -5 5 -7 10 -4 6 3 10 8 10 11 0 2 -4 4 -10 4 -5 0 -10
-5 -10 -11z"/>
<path d="M3790 846 c0 -2 7 -7 16 -10 8 -3 12 -2 9 4 -6 10 -25 14 -25 6z"/>
<path d="M5550 206 c0 -2 7 -7 16 -10 8 -3 12 -2 9 4 -6 10 -25 14 -25 6z"/>
<path d="M5490 159 c0 -5 5 -7 10 -4 6 3 10 8 10 11 0 2 -4 4 -10 4 -5 0 -10
-5 -10 -11z"/>
<path d="M4676 47 c3 -10 9 -15 12 -12 3 3 0 11 -7 18 -10 9 -11 8 -5 -6z"/>
</g>
</svg>
