<svg width="24" height="22" viewBox="0 0 24 22" fill="none" xmlns="http://www.w3.org/2000/svg">
<path d="M21.0299 13.75H8.8155L9.08821 15.125H20.2723C20.914 15.125 21.3896 15.7395 21.2474 16.3848L21.0175 17.4279C21.7963 17.8178 22.3333 18.641 22.3333 19.5937C22.3333 20.9345 21.27 22.0191 19.9657 21.9997C18.723 21.9813 17.7011 20.9414 17.6675 19.6602C17.6492 18.9604 17.9211 18.3261 18.3677 17.875H9.63234C10.0647 18.3118 10.3333 18.9203 10.3333 19.5937C10.3333 20.9607 9.228 22.0615 7.88875 21.9973C6.69959 21.9404 5.73246 20.9495 5.66996 19.7236C5.62171 18.7768 6.10479 17.9423 6.83875 17.507L3.91179 2.75H1C0.447708 2.75 0 2.2883 0 1.71875V1.03125C0 0.461699 0.447708 0 1 0H5.27204C5.74708 0 6.15654 0.344652 6.25175 0.82457L6.63367 2.75H22.9996C23.6413 2.75 24.1169 3.3645 23.9747 4.0098L22.005 12.9473C21.9015 13.4168 21.4968 13.75 21.0299 13.75Z" fill="#333333"/>
</svg>
