<svg width="1440" height="987" viewBox="0 0 1440 987" fill="none" xmlns="http://www.w3.org/2000/svg">
<path d="M530.519 212.448C534.632 208.334 541.301 208.334 545.414 212.448L613.485 280.519C617.599 284.632 617.599 291.301 613.485 295.414L545.414 363.485C541.301 367.599 534.632 367.599 530.519 363.485L462.448 295.414C458.334 291.301 458.334 284.632 462.448 280.519L530.519 212.448Z" fill="#EDEDED"/>
<path d="M536.529 229.661C537.352 228.839 538.686 228.839 539.508 229.661L596.377 286.529C597.199 287.352 597.199 288.686 596.377 289.509L539.508 346.377C538.686 347.2 537.352 347.2 536.529 346.377L479.661 289.509C478.838 288.686 478.838 287.352 479.661 286.529L536.529 229.661Z" fill="#EDEDED"/>
<path d="M931.567 614.263C935.669 610.162 942.319 610.162 946.42 614.263L1014.3 682.142C1018.4 686.243 1018.4 692.893 1014.3 696.995L946.42 764.873C942.319 768.975 935.669 768.975 931.567 764.873L863.689 696.995C859.587 692.893 859.587 686.243 863.689 682.142L931.567 614.263Z" fill="#EDEDED"/>
<path d="M937.561 631.428C938.381 630.608 939.711 630.608 940.531 631.428L997.239 688.135C998.059 688.956 998.059 690.286 997.239 691.106L940.531 747.813C939.711 748.634 938.381 748.634 937.561 747.813L880.853 691.106C880.033 690.286 880.033 688.956 880.853 688.135L937.561 631.428Z" fill="#EDEDED"/>
<path d="M831.724 512.818C835.837 508.705 842.506 508.705 846.619 512.818L914.69 580.89C918.804 585.003 918.804 591.672 914.69 595.785L846.619 663.856C842.506 667.969 835.837 667.969 831.724 663.856L763.652 595.785C759.539 591.672 759.539 585.003 763.652 580.89L831.724 512.818Z" fill="#EDEDED"/>
<path d="M837.734 530.032C838.557 529.209 839.891 529.209 840.713 530.032L897.582 586.9C898.404 587.723 898.404 589.057 897.582 589.879L840.713 646.748C839.891 647.57 838.557 647.57 837.734 646.748L780.866 589.879C780.043 589.057 780.043 587.723 780.866 586.9L837.734 530.032Z" fill="#EDEDED"/>
<path d="M730.818 413.086C734.931 408.973 741.6 408.973 745.713 413.086L813.784 481.157C817.898 485.271 817.898 491.939 813.784 496.053L745.713 564.124C741.6 568.237 734.931 568.237 730.818 564.124L662.747 496.053C658.633 491.939 658.633 485.271 662.747 481.157L730.818 413.086Z" fill="#EDEDED"/>
<path d="M736.828 430.3C737.651 429.477 738.985 429.477 739.807 430.3L796.676 487.168C797.498 487.991 797.498 489.324 796.676 490.147L739.807 547.015C738.985 547.838 737.651 547.838 736.828 547.015L679.96 490.147C679.137 489.324 679.137 487.991 679.96 487.168L736.828 430.3Z" fill="#EDEDED"/>
<path d="M630.499 312.767C634.612 308.654 641.281 308.654 645.394 312.767L713.465 380.838C717.578 384.951 717.578 391.62 713.465 395.733L645.394 463.805C641.281 467.918 634.612 467.918 630.499 463.805L562.427 395.733C558.314 391.62 558.314 384.951 562.427 380.838L630.499 312.767Z" fill="#EDEDED"/>
<path d="M636.509 329.98C637.332 329.158 638.665 329.158 639.488 329.98L696.356 386.849C697.179 387.671 697.179 389.005 696.356 389.828L639.488 446.696C638.665 447.519 637.332 447.519 636.509 446.696L579.641 389.828C578.818 389.005 578.818 387.671 579.641 386.849L636.509 329.98Z" fill="#EDEDED"/>
<path d="M931.519 413.448C935.632 409.334 942.301 409.334 946.414 413.448L1014.49 481.519C1018.6 485.632 1018.6 492.301 1014.49 496.414L946.414 564.485C942.301 568.599 935.632 568.599 931.519 564.485L863.448 496.414C859.334 492.301 859.334 485.632 863.448 481.519L931.519 413.448Z" fill="#EDEDED"/>
<path d="M937.529 430.661C938.352 429.839 939.686 429.839 940.508 430.661L997.377 487.529C998.199 488.352 998.199 489.686 997.377 490.509L940.508 547.377C939.686 548.2 938.352 548.2 937.529 547.377L880.661 490.509C879.838 489.686 879.838 488.352 880.661 487.529L937.529 430.661Z" fill="#EDEDED"/>
<path d="M931.519 212.448C935.632 208.334 942.301 208.334 946.414 212.448L1014.49 280.519C1018.6 284.632 1018.6 291.301 1014.49 295.414L946.414 363.485C942.301 367.599 935.632 367.599 931.519 363.485L863.448 295.414C859.334 291.301 859.334 284.632 863.448 280.519L931.519 212.448Z" fill="#EDEDED"/>
<path d="M937.529 229.661C938.352 228.839 939.686 228.839 940.508 229.661L997.377 286.529C998.199 287.352 998.199 288.686 997.377 289.509L940.508 346.377C939.686 347.2 938.352 347.2 937.529 346.377L880.661 289.509C879.838 288.686 879.838 287.352 880.661 286.529L937.529 229.661Z" fill="#EDEDED"/>
<path d="M831.519 312.448C835.632 308.334 842.301 308.334 846.414 312.448L914.485 380.519C918.599 384.632 918.599 391.301 914.485 395.414L846.414 463.485C842.301 467.599 835.632 467.599 831.519 463.485L763.448 395.414C759.334 391.301 759.334 384.632 763.448 380.519L831.519 312.448Z" fill="#EDEDED"/>
<path d="M837.529 329.661C838.352 328.839 839.686 328.839 840.508 329.661L897.377 386.529C898.199 387.352 898.199 388.686 897.377 389.509L840.508 446.377C839.686 447.2 838.352 447.2 837.529 446.377L780.661 389.509C779.838 388.686 779.838 387.352 780.661 386.529L837.529 329.661Z" fill="#EDEDED"/>
<path d="M731.519 613.448C735.632 609.334 742.301 609.334 746.414 613.448L814.485 681.519C818.599 685.632 818.599 692.301 814.485 696.414L746.414 764.485C742.301 768.599 735.632 768.599 731.519 764.485L663.448 696.414C659.334 692.301 659.334 685.632 663.448 681.519L731.519 613.448Z" fill="#EDEDED"/>
<path d="M737.529 630.661C738.352 629.839 739.686 629.839 740.508 630.661L797.377 687.529C798.199 688.352 798.199 689.686 797.377 690.509L740.508 747.377C739.686 748.2 738.352 748.2 737.529 747.377L680.661 690.509C679.838 689.686 679.838 688.352 680.661 687.529L737.529 630.661Z" fill="#EDEDED"/>
<path d="M530.519 614.448C534.632 610.334 541.301 610.334 545.414 614.448L613.485 682.519C617.599 686.632 617.599 693.301 613.485 697.414L545.414 765.485C541.301 769.599 534.632 769.599 530.519 765.485L462.448 697.414C458.334 693.301 458.334 686.632 462.448 682.519L530.519 614.448Z" fill="#EDEDED"/>
<path d="M536.529 631.661C537.352 630.839 538.686 630.839 539.508 631.661L596.377 688.529C597.199 689.352 597.199 690.686 596.377 691.509L539.508 748.377C538.686 749.2 537.352 749.2 536.529 748.377L479.661 691.509C478.838 690.686 478.838 689.352 479.661 688.529L536.529 631.661Z" fill="#EDEDED"/>
<path d="M630.519 512.448C634.632 508.334 641.301 508.334 645.414 512.448L713.485 580.519C717.599 584.632 717.599 591.301 713.485 595.414L645.414 663.485C641.301 667.599 634.632 667.599 630.519 663.485L562.448 595.414C558.334 591.301 558.334 584.632 562.448 580.519L630.519 512.448Z" fill="#EDEDED"/>
<path d="M636.529 529.661C637.352 528.839 638.686 528.839 639.508 529.661L696.377 586.529C697.199 587.352 697.199 588.686 696.377 589.509L639.508 646.377C638.686 647.2 637.352 647.2 636.529 646.377L579.661 589.509C578.838 588.686 578.838 587.352 579.661 586.529L636.529 529.661Z" fill="#EDEDED"/>
<path d="M530.519 413.448C534.632 409.334 541.301 409.334 545.414 413.448L613.485 481.519C617.599 485.632 617.599 492.301 613.485 496.414L545.414 564.485C541.301 568.599 534.632 568.599 530.519 564.485L462.448 496.414C458.334 492.301 458.334 485.632 462.448 481.519L530.519 413.448Z" fill="#EDEDED"/>
<path d="M536.529 430.661C537.352 429.839 538.686 429.839 539.508 430.661L596.377 487.529C597.199 488.352 597.199 489.686 596.377 490.509L539.508 547.377C538.686 548.2 537.352 548.2 536.529 547.377L479.661 490.509C478.838 489.686 478.838 488.352 479.661 487.529L536.529 430.661Z" fill="#EDEDED"/>
<path d="M730.519 212.448C734.632 208.334 741.301 208.334 745.414 212.448L813.485 280.519C817.599 284.632 817.599 291.301 813.485 295.414L745.414 363.485C741.301 367.599 734.632 367.599 730.519 363.485L662.448 295.414C658.334 291.301 658.334 284.632 662.448 280.519L730.519 212.448Z" fill="#EDEDED"/>
<path d="M736.529 229.661C737.352 228.839 738.686 228.839 739.508 229.661L796.377 286.529C797.199 287.352 797.199 288.686 796.377 289.509L739.508 346.377C738.686 347.2 737.352 347.2 736.529 346.377L679.661 289.509C678.838 288.686 678.838 287.352 679.661 286.529L736.529 229.661Z" fill="#EDEDED"/>
<path d="M28.5189 111.448C32.6321 107.334 39.3009 107.334 43.4142 111.448L111.485 179.519C115.599 183.632 115.599 190.301 111.485 194.414L43.4142 262.485C39.3009 266.599 32.6321 266.599 28.5189 262.485L-39.5524 194.414C-43.6656 190.301 -43.6656 183.632 -39.5524 179.519L28.5189 111.448Z" fill="#EDEDED"/>
<path d="M34.5293 128.661C35.352 127.839 36.6858 127.839 37.5084 128.661L94.3767 185.529C95.1994 186.352 95.1994 187.686 94.3767 188.509L37.5084 245.377C36.6858 246.2 35.352 246.2 34.5293 245.377L-22.339 188.509C-23.1616 187.686 -23.1616 186.352 -22.339 185.529L34.5293 128.661Z" fill="#EDEDED"/>
<path d="M228.818 312.086C232.931 307.973 239.6 307.973 243.713 312.086L311.784 380.157C315.898 384.271 315.898 390.939 311.784 395.053L243.713 463.124C239.6 467.237 232.931 467.237 228.818 463.124L160.747 395.053C156.633 390.939 156.633 384.271 160.747 380.157L228.818 312.086Z" fill="#EDEDED"/>
<path d="M234.828 329.3C235.651 328.477 236.985 328.477 237.807 329.3L294.676 386.168C295.498 386.991 295.498 388.324 294.676 389.147L237.807 446.015C236.985 446.838 235.651 446.838 234.828 446.015L177.96 389.147C177.137 388.324 177.137 386.991 177.96 386.168L234.828 329.3Z" fill="#EDEDED"/>
<path d="M128.499 211.767C132.612 207.654 139.281 207.654 143.394 211.767L211.465 279.838C215.578 283.951 215.578 290.62 211.465 294.733L143.394 362.805C139.281 366.918 132.612 366.918 128.499 362.805L60.4274 294.733C56.3142 290.62 56.3142 283.951 60.4274 279.838L128.499 211.767Z" fill="#EDEDED"/>
<path d="M134.509 228.98C135.332 228.158 136.665 228.158 137.488 228.98L194.356 285.849C195.179 286.671 195.179 288.005 194.356 288.828L137.488 345.696C136.665 346.519 135.332 346.519 134.509 345.696L77.6407 288.828C76.8181 288.005 76.8181 286.671 77.6407 285.849L134.509 228.98Z" fill="#EDEDED"/>
<path d="M1138.52 212.448C1142.63 208.334 1149.3 208.334 1153.41 212.448L1221.49 280.519C1225.6 284.632 1225.6 291.301 1221.49 295.414L1153.41 363.485C1149.3 367.599 1142.63 367.599 1138.52 363.485L1070.45 295.414C1066.33 291.301 1066.33 284.632 1070.45 280.519L1138.52 212.448Z" fill="#EDEDED"/>
<path d="M1144.53 229.661C1145.35 228.839 1146.69 228.839 1147.51 229.661L1204.38 286.529C1205.2 287.352 1205.2 288.686 1204.38 289.509L1147.51 346.377C1146.69 347.2 1145.35 347.2 1144.53 346.377L1087.66 289.509C1086.84 288.686 1086.84 287.352 1087.66 286.529L1144.53 229.661Z" fill="#EDEDED"/>
<path d="M429.519 111.448C433.632 107.334 440.301 107.334 444.414 111.448L512.485 179.519C516.599 183.632 516.599 190.301 512.485 194.414L444.414 262.485C440.301 266.599 433.632 266.599 429.519 262.485L361.448 194.414C357.334 190.301 357.334 183.632 361.448 179.519L429.519 111.448Z" fill="#EDEDED"/>
<path d="M435.529 128.661C436.352 127.839 437.686 127.839 438.508 128.661L495.377 185.529C496.199 186.352 496.199 187.686 495.377 188.509L438.508 245.377C437.686 246.2 436.352 246.2 435.529 245.377L378.661 188.509C377.838 187.686 377.838 186.352 378.661 185.529L435.529 128.661Z" fill="#EDEDED"/>
<path d="M1438.52 111.448C1442.63 107.334 1449.3 107.334 1453.41 111.448L1521.49 179.519C1525.6 183.632 1525.6 190.301 1521.49 194.414L1453.41 262.485C1449.3 266.599 1442.63 266.599 1438.52 262.485L1370.45 194.414C1366.33 190.301 1366.33 183.632 1370.45 179.519L1438.52 111.448Z" fill="#EDEDED"/>
<path d="M1444.53 128.661C1445.35 127.839 1446.69 127.839 1447.51 128.661L1504.38 185.529C1505.2 186.352 1505.2 187.686 1504.38 188.509L1447.51 245.377C1446.69 246.2 1445.35 246.2 1444.53 245.377L1387.66 188.509C1386.84 187.686 1386.84 186.352 1387.66 185.529L1444.53 128.661Z" fill="#EDEDED"/>
<path d="M1339.52 16.4476C1343.63 12.3344 1350.3 12.3344 1354.41 16.4476L1422.49 84.5189C1426.6 88.6321 1426.6 95.3009 1422.49 99.4142L1354.41 167.485C1350.3 171.599 1343.63 171.599 1339.52 167.485L1271.45 99.4142C1267.33 95.3009 1267.33 88.6321 1271.45 84.5189L1339.52 16.4476Z" fill="#EDEDED"/>
<path d="M1345.53 33.6612C1346.35 32.8385 1347.69 32.8385 1348.51 33.6612L1405.38 90.5295C1406.2 91.3521 1406.2 92.6859 1405.38 93.5085L1348.51 150.377C1347.69 151.2 1346.35 151.2 1345.53 150.377L1288.66 93.5085C1287.84 92.6859 1287.84 91.3521 1288.66 90.5295L1345.53 33.6612Z" fill="#EDEDED"/>
<path d="M1239.52 111.448C1243.63 107.334 1250.3 107.334 1254.41 111.448L1322.49 179.519C1326.6 183.632 1326.6 190.301 1322.49 194.414L1254.41 262.485C1250.3 266.599 1243.63 266.599 1239.52 262.485L1171.45 194.414C1167.33 190.301 1167.33 183.632 1171.45 179.519L1239.52 111.448Z" fill="#EDEDED"/>
<path d="M1245.53 128.661C1246.35 127.839 1247.69 127.839 1248.51 128.661L1305.38 185.529C1306.2 186.352 1306.2 187.686 1305.38 188.509L1248.51 245.377C1247.69 246.2 1246.35 246.2 1245.53 245.377L1188.66 188.509C1187.84 187.686 1187.84 186.352 1188.66 185.529L1245.53 128.661Z" fill="#EDEDED"/>
<path d="M1034.52 111.448C1038.63 107.334 1045.3 107.334 1049.41 111.448L1117.49 179.519C1121.6 183.632 1121.6 190.301 1117.49 194.414L1049.41 262.485C1045.3 266.599 1038.63 266.599 1034.52 262.485L966.448 194.414C962.334 190.301 962.334 183.632 966.448 179.519L1034.52 111.448Z" fill="#EDEDED"/>
<path d="M1040.53 128.661C1041.35 127.839 1042.69 127.839 1043.51 128.661L1100.38 185.529C1101.2 186.352 1101.2 187.686 1100.38 188.509L1043.51 245.377C1042.69 246.2 1041.35 246.2 1040.53 245.377L983.661 188.509C982.838 187.686 982.838 186.352 983.661 185.529L1040.53 128.661Z" fill="#EDEDED"/>
<path d="M1138.52 14.4476C1142.63 10.3344 1149.3 10.3344 1153.41 14.4476L1221.49 82.5189C1225.6 86.6321 1225.6 93.3009 1221.49 97.4142L1153.41 165.485C1149.3 169.599 1142.63 169.599 1138.52 165.485L1070.45 97.4142C1066.33 93.3009 1066.33 86.6321 1070.45 82.5189L1138.52 14.4476Z" fill="#EDEDED"/>
<path d="M1144.53 31.6612C1145.35 30.8385 1146.69 30.8385 1147.51 31.6612L1204.38 88.5295C1205.2 89.3521 1205.2 90.6859 1204.38 91.5085L1147.51 148.377C1146.69 149.2 1145.35 149.2 1144.53 148.377L1087.66 91.5085C1086.84 90.6859 1086.84 89.3521 1087.66 88.5295L1144.53 31.6612Z" fill="#EDEDED"/>
<path d="M1435.52 716.448C1439.63 712.334 1446.3 712.334 1450.41 716.448L1518.49 784.519C1522.6 788.632 1522.6 795.301 1518.49 799.414L1450.41 867.485C1446.3 871.599 1439.63 871.599 1435.52 867.485L1367.45 799.414C1363.33 795.301 1363.33 788.632 1367.45 784.519L1435.52 716.448Z" fill="#EDEDED"/>
<path d="M1441.53 733.661C1442.35 732.839 1443.69 732.839 1444.51 733.661L1501.38 790.529C1502.2 791.352 1502.2 792.686 1501.38 793.509L1444.51 850.377C1443.69 851.2 1442.35 851.2 1441.53 850.377L1384.66 793.509C1383.84 792.686 1383.84 791.352 1384.66 790.529L1441.53 733.661Z" fill="#EDEDED"/>
<path d="M1429.52 512.448C1433.63 508.334 1440.3 508.334 1444.41 512.448L1512.49 580.519C1516.6 584.632 1516.6 591.301 1512.49 595.414L1444.41 663.485C1440.3 667.599 1433.63 667.599 1429.52 663.485L1361.45 595.414C1357.33 591.301 1357.33 584.632 1361.45 580.519L1429.52 512.448Z" fill="#EDEDED"/>
<path d="M1435.53 529.661C1436.35 528.839 1437.69 528.839 1438.51 529.661L1495.38 586.529C1496.2 587.352 1496.2 588.686 1495.38 589.509L1438.51 646.377C1437.69 647.2 1436.35 647.2 1435.53 646.377L1378.66 589.509C1377.84 588.686 1377.84 587.352 1378.66 586.529L1435.53 529.661Z" fill="#EDEDED"/>
<path d="M1332.52 617.448C1336.63 613.334 1343.3 613.334 1347.41 617.448L1415.49 685.519C1419.6 689.632 1419.6 696.301 1415.49 700.414L1347.41 768.485C1343.3 772.599 1336.63 772.599 1332.52 768.485L1264.45 700.414C1260.33 696.301 1260.33 689.632 1264.45 685.519L1332.52 617.448Z" fill="#EDEDED"/>
<path d="M1338.53 634.661C1339.35 633.839 1340.69 633.839 1341.51 634.661L1398.38 691.529C1399.2 692.352 1399.2 693.686 1398.38 694.509L1341.51 751.377C1340.69 752.2 1339.35 752.2 1338.53 751.377L1281.66 694.509C1280.84 693.686 1280.84 692.352 1281.66 691.529L1338.53 634.661Z" fill="#EDEDED"/>
<path d="M927.519 821.448C931.632 817.334 938.301 817.334 942.414 821.448L1010.49 889.519C1014.6 893.632 1014.6 900.301 1010.49 904.414L942.414 972.485C938.301 976.599 931.632 976.599 927.519 972.485L859.448 904.414C855.334 900.301 855.334 893.632 859.448 889.519L927.519 821.448Z" fill="#EDEDED"/>
<path d="M933.529 838.661C934.352 837.839 935.686 837.839 936.508 838.661L993.377 895.529C994.199 896.352 994.199 897.686 993.377 898.509L936.508 955.377C935.686 956.2 934.352 956.2 933.529 955.377L876.661 898.509C875.838 897.686 875.838 896.352 876.661 895.529L933.529 838.661Z" fill="#EDEDED"/>
<path d="M630.519 723.448C634.632 719.334 641.301 719.334 645.414 723.448L713.485 791.519C717.599 795.632 717.599 802.301 713.485 806.414L645.414 874.485C641.301 878.599 634.632 878.599 630.519 874.485L562.448 806.414C558.334 802.301 558.334 795.632 562.448 791.519L630.519 723.448Z" fill="#EDEDED"/>
<path d="M636.529 740.661C637.352 739.839 638.686 739.839 639.508 740.661L696.377 797.529C697.199 798.352 697.199 799.686 696.377 800.509L639.508 857.377C638.686 858.2 637.352 858.2 636.529 857.377L579.661 800.509C578.838 799.686 578.838 798.352 579.661 797.529L636.529 740.661Z" fill="#EDEDED"/>
<path d="M828.519 112.448C832.632 108.334 839.301 108.334 843.414 112.448L911.485 180.519C915.599 184.632 915.599 191.301 911.485 195.414L843.414 263.485C839.301 267.599 832.632 267.599 828.519 263.485L760.448 195.414C756.334 191.301 756.334 184.632 760.448 180.519L828.519 112.448Z" fill="#EDEDED"/>
<path d="M834.529 129.661C835.352 128.839 836.686 128.839 837.508 129.661L894.377 186.529C895.199 187.352 895.199 188.686 894.377 189.509L837.508 246.377C836.686 247.2 835.352 247.2 834.529 246.377L777.661 189.509C776.838 188.686 776.838 187.352 777.661 186.529L834.529 129.661Z" fill="#EDEDED"/>
<path d="M630.519 109.448C634.632 105.334 641.301 105.334 645.414 109.448L713.485 177.519C717.599 181.632 717.599 188.301 713.485 192.414L645.414 260.485C641.301 264.599 634.632 264.599 630.519 260.485L562.448 192.414C558.334 188.301 558.334 181.632 562.448 177.519L630.519 109.448Z" fill="#EDEDED"/>
<path d="M636.529 126.661C637.352 125.839 638.686 125.839 639.508 126.661L696.377 183.529C697.199 184.352 697.199 185.686 696.377 186.509L639.508 243.377C638.686 244.2 637.352 244.2 636.529 243.377L579.661 186.509C578.838 185.686 578.838 184.352 579.661 183.529L636.529 126.661Z" fill="#EDEDED"/>
<path d="M332.519 7.44763C336.632 3.33442 343.301 3.33441 347.414 7.44762L415.485 75.5189C419.599 79.6321 419.599 86.3009 415.485 90.4142L347.414 158.485C343.301 162.599 336.632 162.599 332.519 158.485L264.448 90.4142C260.334 86.3009 260.334 79.6321 264.448 75.5189L332.519 7.44763Z" fill="#EDEDED"/>
<path d="M338.529 24.6612C339.352 23.8385 340.686 23.8385 341.508 24.6612L398.377 81.5295C399.199 82.3521 399.199 83.6859 398.377 84.5085L341.508 141.377C340.686 142.2 339.352 142.2 338.529 141.377L281.661 84.5085C280.838 83.6859 280.838 82.3521 281.661 81.5295L338.529 24.6612Z" fill="#EDEDED"/>
<path d="M128.519 828.448C132.632 824.334 139.301 824.334 143.414 828.448L211.485 896.519C215.599 900.632 215.599 907.301 211.485 911.414L143.414 979.485C139.301 983.599 132.632 983.599 128.519 979.485L60.4476 911.414C56.3344 907.301 56.3344 900.632 60.4476 896.519L128.519 828.448Z" fill="#EDEDED"/>
<path d="M134.529 845.661C135.352 844.839 136.686 844.839 137.508 845.661L194.377 902.529C195.199 903.352 195.199 904.686 194.377 905.509L137.508 962.377C136.686 963.2 135.352 963.2 134.529 962.377L77.661 905.509C76.8384 904.686 76.8384 903.352 77.661 902.529L134.529 845.661Z" fill="#EDEDED"/>
<path d="M132.519 614.448C136.632 610.334 143.301 610.334 147.414 614.448L215.485 682.519C219.599 686.632 219.599 693.301 215.485 697.414L147.414 765.485C143.301 769.599 136.632 769.599 132.519 765.485L64.4476 697.414C60.3344 693.301 60.3344 686.632 64.4476 682.519L132.519 614.448Z" fill="#EDEDED"/>
<path d="M138.529 631.661C139.352 630.839 140.686 630.839 141.508 631.661L198.377 688.529C199.199 689.352 199.199 690.686 198.377 691.509L141.508 748.377C140.686 749.2 139.352 749.2 138.529 748.377L81.661 691.509C80.8384 690.686 80.8384 689.352 81.661 688.529L138.529 631.661Z" fill="#EDEDED"/>
<path d="M228.519 721.448C232.632 717.334 239.301 717.334 243.414 721.448L311.485 789.519C315.599 793.632 315.599 800.301 311.485 804.414L243.414 872.485C239.301 876.599 232.632 876.599 228.519 872.485L160.448 804.414C156.334 800.301 156.334 793.632 160.448 789.519L228.519 721.448Z" fill="#EDEDED"/>
<path d="M234.529 738.661C235.352 737.839 236.686 737.839 237.508 738.661L294.377 795.529C295.199 796.352 295.199 797.686 294.377 798.509L237.508 855.377C236.686 856.2 235.352 856.2 234.529 855.377L177.661 798.509C176.838 797.686 176.838 796.352 177.661 795.529L234.529 738.661Z" fill="#EDEDED"/>
<path d="M329.519 211.448C333.632 207.334 340.301 207.334 344.414 211.448L412.485 279.519C416.599 283.632 416.599 290.301 412.485 294.414L344.414 362.485C340.301 366.599 333.632 366.599 329.519 362.485L261.448 294.414C257.334 290.301 257.334 283.632 261.448 279.519L329.519 211.448Z" fill="#EDEDED"/>
<path d="M335.529 228.661C336.352 227.839 337.686 227.839 338.508 228.661L395.377 285.529C396.199 286.352 396.199 287.686 395.377 288.509L338.508 345.377C337.686 346.2 336.352 346.2 335.529 345.377L278.661 288.509C277.838 287.686 277.838 286.352 278.661 285.529L335.529 228.661Z" fill="#EDEDED"/>
<path d="M28.5189 312.448C32.6321 308.334 39.3009 308.334 43.4142 312.448L111.485 380.519C115.599 384.632 115.599 391.301 111.485 395.414L43.4142 463.485C39.3009 467.599 32.6321 467.599 28.5189 463.485L-39.5524 395.414C-43.6656 391.301 -43.6656 384.632 -39.5524 380.519L28.5189 312.448Z" fill="#EDEDED"/>
<path d="M34.5293 329.661C35.352 328.839 36.6857 328.839 37.5084 329.661L94.3767 386.529C95.1994 387.352 95.1994 388.686 94.3767 389.509L37.5084 446.377C36.6857 447.2 35.352 447.2 34.5293 446.377L-22.339 389.509C-23.1616 388.686 -23.1616 387.352 -22.339 386.529L34.5293 329.661Z" fill="#EDEDED"/>
<path d="M1033.52 512.448C1037.63 508.334 1044.3 508.334 1048.41 512.448L1116.49 580.519C1120.6 584.632 1120.6 591.301 1116.49 595.414L1048.41 663.485C1044.3 667.599 1037.63 667.599 1033.52 663.485L965.448 595.414C961.334 591.301 961.334 584.632 965.448 580.519L1033.52 512.448Z" fill="#EDEDED"/>
<path d="M1039.53 529.661C1040.35 528.839 1041.69 528.839 1042.51 529.661L1099.38 586.529C1100.2 587.352 1100.2 588.686 1099.38 589.509L1042.51 646.377C1041.69 647.2 1040.35 647.2 1039.53 646.377L982.661 589.509C981.838 588.686 981.838 587.352 982.661 586.529L1039.53 529.661Z" fill="#EDEDED"/>
<path d="M730.305 828.426C734.407 824.325 741.056 824.325 745.158 828.426L813.036 896.305C817.138 900.406 817.138 907.056 813.036 911.158L745.158 979.036C741.056 983.138 734.407 983.138 730.305 979.036L662.427 911.158C658.325 907.056 658.325 900.406 662.427 896.305L730.305 828.426Z" fill="#EDEDED"/>
<path d="M736.298 845.591C737.119 844.771 738.449 844.771 739.269 845.591L795.976 902.298C796.797 903.119 796.797 904.449 795.976 905.269L739.269 961.976C738.449 962.797 737.119 962.797 736.298 961.976L679.591 905.269C678.771 904.449 678.771 903.119 679.591 902.298L736.298 845.591Z" fill="#EDEDED"/>
<path d="M1235.52 512.448C1239.63 508.334 1246.3 508.334 1250.41 512.448L1318.49 580.519C1322.6 584.632 1322.6 591.301 1318.49 595.414L1250.41 663.485C1246.3 667.599 1239.63 667.599 1235.52 663.485L1167.45 595.414C1163.33 591.301 1163.33 584.632 1167.45 580.519L1235.52 512.448Z" fill="#EDEDED"/>
<path d="M1241.53 529.661C1242.35 528.839 1243.69 528.839 1244.51 529.661L1301.38 586.529C1302.2 587.352 1302.2 588.686 1301.38 589.509L1244.51 646.377C1243.69 647.2 1242.35 647.2 1241.53 646.377L1184.66 589.509C1183.84 588.686 1183.84 587.352 1184.66 586.529L1241.53 529.661Z" fill="#EDEDED"/>
<path d="M1132.52 413.448C1136.63 409.334 1143.3 409.334 1147.41 413.448L1215.49 481.519C1219.6 485.632 1219.6 492.301 1215.49 496.414L1147.41 564.485C1143.3 568.599 1136.63 568.599 1132.52 564.485L1064.45 496.414C1060.33 492.301 1060.33 485.632 1064.45 481.519L1132.52 413.448Z" fill="#EDEDED"/>
<path d="M1138.53 430.661C1139.35 429.839 1140.69 429.839 1141.51 430.661L1198.38 487.529C1199.2 488.352 1199.2 489.686 1198.38 490.509L1141.51 547.377C1140.69 548.2 1139.35 548.2 1138.53 547.377L1081.66 490.509C1080.84 489.686 1080.84 488.352 1081.66 487.529L1138.53 430.661Z" fill="#EDEDED"/>
<path d="M330.519 817.448C334.632 813.334 341.301 813.334 345.414 817.448L413.485 885.519C417.599 889.632 417.599 896.301 413.485 900.414L345.414 968.485C341.301 972.599 334.632 972.599 330.519 968.485L262.448 900.414C258.334 896.301 258.334 889.632 262.448 885.519L330.519 817.448Z" fill="#EDEDED"/>
<path d="M336.529 834.661C337.352 833.839 338.686 833.839 339.508 834.661L396.377 891.529C397.199 892.352 397.199 893.686 396.377 894.509L339.508 951.377C338.686 952.2 337.352 952.2 336.529 951.377L279.661 894.509C278.838 893.686 278.838 892.352 279.661 891.529L336.529 834.661Z" fill="#EDEDED"/>
<path d="M1231.52 314.704C1235.63 310.591 1242.3 310.591 1246.41 314.704L1314.49 382.775C1318.6 386.889 1318.6 393.558 1314.49 397.671L1246.41 465.742C1242.3 469.855 1235.63 469.855 1231.52 465.742L1163.45 397.671C1159.33 393.558 1159.33 386.889 1163.45 382.775L1231.52 314.704Z" fill="#EDEDED"/>
<path d="M1237.53 331.918C1238.35 331.095 1239.69 331.095 1240.51 331.918L1297.38 388.786C1298.2 389.609 1298.2 390.942 1297.38 391.765L1240.51 448.633C1239.69 449.456 1238.35 449.456 1237.53 448.633L1180.66 391.765C1179.84 390.942 1179.84 389.609 1180.66 388.786L1237.53 331.918Z" fill="#EDEDED"/>
<path d="M1033.31 312.426C1037.41 308.325 1044.06 308.325 1048.16 312.426L1116.04 380.305C1120.14 384.406 1120.14 391.056 1116.04 395.158L1048.16 463.036C1044.06 467.138 1037.41 467.138 1033.31 463.036L965.427 395.158C961.325 391.056 961.325 384.406 965.427 380.305L1033.31 312.426Z" fill="#EDEDED"/>
<path d="M1039.3 329.591C1040.12 328.771 1041.45 328.771 1042.27 329.591L1098.98 386.298C1099.8 387.119 1099.8 388.449 1098.98 389.269L1042.27 445.976C1041.45 446.797 1040.12 446.797 1039.3 445.976L982.591 389.269C981.771 388.449 981.771 387.119 982.591 386.298L1039.3 329.591Z" fill="#EDEDED"/>
<path d="M430.519 511.448C434.632 507.334 441.301 507.334 445.414 511.448L513.485 579.519C517.599 583.632 517.599 590.301 513.485 594.414L445.414 662.485C441.301 666.599 434.632 666.599 430.519 662.485L362.448 594.414C358.334 590.301 358.334 583.632 362.448 579.519L430.519 511.448Z" fill="#EDEDED"/>
<path d="M436.529 528.661C437.352 527.839 438.686 527.839 439.508 528.661L496.377 585.529C497.199 586.352 497.199 587.686 496.377 588.509L439.508 645.377C438.686 646.2 437.352 646.2 436.529 645.377L379.661 588.509C378.838 587.686 378.838 586.352 379.661 585.529L436.529 528.661Z" fill="#EDEDED"/>
<path d="M332.936 412.448C337.049 408.334 343.718 408.334 347.831 412.448L415.902 480.519C420.015 484.632 420.015 491.301 415.902 495.414L347.831 563.485C343.718 567.599 337.049 567.599 332.936 563.485L264.864 495.414C260.751 491.301 260.751 484.632 264.864 480.519L332.936 412.448Z" fill="#EDEDED"/>
<path d="M338.946 429.661C339.769 428.839 341.102 428.839 341.925 429.661L398.793 486.529C399.616 487.352 399.616 488.686 398.793 489.509L341.925 546.377C341.102 547.2 339.769 547.2 338.946 546.377L282.078 489.509C281.255 488.686 281.255 487.352 282.078 486.529L338.946 429.661Z" fill="#EDEDED"/>
<path d="M332.936 613.448C337.049 609.334 343.718 609.334 347.831 613.448L415.902 681.519C420.015 685.632 420.015 692.301 415.902 696.414L347.831 764.485C343.718 768.599 337.049 768.599 332.936 764.485L264.864 696.414C260.751 692.301 260.751 685.632 264.864 681.519L332.936 613.448Z" fill="#EDEDED"/>
<path d="M338.946 630.661C339.769 629.839 341.102 629.839 341.925 630.661L398.793 687.529C399.616 688.352 399.616 689.686 398.793 690.509L341.925 747.377C341.102 748.2 339.769 748.2 338.946 747.377L282.078 690.509C281.255 689.686 281.255 688.352 282.078 687.529L338.946 630.661Z" fill="#EDEDED"/>
<path d="M1235.52 716.448C1239.63 712.334 1246.3 712.334 1250.41 716.448L1318.49 784.519C1322.6 788.632 1322.6 795.301 1318.49 799.414L1250.41 867.485C1246.3 871.599 1239.63 871.599 1235.52 867.485L1167.45 799.414C1163.33 795.301 1163.33 788.632 1167.45 784.519L1235.52 716.448Z" fill="#EDEDED"/>
<path d="M1241.53 733.661C1242.35 732.839 1243.69 732.839 1244.51 733.661L1301.38 790.529C1302.2 791.352 1302.2 792.686 1301.38 793.509L1244.51 850.377C1243.69 851.2 1242.35 851.2 1241.53 850.377L1184.66 793.509C1183.84 792.686 1183.84 791.352 1184.66 790.529L1241.53 733.661Z" fill="#EDEDED"/>
<path d="M1034.52 714.448C1038.63 710.334 1045.3 710.334 1049.41 714.448L1117.49 782.519C1121.6 786.632 1121.6 793.301 1117.49 797.414L1049.41 865.485C1045.3 869.599 1038.63 869.599 1034.52 865.485L966.448 797.414C962.334 793.301 962.334 786.632 966.448 782.519L1034.52 714.448Z" fill="#EDEDED"/>
<path d="M1040.53 731.661C1041.35 730.839 1042.69 730.839 1043.51 731.661L1100.38 788.529C1101.2 789.352 1101.2 790.686 1100.38 791.509L1043.51 848.377C1042.69 849.2 1041.35 849.2 1040.53 848.377L983.661 791.509C982.838 790.686 982.838 789.352 983.661 788.529L1040.53 731.661Z" fill="#EDEDED"/>
<path d="M1134.52 617.448C1138.63 613.334 1145.3 613.334 1149.41 617.448L1217.49 685.519C1221.6 689.632 1221.6 696.301 1217.49 700.414L1149.41 768.485C1145.3 772.599 1138.63 772.599 1134.52 768.485L1066.45 700.414C1062.33 696.301 1062.33 689.632 1066.45 685.519L1134.52 617.448Z" fill="#EDEDED"/>
<path d="M1140.53 634.661C1141.35 633.839 1142.69 633.839 1143.51 634.661L1200.38 691.529C1201.2 692.352 1201.2 693.686 1200.38 694.509L1143.51 751.377C1142.69 752.2 1141.35 752.2 1140.53 751.377L1083.66 694.509C1082.84 693.686 1082.84 692.352 1083.66 691.529L1140.53 634.661Z" fill="#EDEDED"/>
<path d="M530.519 7.44763C534.632 3.33442 541.301 3.33441 545.414 7.44762L613.485 75.5189C617.599 79.6321 617.599 86.3009 613.485 90.4142L545.414 158.485C541.301 162.599 534.632 162.599 530.519 158.485L462.448 90.4142C458.334 86.3009 458.334 79.6321 462.448 75.5189L530.519 7.44763Z" fill="#EDEDED"/>
<path d="M536.529 24.6612C537.352 23.8385 538.686 23.8385 539.508 24.6612L596.377 81.5295C597.199 82.3521 597.199 83.6859 596.377 84.5085L539.508 141.377C538.686 142.2 537.352 142.2 536.529 141.377L479.661 84.5085C478.838 83.6859 478.838 82.3521 479.661 81.5295L536.529 24.6612Z" fill="#EDEDED"/>
</svg>
