<svg xmlns="http://www.w3.org/2000/svg" width="50" height="51" fill="none" viewBox="0 0 50 51"><circle cx="24.913" cy="25.565" r="22.258" fill="#fff" stroke="#22ACEA" stroke-width="5"/><path fill="#000" d="M25.0347 29H17.7251V27.5498L21.1748 23.873C21.6484 23.3555 21.9976 22.9038 22.2222 22.5181C22.4517 22.1323 22.5664 21.7661 22.5664 21.4194C22.5664 20.9458 22.4468 20.5747 22.2075 20.3062C21.9683 20.0327 21.6265 19.896 21.1821 19.896C20.7036 19.896 20.3252 20.062 20.0469 20.394C19.7734 20.7212 19.6367 21.1533 19.6367 21.6904H17.5127C17.5127 21.041 17.6665 20.4478 17.9741 19.9106C18.2866 19.3735 18.7261 18.9536 19.2925 18.6509C19.8589 18.3433 20.501 18.1895 21.2188 18.1895C22.3174 18.1895 23.1694 18.4531 23.7749 18.9805C24.3853 19.5078 24.6904 20.2524 24.6904 21.2144C24.6904 21.7417 24.5537 22.2788 24.2803 22.8257C24.0068 23.3726 23.5381 24.0098 22.874 24.7373L20.4497 27.2935H25.0347V29ZM33.5161 24.5908C33.5161 26.0654 33.2109 27.1934 32.6006 27.9746C31.9902 28.7559 31.0967 29.1465 29.9199 29.1465C28.7578 29.1465 27.8691 28.7632 27.2539 27.9966C26.6387 27.23 26.3237 26.1313 26.3091 24.7007V22.7378C26.3091 21.2485 26.6167 20.1182 27.2319 19.3467C27.8521 18.5752 28.7432 18.1895 29.9053 18.1895C31.0674 18.1895 31.9561 18.5728 32.5713 19.3394C33.1865 20.1011 33.5015 21.1973 33.5161 22.6279V24.5908ZM31.3994 22.4375C31.3994 21.5537 31.2773 20.9116 31.0332 20.5112C30.7939 20.106 30.418 19.9033 29.9053 19.9033C29.4072 19.9033 29.0386 20.0962 28.7993 20.4819C28.5649 20.8628 28.4404 21.4609 28.4258 22.2764V24.8691C28.4258 25.7383 28.543 26.3853 28.7773 26.8101C29.0166 27.23 29.3975 27.4399 29.9199 27.4399C30.4375 27.4399 30.811 27.2373 31.0405 26.832C31.27 26.4268 31.3896 25.8066 31.3994 24.9717V22.4375Z"/><path fill="#000" d="M20.1787 33.9443C20.1787 34.4326 20.0674 34.8242 19.8447 35.1191C19.624 35.4121 19.3252 35.5586 18.9482 35.5586C18.6279 35.5586 18.3691 35.4473 18.1719 35.2246V36.7188H17.3252V32.3301H18.1104L18.1396 32.6406C18.3447 32.3945 18.6123 32.2715 18.9424 32.2715C19.333 32.2715 19.6367 32.416 19.8535 32.7051C20.0703 32.9941 20.1787 33.3926 20.1787 33.9004V33.9443ZM19.332 33.8828C19.332 33.5879 19.2793 33.3604 19.1738 33.2002C19.0703 33.04 18.9189 32.96 18.7197 32.96C18.4541 32.96 18.2715 33.0615 18.1719 33.2646V34.5625C18.2754 34.7715 18.46 34.876 18.7256 34.876C19.1299 34.876 19.332 34.5449 19.332 33.8828ZM20.5742 33.8857C20.5742 33.5713 20.6348 33.291 20.7559 33.0449C20.877 32.7988 21.0508 32.6084 21.2773 32.4736C21.5059 32.3389 21.7705 32.2715 22.0713 32.2715C22.499 32.2715 22.8477 32.4023 23.1172 32.6641C23.3887 32.9258 23.54 33.2812 23.5713 33.7305L23.5771 33.9473C23.5771 34.4336 23.4414 34.8242 23.1699 35.1191C22.8984 35.4121 22.5342 35.5586 22.0771 35.5586C21.6201 35.5586 21.2549 35.4121 20.9814 35.1191C20.71 34.8262 20.5742 34.4277 20.5742 33.9238V33.8857ZM21.4209 33.9473C21.4209 34.248 21.4775 34.4785 21.5908 34.6387C21.7041 34.7969 21.8662 34.876 22.0771 34.876C22.2822 34.876 22.4424 34.7979 22.5576 34.6416C22.6729 34.4834 22.7305 34.2314 22.7305 33.8857C22.7305 33.5908 22.6729 33.3623 22.5576 33.2002C22.4424 33.0381 22.2803 32.957 22.0713 32.957C21.8643 32.957 21.7041 33.0381 21.5908 33.2002C21.4775 33.3604 21.4209 33.6094 21.4209 33.9473ZM24.9922 35.5H24.1426V32.3301H24.9922V35.5ZM24.0928 31.5098C24.0928 31.3828 24.1348 31.2783 24.2188 31.1963C24.3047 31.1143 24.4209 31.0732 24.5674 31.0732C24.7119 31.0732 24.8271 31.1143 24.9131 31.1963C24.999 31.2783 25.042 31.3828 25.042 31.5098C25.042 31.6387 24.998 31.7441 24.9102 31.8262C24.8242 31.9082 24.71 31.9492 24.5674 31.9492C24.4248 31.9492 24.3096 31.9082 24.2217 31.8262C24.1357 31.7441 24.0928 31.6387 24.0928 31.5098ZM26.4717 32.3301L26.498 32.6963C26.7246 32.4131 27.0283 32.2715 27.4092 32.2715C27.7451 32.2715 27.9951 32.3701 28.1592 32.5674C28.3232 32.7646 28.4072 33.0596 28.4111 33.4521V35.5H27.5645V33.4727C27.5645 33.293 27.5254 33.1631 27.4473 33.083C27.3691 33.001 27.2393 32.96 27.0576 32.96C26.8193 32.96 26.6406 33.0615 26.5215 33.2646V35.5H25.6748V32.3301H26.4717ZM30.0693 31.5508V32.3301H30.6113V32.9512H30.0693V34.5332C30.0693 34.6504 30.0918 34.7344 30.1367 34.7852C30.1816 34.8359 30.2676 34.8613 30.3945 34.8613C30.4883 34.8613 30.5713 34.8545 30.6436 34.8408V35.4824C30.4775 35.5332 30.3066 35.5586 30.1309 35.5586C29.5371 35.5586 29.2344 35.2588 29.2227 34.6592V32.9512H28.7598V32.3301H29.2227V31.5508H30.0693ZM32.7998 34.624C32.7998 34.5205 32.748 34.4395 32.6445 34.3809C32.543 34.3203 32.3789 34.2666 32.1523 34.2197C31.3984 34.0615 31.0215 33.7412 31.0215 33.2588C31.0215 32.9775 31.1377 32.7432 31.3701 32.5557C31.6045 32.3662 31.9102 32.2715 32.2871 32.2715C32.6895 32.2715 33.0107 32.3662 33.251 32.5557C33.4932 32.7451 33.6143 32.9912 33.6143 33.2939H32.7676C32.7676 33.1729 32.7285 33.0732 32.6504 32.9951C32.5723 32.915 32.4502 32.875 32.2842 32.875C32.1416 32.875 32.0312 32.9072 31.9531 32.9717C31.875 33.0361 31.8359 33.1182 31.8359 33.2178C31.8359 33.3115 31.8799 33.3877 31.9678 33.4463C32.0576 33.5029 32.208 33.5527 32.4189 33.5957C32.6299 33.6367 32.8076 33.6836 32.9521 33.7363C33.3994 33.9004 33.623 34.1846 33.623 34.5889C33.623 34.8779 33.499 35.1123 33.251 35.292C33.0029 35.4697 32.6826 35.5586 32.29 35.5586C32.0244 35.5586 31.7881 35.5117 31.5811 35.418C31.376 35.3223 31.2148 35.1924 31.0977 35.0283C30.9805 34.8623 30.9219 34.6836 30.9219 34.4922H31.7246C31.7324 34.6426 31.7881 34.7578 31.8916 34.8379C31.9951 34.918 32.1338 34.958 32.3076 34.958C32.4697 34.958 32.5918 34.9277 32.6738 34.8672C32.7578 34.8047 32.7998 34.7236 32.7998 34.624Z"/></svg>